{
.appVersion = "3343";
.formatVersion = 3;
axes = (
{
name = Width;
tag = wdth;
}
);
customParameters = (
{
name = vendorID;
value = SoyferBreyt;
},
{
name = panose;
value = (
2,
0,
4,
0,
0,
0,
0,
0,
0,
0
);
},
{
name = unicodeRanges;
value = (
0,
1,
11
);
},
{
name = fsType;
value = (
);
},
{
name = glyphOrder;
value = (
.notdef,
.null,
CR,
space,
exclam,
quotedbl,
numbersign,
dollar,
percent,
ampersand,
quotesingle,
parenleft,
parenright,
asterisk,
plus,
comma,
hyphenminus,
period,
slash,
zero,
one,
two,
three,
four,
five,
six,
seven,
eight,
nine,
colon,
semicolon,
less,
equal,
greater,
question,
at,
A,
B,
C,
D,
E,
F,
G,
H,
I,
J,
K,
L,
M,
N,
O,
P,
Q,
R,
S,
T,
U,
V,
W,
X,
Y,
Z,
bracketleft,
backslash,
bracketright,
asciicircum,
underscore,
grave,
a,
b,
c,
d,
e,
f,
g,
h,
i,
j,
k,
l,
m,
n,
o,
p,
q,
r,
s,
t,
u,
v,
w,
x,
y,
z,
braceleft,
bar,
braceright,
asciitilde,
nonbreakingspace,
exclamdown,
cent,
sterling,
currency,
yen,
section,
dieresis,
copyright,
ordfeminine,
guillemotleft,
logicalnot,
registered,
macron,
degree,
plusminus,
acute,
micro,
paragraph,
periodcentered,
cedilla,
ordmasculine,
guillemotright,
questiondown,
Agrave,
Aacute,
Acircumflex,
Atilde,
Adieresis,
Aring,
AE,
Ccedilla,
Egrave,
Eacute,
Ecircumflex,
Edieresis,
Igrave,
Iacute,
Icircumflex,
Idieresis,
Ntilde,
Ograve,
Oacute,
Ocircumflex,
Otilde,
Odieresis,
Oslash,
Ugrave,
Uacute,
Ucircumflex,
Udieresis,
germandbls,
agrave,
aacute,
acircumflex,
atilde,
adieresis,
aring,
ae,
ccedilla,
egrave,
eacute,
ecircumflex,
edieresis,
igrave,
iacute,
icircumflex,
idieresis,
ntilde,
ograve,
oacute,
ocircumflex,
otilde,
odieresis,
divide,
oslash,
ugrave,
uacute,
ucircumflex,
udieresis,
ydieresis,
OE,
oe,
Ydieresis,
florin,
circumflex,
tilde,
en,
em,
quoteleft,
quoteright,
quotesinglbase,
quotedblleft,
quotedblright,
doublecomma,
dagger,
daggerdbl,
bullet,
ellipsis,
perthousand,
guilsinglleft,
guilsinglright,
trademark,
brokenbar,
sfthyphen,
twosuperior,
threesuperior,
onesuperior,
onequarter,
onehalf,

glyphs = (
{
glyphname = .notdef;
lastChange = "2025-08-23 01:57:26 +0000";
layers = (
{
layerId = m01;
shapes = (
{
closed = 1;
nodes = (
(896,1536,l),
(128,1536,l),
(128,0,l),
(896,0,l)
);
},
{
closed = 1;
nodes = (
(768,1408,l),
(768,128,l),
(256,128,l),
(256,1408,l)
);
}
);
userData = {
assembly = "PUSHW[ ]	/* 1 value pushed */
8
MDAP[1]	/* MoveDirectAbsPt */
PUSHW[ ]	/* 1 value pushed */
9
MDAP[1]	/* MoveDirectAbsPt */
PUSHW[ ]	/* 1 value pushed */
8
SRP0[ ]	/* SetRefPoint0 */
PUSHW[ ]	/* 1 value pushed */
0
MDRP[10000]	/* MoveDirectRelPt */
PUSHW[ ]	/* 1 value pushed */
0
MDAP[1]	/* MoveDirectAbsPt */
PUSHW[ ]	/* 1 value pushed */
9
SRP0[ ]	/* SetRefPoint0 */
PUSHW[ ]	/* 1 value pushed */
3
MDRP[11100]	/* MoveDirectRelPt */
PUSHW[ ]	/* 1 value pushed */
0
SRP0[ ]	/* SetRefPoint0 */
PUSHW[ ]	/* 2 values pushed */
4 5
MIRP[11100]	/* MoveIndirectRelPt */
PUSHW[ ]	/* 1 value pushed */
3
SRP0[ ]	/* SetRefPoint0 */
PUSHW[ ]	/* 2 values pushed */
5 5
MIRP[11100]	/* MoveIndirectRelPt */
SVTCA[0]	/* SetFreedomAndProjectionVectorToAxis */
PUSHW[ ]	/* 4 values pushed */
4 2 0 4
CALL[ ]	/* CallFunction */
PUSHW[ ]	/* 4 values pushed */
2 2 6 4
CALL[ ]	/* CallFunction */
IUP[0]	/* InterpolateUntPts */
IUP[1]	/* InterpolateUntPts */";
};
width = 1024;
},
{
layerId = m002;
shapes = (
{
closed = 1;
nodes = (
(896,1536,l),
(128,1536,l),
(128,0,l),
(896,0,l)
);
},
{
closed = 1;
nodes = (
(768,1408,l),
(768,128,l),
(256,128,l),
(256,1408,l)
);
}
);
userData = {
assembly = "PUSHW[ ]	/* 1 value pushed */
8
MDAP[1]	/* MoveDirectAbsPt */
PUSHW[ ]	/* 1 value pushed */
9
MDAP[1]	/* MoveDirectAbsPt */
PUSHW[ ]	/* 1 value pushed */
8
SRP0[ ]	/* SetRefPoint0 */
PUSHW[ ]	/* 1 value pushed */
0
MDRP[10000]	/* MoveDirectRelPt */
PUSHW[ ]	/* 1 value pushed */
0
MDAP[1]	/* MoveDirectAbsPt */
PUSHW[ ]	/* 1 value pushed */
9
SRP0[ ]	/* SetRefPoint0 */
PUSHW[ ]	/* 1 value pushed */
3
MDRP[11100]	/* MoveDirectRelPt */
PUSHW[ ]	/* 1 value pushed */
0
SRP0[ ]	/* SetRefPoint0 */
PUSHW[ ]	/* 2 values pushed */
4 5
MIRP[11100]	/* MoveIndirectRelPt */
PUSHW[ ]	/* 1 value pushed */
3
SRP0[ ]	/* SetRefPoint0 */
PUSHW[ ]	/* 2 values pushed */
5 5
MIRP[11100]	/* MoveIndirectRelPt */
SVTCA[0]	/* SetFreedomAndProjectionVectorToAxis */
PUSHW[ ]	/* 4 values pushed */
4 2 0 4
CALL[ ]	/* CallFunction */
PUSHW[ ]	/* 4 values pushed */
2 2 6 4
CALL[ ]	/* CallFunction */
IUP[0]	/* InterpolateUntPts */
IUP[1]	/* InterpolateUntPts */";
};
width = 1024;
}
);
note = .notdef;
},
{
glyphname = exclam;
lastChange = "2025-08-23 01:57:26 +0000";
layers = (
{
layerId = m01;
shapes = (
{
closed = 1;
nodes = (
(503,1269,qs),
(503,1401,o),
(377,1401,qs),
(253,1401,o),
(253,1269,qs),
(253,1257,o),
(254,1243,qs),
(328,365,l),
(426,365,l),
(502,1243,ls),
(503,1257,o)
);
},
{
closed = 1;
nodes = (
(429,236,o),
(377,236,qs),
(325,236,o),
(252,162,o),
(252,111,qs),
(252,58,o),
(325,-16,o),
(377,-16,qs),
(429,-16,o),
(504,59,o),
(504,111,qs),
(504,162,o)
);
}
);
userData = {
assembly = "PUSHW[ ]	/* 3 values pushed */
0 4 3
CALL[ ]	/* CallFunction */
NPUSHW[ ]	/* 3 values pushed */
245 11 1
DELTAP2[ ]	/* DeltaExceptionP2 */
NPUSHW[ ]	/* 3 values pushed */
5 11 1
DELTAP3[ ]	/* DeltaExceptionP3 */
NPUSHW[ ]	/* 3 values pushed */
186 11 1
DELTAP1[ ]	/* DeltaExceptionP1 */
NPUSHW[ ]	/* 3 values pushed */
186 11 1
DELTAP2[ ]	/* DeltaExceptionP2 */
NPUSHW[ ]	/* 3 values pushed */
60 11 1
DELTAP2[ ]	/* DeltaExceptionP2 */
NPUSHW[ ]	/* 3 values pushed */
74 11 1
DELTAP2[ ]	/* DeltaExceptionP2 */
NPUSHW[ ]	/* 3 values pushed */
40 11 1
DELTAP2[ ]	/* DeltaExceptionP2 */
NPUSHW[ ]	/* 3 values pushed */
3 11 1
DELTAP2[ ]	/* DeltaExceptionP2 */
NPUSHW[ ]	/* 3 values pushed */
147 11 1
DELTAP2[ ]	/* DeltaExceptionP2 */
NPUSHW[ ]	/* 3 values pushed */
165 17 1
DELTAP2[ ]	/* DeltaExceptionP2 */
NPUSHW[ ]	/* 3 values pushed */
37 17 1
DELTAP3[ ]	/* DeltaExceptionP3 */
NPUSHW[ ]	/* 3 values pushed */
26 17 1
DELTAP2[ ]	/* DeltaExceptionP2 */
NPUSHW[ ]	/* 5 values pushed */
138 17 154 17 2
DELTAP1[ ]	/* DeltaExceptionP1 */
NPUSHW[ ]	/* 3 values pushed */
202 17 1
DELTAP2[ ]	/* DeltaExceptionP2 */
NPUSHW[ ]	/* 5 values pushed */
55 17 71 17 2
DELTAP2[ ]	/* DeltaExceptionP2 */
NPUSHW[ ]	/* 3 values pushed */
165 17 1
DELTAP1[ ]	/* DeltaExceptionP1 */
NPUSHW[ ]	/* 5 values pushed */
117 17 133 17 2
DELTAP2[ ]	/* DeltaExceptionP2 */
NPUSHW[ ]	/* 3 values pushed */
35 17 1
DELTAP2[ ]	/* DeltaExceptionP2 */
SVTCA[0]	/* SetFreedomAndProjectionVectorToAxis */
PUSHW[ ]	/* 3 values pushed */
20 14 3
CALL[ ]	/* CallFunction */
PUSHW[ ]	/* 1 value pushed */
20
SRP0[ ]	/* SetRefPoint0 */
PUSHW[ ]	/* 1 value pushed */
1
MDRP[11100]	/* MoveDirectRelPt */
IUP[0]	/* InterpolateUntPts */
IUP[1]	/* InterpolateUntPts */
SVTCA[1]	/* SetFreedomAndProjectionVectorToAxis */
NPUSHW[ ]	/* 3 values pushed */
24 1 1
DELTAP2[ ]	/* DeltaExceptionP2 */
NPUSHW[ ]	/* 13 values pushed */
170 1 186 1 202 1 218 1 234 1 250 1 6
DELTAP1[ ]	/* DeltaExceptionP1 */
NPUSHW[ ]	/* 3 values pushed */
10 1 1
DELTAP2[ ]	/* DeltaExceptionP2 */
NPUSHW[ ]	/* 13 values pushed */
165 2 181 2 197 2 213 2 229 2 245 2 6
DELTAP1[ ]	/* DeltaExceptionP1 */
NPUSHW[ ]	/* 3 values pushed */
5 2 1
DELTAP2[ ]	/* DeltaExceptionP2 */
NPUSHW[ ]	/* 3 values pushed */
23 2 1
DELTAP2[ ]	/* DeltaExceptionP2 */
NPUSHW[ ]	/* 3 values pushed */
227 6 1
DELTAP1[ ]	/* DeltaExceptionP1 */
NPUSHW[ ]	/* 3 values pushed */
236 8 1
DELTAP1[ ]	/* DeltaExceptionP1 */";
};
width = 887;
},
{
layerId = m002;
shapes = (
{
closed = 1;
nodes = (
(503,1269,qs),
(503,1401,o),
(377,1401,qs),
(253,1401,o),
(253,1269,qs),
(253,1257,o),
(254,1243,qs),
(328,365,l),
(426,365,l),
(502,1243,ls),
(503,1257,o)
);
},
{
closed = 1;
nodes = (
(429,236,o),
(377,236,qs),
(325,236,o),
(252,162,o),
(252,111,qs),
(252,58,o),
(325,-16,o),
(377,-16,qs),
(429,-16,o),
(504,59,o),
(504,111,qs),
(504,162,o)
);
}
);
userData = {
assembly = "PUSHW[ ]	/* 3 values pushed */
0 4 3
CALL[ ]	/* CallFunction */
NPUSHW[ ]	/* 3 values pushed */
245 11 1
DELTAP2[ ]	/* DeltaExceptionP2 */
NPUSHW[ ]	/* 3 values pushed */
5 11 1
DELTAP3[ ]	/* DeltaExceptionP3 */
NPUSHW[ ]	/* 3 values pushed */
186 11 1
DELTAP1[ ]	/* DeltaExceptionP1 */
NPUSHW[ ]	/* 3 values pushed */
186 11 1
DELTAP2[ ]	/* DeltaExceptionP2 */
NPUSHW[ ]	/* 3 values pushed */
60 11 1
DELTAP2[ ]	/* DeltaExceptionP2 */
NPUSHW[ ]	/* 3 values pushed */
74 11 1
DELTAP2[ ]	/* DeltaExceptionP2 */
NPUSHW[ ]	/* 3 values pushed */
40 11 1
DELTAP2[ ]	/* DeltaExceptionP2 */
NPUSHW[ ]	/* 3 values pushed */
3 11 1
DELTAP2[ ]	/* DeltaExceptionP2 */
NPUSHW[ ]	/* 3 values pushed */
147 11 1
DELTAP2[ ]	/* DeltaExceptionP2 */
NPUSHW[ ]	/* 3 values pushed */
165 17 1
DELTAP2[ ]	/* DeltaExceptionP2 */
NPUSHW[ ]	/* 3 values pushed */
37 17 1
DELTAP3[ ]	/* DeltaExceptionP3 */
NPUSHW[ ]	/* 3 values pushed */
26 17 1
DELTAP2[ ]	/* DeltaExceptionP2 */
NPUSHW[ ]	/* 5 values pushed */
138 17 154 17 2
DELTAP1[ ]	/* DeltaExceptionP1 */
NPUSHW[ ]	/* 3 values pushed */
202 17 1
DELTAP2[ ]	/* DeltaExceptionP2 */
NPUSHW[ ]	/* 5 values pushed */
55 17 71 17 2
DELTAP2[ ]	/* DeltaExceptionP2 */
NPUSHW[ ]	/* 3 values pushed */
165 17 1
DELTAP1[ ]	/* DeltaExceptionP1 */
NPUSHW[ ]	/* 5 values pushed */
117 17 133 17 2
DELTAP2[ ]	/* DeltaExceptionP2 */
NPUSHW[ ]	/* 3 values pushed */
35 17 1
DELTAP2[ ]	/* DeltaExceptionP2 */
SVTCA[0]	/* SetFreedomAndProjectionVectorToAxis */
PUSHW[ ]	/* 3 values pushed */
20 14 3
CALL[ ]	/* CallFunction */
PUSHW[ ]	/* 1 value pushed */
20
SRP0[ ]	/* SetRefPoint0 */
PUSHW[ ]	/* 1 value pushed */
1
MDRP[11100]	/* MoveDirectRelPt */
IUP[0]	/* InterpolateUntPts */
IUP[1]	/* InterpolateUntPts */
SVTCA[1]	/* SetFreedomAndProjectionVectorToAxis */
NPUSHW[ ]	/* 3 values pushed */
24 1 1
DELTAP2[ ]	/* DeltaExceptionP2 */
NPUSHW[ ]	/* 13 values pushed */
170 1 186 1 202 1 218 1 234 1 250 1 6
DELTAP1[ ]	/* DeltaExceptionP1 */
NPUSHW[ ]	/* 3 values pushed */
10 1 1
DELTAP2[ ]	/* DeltaExceptionP2 */
NPUSHW[ ]	/* 13 values pushed */
165 2 181 2 197 2 213 2 229 2 245 2 6
DELTAP1[ ]	/* DeltaExceptionP1 */
NPUSHW[ ]	/* 3 values pushed */
5 2 1
DELTAP2[ ]	/* DeltaExceptionP2 */
NPUSHW[ ]	/* 3 values pushed */
23 2 1
DELTAP2[ ]	/* DeltaExceptionP2 */
NPUSHW[ ]	/* 3 values pushed */
227 6 1
DELTAP1[ ]	/* DeltaExceptionP1 */
NPUSHW[ ]	/* 3 values pushed */
236 8 1
DELTAP1[ ]	/* DeltaExceptionP1 */";
};
width = 887;
}
);
note = exclam;
unicode = 33;
},
{
glyphname = quotedbl;
lastChange = "2025-08-23 01:57:26 +0000";
layers = (
{
layerId = m01;
shapes = (
{
closed = 1;
nodes = (
(506,1462,qs),
(420,1462,o),
(420,1362,q),
(489,862,l),
(522,862,l),
(594,1362,l),
(594,1462,o)
);
},
{
closed = 1;
nodes = (
(176,1462,qs),
(88,1462,o),
(88,1362,q),
(160,862,l),
(193,862,l),
(262,1362,l),
(262,1462,o)
);
}
);
userData = {
assembly = "SVTCA[0]	/* SetFreedomAndProjectionVectorToAxis */
PUSHW[ ]	/* 1 value pushed */
1
MDAP[1]	/* MoveDirectAbsPt */
PUSHW[ ]	/* 1 value pushed */
8
MDAP[1]	/* MoveDirectAbsPt */
PUSHW[ ]	/* 1 value pushed */
5
MDAP[1]	/* MoveDirectAbsPt */
PUSHW[ ]	/* 1 value pushed */
12
MDAP[1]	/* MoveDirectAbsPt */
IUP[0]	/* InterpolateUntPts */
IUP[1]	/* InterpolateUntPts */";
};
width = 682;
},
{
layerId = m002;
shapes = (
{
closed = 1;
nodes = (
(506,1462,qs),
(420,1462,o),
(420,1362,q),
(489,862,l),
(522,862,l),
(594,1362,l),
(594,1462,o)
);
},
{
closed = 1;
nodes = (
(176,1462,qs),
(88,1462,o),
(88,1362,q),
(160,862,l),
(193,862,l),
(262,1362,l),
(262,1462,o)
);
}
);
userData = {
assembly = "SVTCA[0]	/* SetFreedomAndProjectionVectorToAxis */
PUSHW[ ]	/* 1 value pushed */
1
MDAP[1]	/* MoveDirectAbsPt */
PUSHW[ ]	/* 1 value pushed */
8
MDAP[1]	/* MoveDirectAbsPt */
PUSHW[ ]	/* 1 value pushed */
5
MDAP[1]	/* MoveDirectAbsPt */
PUSHW[ ]	/* 1 value pushed */
12
MDAP[1]	/* MoveDirectAbsPt */
IUP[0]	/* InterpolateUntPts */
IUP[1]	/* InterpolateUntPts */";
};
width = 682;
}
);
note = quotedbl;
unicode = 34;
},
{
glyphname = numbersign;
lastChange = "2025-08-23 01:57:26 +0000";
layers = (
{
layerId = m01;
shapes = (
{
closed = 1;
nodes = (
(1110,967,l),
(1266,1417,l),
(1159,1450,l),
(997,967,l),
(698,967,l),
(854,1417,l),
(750,1450,l),
(586,967,l),
(221,967,l),
(221,862,l),
(551,862,l),
(451,569,l),
(127,569,l),
(127,467,l),
(418,467,l),
(254,-12,l),
(356,-47,l),
(530,467,l),
(827,467,l),
(666,-14,l),
(768,-47,l),
(942,467,l),
(1307,467,l),
(1307,569,l),
(977,569,l),
(1075,862,l),
(1397,862,l),
(1397,967,l)
);
},
{
closed = 1;
nodes = (
(565,569,l),
(664,862,l),
(961,862,l),
(862,569,l)
);
}
);
userData = {
assembly = "SVTCA[0]	/* SetFreedomAndProjectionVectorToAxis */
PUSHW[ ]	/* 1 value pushed */
20
MDAP[1]	/* MoveDirectAbsPt */
PUSHW[ ]	/* 1 value pushed */
24
MDAP[1]	/* MoveDirectAbsPt */
PUSHW[ ]	/* 1 value pushed */
6
MDAP[1]	/* MoveDirectAbsPt */
PUSHW[ ]	/* 1 value pushed */
10
MDAP[1]	/* MoveDirectAbsPt */
PUSHW[ ]	/* 4 values pushed */
3 2 4 4
CALL[ ]	/* CallFunction */
PUSHW[ ]	/* 4 values pushed */
27 2 0 4
CALL[ ]	/* CallFunction */
PUSHW[ ]	/* 1 value pushed */
4
SRP0[ ]	/* SetRefPoint0 */
PUSHW[ ]	/* 1 value pushed */
8
MDRP[10000]	/* MoveDirectRelPt */
PUSHW[ ]	/* 1 value pushed */
4
SRP0[ ]	/* SetRefPoint0 */
PUSHW[ ]	/* 1 value pushed */
12
MDRP[10000]	/* MoveDirectRelPt */
PUSHW[ ]	/* 1 value pushed */
3
SRP0[ ]	/* SetRefPoint0 */
PUSHW[ ]	/* 1 value pushed */
14
MDRP[10000]	/* MoveDirectRelPt */
PUSHW[ ]	/* 1 value pushed */
0
SRP0[ ]	/* SetRefPoint0 */
PUSHW[ ]	/* 1 value pushed */
16
MDRP[10000]	/* MoveDirectRelPt */
PUSHW[ ]	/* 1 value pushed */
27
SRP0[ ]	/* SetRefPoint0 */
PUSHW[ ]	/* 1 value pushed */
18
MDRP[10000]	/* MoveDirectRelPt */
PUSHW[ ]	/* 1 value pushed */
27
SRP0[ ]	/* SetRefPoint0 */
PUSHW[ ]	/* 1 value pushed */
22
MDRP[10000]	/* MoveDirectRelPt */
PUSHW[ ]	/* 1 value pushed */
0
SRP0[ ]	/* SetRefPoint0 */
PUSHW[ ]	/* 1 value pushed */
28
MDRP[10000]	/* MoveDirectRelPt */
PUSHW[ ]	/* 1 value pushed */
3
SRP0[ ]	/* SetRefPoint0 */
PUSHW[ ]	/* 1 value pushed */
30
MDRP[10000]	/* MoveDirectRelPt */
IUP[0]	/* InterpolateUntPts */
IUP[1]	/* InterpolateUntPts */";
};
width = 1522;
},
{
layerId = m002;
shapes = (
{
closed = 1;
nodes = (
(1110,967,l),
(1266,1417,l),
(1159,1450,l),
(997,967,l),
(698,967,l),
(854,1417,l),
(750,1450,l),
(586,967,l),
(221,967,l),
(221,862,l),
(551,862,l),
(451,569,l),
(127,569,l),
(127,467,l),
(418,467,l),
(254,-12,l),
(356,-47,l),
(530,467,l),
(827,467,l),
(666,-14,l),
(768,-47,l),
(942,467,l),
(1307,467,l),
(1307,569,l),
(977,569,l),
(1075,862,l),
(1397,862,l),
(1397,967,l)
);
},
{
closed = 1;
nodes = (
(565,569,l),
(664,862,l),
(961,862,l),
(862,569,l)
);
}
);
userData = {
assembly = "SVTCA[0]	/* SetFreedomAndProjectionVectorToAxis */
PUSHW[ ]	/* 1 value pushed */
20
MDAP[1]	/* MoveDirectAbsPt */
PUSHW[ ]	/* 1 value pushed */
24
MDAP[1]	/* MoveDirectAbsPt */
PUSHW[ ]	/* 1 value pushed */
6
MDAP[1]	/* MoveDirectAbsPt */
PUSHW[ ]	/* 1 value pushed */
10
MDAP[1]	/* MoveDirectAbsPt */
PUSHW[ ]	/* 4 values pushed */
3 2 4 4
CALL[ ]	/* CallFunction */
PUSHW[ ]	/* 4 values pushed */
27 2 0 4
CALL[ ]	/* CallFunction */
PUSHW[ ]	/* 1 value pushed */
4
SRP0[ ]	/* SetRefPoint0 */
PUSHW[ ]	/* 1 value pushed */
8
MDRP[10000]	/* MoveDirectRelPt */
PUSHW[ ]	/* 1 value pushed */
4
SRP0[ ]	/* SetRefPoint0 */
PUSHW[ ]	/* 1 value pushed */
12
MDRP[10000]	/* MoveDirectRelPt */
PUSHW[ ]	/* 1 value pushed */
3
SRP0[ ]	/* SetRefPoint0 */
PUSHW[ ]	/* 1 value pushed */
14
MDRP[10000]	/* MoveDirectRelPt */
PUSHW[ ]	/* 1 value pushed */
0
SRP0[ ]	/* SetRefPoint0 */
PUSHW[ ]	/* 1 value pushed */
16
MDRP[10000]	/* MoveDirectRelPt */
PUSHW[ ]	/* 1 value pushed */
27
SRP0[ ]	/* SetRefPoint0 */
PUSHW[ ]	/* 1 value pushed */
18
MDRP[10000]	/* MoveDirectRelPt */
PUSHW[ ]	/* 1 value pushed */
27
SRP0[ ]	/* SetRefPoint0 */
PUSHW[ ]	/* 1 value pushed */
22
MDRP[10000]	/* MoveDirectRelPt */
PUSHW[ ]	/* 1 value pushed */
0
SRP0[ ]	/* SetRefPoint0 */
PUSHW[ ]	/* 1 value pushed */
28
MDRP[10000]	/* MoveDirectRelPt */
PUSHW[ ]	/* 1 value pushed */
3
SRP0[ ]	/* SetRefPoint0 */
PUSHW[ ]	/* 1 value pushed */
30
MDRP[10000]	/* MoveDirectRelPt */
IUP[0]	/* InterpolateUntPts */
IUP[1]	/* InterpolateUntPts */";
};
width = 1522;
}
);
note = numbersign;
unicode = 35;
},
{
glyphname = dollar;
lastChange = "2025-08-23 01:57:26 +0000";
layers = (
{
layerId = m01;
shapes = (
{
closed = 1;
nodes = (
(901,673,qs),
(825,728,o),
(631,786,q),
(631,1274,l),
(795,1274,o),
(842,1221,q),
(874,1004,l),
(979,1004,l),
(979,1327,l),
(795,1374,o),
(631,1374,q),
(631,1522,l),
(537,1522,l),
(537,1368,l),
(388,1345,o),
(285,1263,qs),
(154,1159,o),
(154,991,qs),
(154,706,o),
(535,618,q),
(535,100,l),
(321,100,o),
(262,172,q),
(225,401,l),
(121,401,l),
(121,53,l),
(211,27,o),
(342,13,qs),
(388,9,o),
(535,0,q),
(535,-211,l),
(629,-211,l),
(629,0,l),
(759,8,o),
(884,103,qs),
(1038,220,o),
(1038,389,qs),
(1038,574,o)
);
},
{
closed = 1;
nodes = (
(344,1032,qs),
(344,1226,o),
(537,1266,q),
(537,813,l),
(344,884,o)
);
},
{
closed = 1;
nodes = (
(629,109,q),
(629,594,l),
(850,524,o),
(850,350,qs),
(850,148,o)
);
}
);
userData = {
assembly = "PUSHW[ ]	/* 4 values pushed */
41 6 19 4
CALL[ ]	/* CallFunction */
PUSHW[ ]	/* 4 values pushed */
26 5 23 4
CALL[ ]	/* CallFunction */
PUSHW[ ]	/* 4 values pushed */
0 6 43 4
CALL[ ]	/* CallFunction */
PUSHW[ ]	/* 1 value pushed */
26
SRP0[ ]	/* SetRefPoint0 */
PUSHW[ ]	/* 1 value pushed */
4
MDRP[10000]	/* MoveDirectRelPt */
PUSHW[ ]	/* 1 value pushed */
4
MDAP[1]	/* MoveDirectAbsPt */
PUSHW[ ]	/* 1 value pushed */
23
SRP0[ ]	/* SetRefPoint0 */
PUSHW[ ]	/* 1 value pushed */
6
MDRP[10000]	/* MoveDirectRelPt */
PUSHW[ ]	/* 1 value pushed */
6
MDAP[1]	/* MoveDirectAbsPt */
PUSHW[ ]	/* 1 value pushed */
23
SRP0[ ]	/* SetRefPoint0 */
PUSHW[ ]	/* 1 value pushed */
16
MDRP[10000]	/* MoveDirectRelPt */
PUSHW[ ]	/* 1 value pushed */
16
MDAP[1]	/* MoveDirectAbsPt */
NPUSHW[ ]	/* 5 values pushed */
218 43 234 43 2
DELTAP1[ ]	/* DeltaExceptionP1 */
NPUSHW[ ]	/* 15 values pushed */
105 43 121 43 137 43 153 43 169 43 185 43 201 43 7
DELTAP1[ ]	/* DeltaExceptionP1 */
PUSHW[ ]	/* 1 value pushed */
43
SRP0[ ]	/* SetRefPoint0 */
PUSHW[ ]	/* 1 value pushed */
31
MDRP[10000]	/* MoveDirectRelPt */
PUSHW[ ]	/* 1 value pushed */
31
MDAP[1]	/* MoveDirectAbsPt */
PUSHW[ ]	/* 1 value pushed */
26
SRP0[ ]	/* SetRefPoint0 */
PUSHW[ ]	/* 1 value pushed */
33
MDRP[10000]	/* MoveDirectRelPt */
PUSHW[ ]	/* 1 value pushed */
23
SRP0[ ]	/* SetRefPoint0 */
PUSHW[ ]	/* 1 value pushed */
38
MDRP[10000]	/* MoveDirectRelPt */
NPUSHW[ ]	/* 15 values pushed */
102 41 118 41 134 41 150 41 166 41 182 41 198 41 7
DELTAP1[ ]	/* DeltaExceptionP1 */
NPUSHW[ ]	/* 5 values pushed */
213 41 229 41 2
DELTAP1[ ]	/* DeltaExceptionP1 */
PUSHW[ ]	/* 1 value pushed */
26
SRP0[ ]	/* SetRefPoint0 */
PUSHW[ ]	/* 1 value pushed */
45
MDRP[10000]	/* MoveDirectRelPt */
PUSHW[ ]	/* 1 value pushed */
45
MDAP[1]	/* MoveDirectAbsPt */
SVTCA[0]	/* SetFreedomAndProjectionVectorToAxis */
PUSHW[ ]	/* 1 value pushed */
24
MDAP[1]	/* MoveDirectAbsPt */
PUSHW[ ]	/* 1 value pushed */
5
MDAP[1]	/* MoveDirectAbsPt */
PUSHW[ ]	/* 4 values pushed */
16 2 7 4
CALL[ ]	/* CallFunction */
PUSHW[ ]	/* 1 value pushed */
7
SRP0[ ]	/* SetRefPoint0 */
PUSHW[ ]	/* 1 value pushed */
4
MDRP[10000]	/* MoveDirectRelPt */
PUSHW[ ]	/* 1 value pushed */
7
SRP0[ ]	/* SetRefPoint0 */
PUSHW[ ]	/* 1 value pushed */
9
MDRP[10000]	/* MoveDirectRelPt */
PUSHW[ ]	/* 1 value pushed */
9
MDAP[1]	/* MoveDirectAbsPt */
PUSHW[ ]	/* 3 values pushed */
38 5 24
SRP1[ ]	/* SetRefPoint1 */
SRP2[ ]	/* SetRefPoint2 */
IP[ ]	/* InterpolatePts */
PUSHW[ ]	/* 1 value pushed */
16
SRP0[ ]	/* SetRefPoint0 */
PUSHW[ ]	/* 1 value pushed */
46
MDRP[10000]	/* MoveDirectRelPt */
PUSHW[ ]	/* 1 value pushed */
46
MDAP[1]	/* MoveDirectAbsPt */
IUP[0]	/* InterpolateUntPts */
IUP[1]	/* InterpolateUntPts */";
};
width = 1153;
},
{
layerId = m002;
shapes = (
{
closed = 1;
nodes = (
(901,673,qs),
(825,728,o),
(631,786,q),
(631,1274,l),
(795,1274,o),
(842,1221,q),
(874,1004,l),
(979,1004,l),
(979,1327,l),
(795,1374,o),
(631,1374,q),
(631,1522,l),
(537,1522,l),
(537,1368,l),
(388,1345,o),
(285,1263,qs),
(154,1159,o),
(154,991,qs),
(154,706,o),
(535,618,q),
(535,100,l),
(321,100,o),
(262,172,q),
(225,401,l),
(121,401,l),
(121,53,l),
(211,27,o),
(342,13,qs),
(388,9,o),
(535,0,q),
(535,-211,l),
(629,-211,l),
(629,0,l),
(759,8,o),
(884,103,qs),
(1038,220,o),
(1038,389,qs),
(1038,574,o)
);
},
{
closed = 1;
nodes = (
(344,1032,qs),
(344,1226,o),
(537,1266,q),
(537,813,l),
(344,884,o)
);
},
{
closed = 1;
nodes = (
(629,109,q),
(629,594,l),
(850,524,o),
(850,350,qs),
(850,148,o)
);
}
);
userData = {
assembly = "PUSHW[ ]	/* 4 values pushed */
41 6 19 4
CALL[ ]	/* CallFunction */
PUSHW[ ]	/* 4 values pushed */
26 5 23 4
CALL[ ]	/* CallFunction */
PUSHW[ ]	/* 4 values pushed */
0 6 43 4
CALL[ ]	/* CallFunction */
PUSHW[ ]	/* 1 value pushed */
26
SRP0[ ]	/* SetRefPoint0 */
PUSHW[ ]	/* 1 value pushed */
4
MDRP[10000]	/* MoveDirectRelPt */
PUSHW[ ]	/* 1 value pushed */
4
MDAP[1]	/* MoveDirectAbsPt */
PUSHW[ ]	/* 1 value pushed */
23
SRP0[ ]	/* SetRefPoint0 */
PUSHW[ ]	/* 1 value pushed */
6
MDRP[10000]	/* MoveDirectRelPt */
PUSHW[ ]	/* 1 value pushed */
6
MDAP[1]	/* MoveDirectAbsPt */
PUSHW[ ]	/* 1 value pushed */
23
SRP0[ ]	/* SetRefPoint0 */
PUSHW[ ]	/* 1 value pushed */
16
MDRP[10000]	/* MoveDirectRelPt */
PUSHW[ ]	/* 1 value pushed */
16
MDAP[1]	/* MoveDirectAbsPt */
NPUSHW[ ]	/* 5 values pushed */
218 43 234 43 2
DELTAP1[ ]	/* DeltaExceptionP1 */
NPUSHW[ ]	/* 15 values pushed */
105 43 121 43 137 43 153 43 169 43 185 43 201 43 7
DELTAP1[ ]	/* DeltaExceptionP1 */
PUSHW[ ]	/* 1 value pushed */
43
SRP0[ ]	/* SetRefPoint0 */
PUSHW[ ]	/* 1 value pushed */
31
MDRP[10000]	/* MoveDirectRelPt */
PUSHW[ ]	/* 1 value pushed */
31
MDAP[1]	/* MoveDirectAbsPt */
PUSHW[ ]	/* 1 value pushed */
26
SRP0[ ]	/* SetRefPoint0 */
PUSHW[ ]	/* 1 value pushed */
33
MDRP[10000]	/* MoveDirectRelPt */
PUSHW[ ]	/* 1 value pushed */
23
SRP0[ ]	/* SetRefPoint0 */
PUSHW[ ]	/* 1 value pushed */
38
MDRP[10000]	/* MoveDirectRelPt */
NPUSHW[ ]	/* 15 values pushed */
102 41 118 41 134 41 150 41 166 41 182 41 198 41 7
DELTAP1[ ]	/* DeltaExceptionP1 */
NPUSHW[ ]	/* 5 values pushed */
213 41 229 41 2
DELTAP1[ ]	/* DeltaExceptionP1 */
PUSHW[ ]	/* 1 value pushed */
26
SRP0[ ]	/* SetRefPoint0 */
PUSHW[ ]	/* 1 value pushed */
45
MDRP[10000]	/* MoveDirectRelPt */
PUSHW[ ]	/* 1 value pushed */
45
MDAP[1]	/* MoveDirectAbsPt */
SVTCA[0]	/* SetFreedomAndProjectionVectorToAxis */
PUSHW[ ]	/* 1 value pushed */
24
MDAP[1]	/* MoveDirectAbsPt */
PUSHW[ ]	/* 1 value pushed */
5
MDAP[1]	/* MoveDirectAbsPt */
PUSHW[ ]	/* 4 values pushed */
16 2 7 4
CALL[ ]	/* CallFunction */
PUSHW[ ]	/* 1 value pushed */
7
SRP0[ ]	/* SetRefPoint0 */
PUSHW[ ]	/* 1 value pushed */
4
MDRP[10000]	/* MoveDirectRelPt */
PUSHW[ ]	/* 1 value pushed */
7
SRP0[ ]	/* SetRefPoint0 */
PUSHW[ ]	/* 1 value pushed */
9
MDRP[10000]	/* MoveDirectRelPt */
PUSHW[ ]	/* 1 value pushed */
9
MDAP[1]	/* MoveDirectAbsPt */
PUSHW[ ]	/* 3 values pushed */
38 5 24
SRP1[ ]	/* SetRefPoint1 */
SRP2[ ]	/* SetRefPoint2 */
IP[ ]	/* InterpolatePts */
PUSHW[ ]	/* 1 value pushed */
16
SRP0[ ]	/* SetRefPoint0 */
PUSHW[ ]	/* 1 value pushed */
46
MDRP[10000]	/* MoveDirectRelPt */
PUSHW[ ]	/* 1 value pushed */
46
MDAP[1]	/* MoveDirectAbsPt */
IUP[0]	/* InterpolateUntPts */
IUP[1]	/* InterpolateUntPts */";
};
width = 1153;
}
);
note = dollar;
unicode = 36;
},
{
glyphname = percent;
lastChange = "2025-08-23 01:57:26 +0000";
layers = (
{
layerId = m01;
shapes = (
{
closed = 1;
nodes = (
(1621,712,qs),
(1537,836,o),
(1384,836,qs),
(1231,836,o),
(1147,712,qs),
(1069,597,o),
(1069,406,qs),
(1069,215,o),
(1147,99,qs),
(1232,-25,o),
(1384,-25,qs),
(1537,-25,o),
(1621,99,qs),
(1700,215,o),
(1700,406,qs),
(1700,597,o)
);
},
{
closed = 1;
nodes = (
(383,0,l),
(512,0,l),
(1380,1374,l),
(1253,1374,l)
);
},
{
closed = 1;
nodes = (
(617,1277,qs),
(533,1401,o),
(381,1401,qs),
(228,1401,o),
(144,1277,qs),
(66,1162,o),
(66,971,qs),
(66,780,o),
(144,665,qs),
(228,541,o),
(381,541,qs),
(533,541,o),
(617,665,qs),
(694,780,o),
(694,971,qs),
(694,1162,o)
);
},
{
closed = 1;
nodes = (
(1384,53,qs),
(1225,53,o),
(1225,406,qs),
(1225,758,o),
(1384,758,qs),
(1542,758,o),
(1542,406,qs),
(1542,53,o)
);
},
{
closed = 1;
nodes = (
(381,618,qs),
(219,618,o),
(219,971,qs),
(219,1323,o),
(381,1323,qs),
(537,1323,o),
(537,971,qs),
(537,618,o)
);
}
);
userData = {
assembly = "PUSHW[ ]	/* 4 values pushed */
48 6 28 4
CALL[ ]	/* CallFunction */
PUSHW[ ]	/* 4 values pushed */
20 6 44 4
CALL[ ]	/* CallFunction */
PUSHW[ ]	/* 4 values pushed */
40 6 8 4
CALL[ ]	/* CallFunction */
PUSHW[ ]	/* 4 values pushed */
0 6 36 4
CALL[ ]	/* CallFunction */
NPUSHW[ ]	/* 5 values pushed */
218 8 234 8 2
DELTAP1[ ]	/* DeltaExceptionP1 */
NPUSHW[ ]	/* 15 values pushed */
105 8 121 8 137 8 153 8 169 8 185 8 201 8 7
DELTAP1[ ]	/* DeltaExceptionP1 */
PUSHW[ ]	/* 3 values pushed */
16 28 0
SRP1[ ]	/* SetRefPoint1 */
SRP2[ ]	/* SetRefPoint2 */
IP[ ]	/* InterpolatePts */
PUSHW[ ]	/* 3 values pushed */
18 28 0
SRP1[ ]	/* SetRefPoint1 */
SRP2[ ]	/* SetRefPoint2 */
IP[ ]	/* InterpolatePts */
NPUSHW[ ]	/* 15 values pushed */
102 20 118 20 134 20 150 20 166 20 182 20 198 20 7
DELTAP1[ ]	/* DeltaExceptionP1 */
NPUSHW[ ]	/* 5 values pushed */
213 20 229 20 2
DELTAP1[ ]	/* DeltaExceptionP1 */
NPUSHW[ ]	/* 5 values pushed */
218 36 234 36 2
DELTAP1[ ]	/* DeltaExceptionP1 */
NPUSHW[ ]	/* 15 values pushed */
105 36 121 36 137 36 153 36 169 36 185 36 201 36 7
DELTAP1[ ]	/* DeltaExceptionP1 */
NPUSHW[ ]	/* 15 values pushed */
102 48 118 48 134 48 150 48 166 48 182 48 198 48 7
DELTAP1[ ]	/* DeltaExceptionP1 */
NPUSHW[ ]	/* 5 values pushed */
213 48 229 48 2
DELTAP1[ ]	/* DeltaExceptionP1 */
SVTCA[0]	/* SetFreedomAndProjectionVectorToAxis */
PUSHW[ ]	/* 4 values pushed */
42 2 4 4
CALL[ ]	/* CallFunction */
PUSHW[ ]	/* 4 values pushed */
32 2 46 4
CALL[ ]	/* CallFunction */
PUSHW[ ]	/* 4 values pushed */
50 1 24 4
CALL[ ]	/* CallFunction */
PUSHW[ ]	/* 4 values pushed */
12 2 38 4
CALL[ ]	/* CallFunction */
PUSHW[ ]	/* 3 values pushed */
16 46 32
SRP1[ ]	/* SetRefPoint1 */
SRP2[ ]	/* SetRefPoint2 */
IP[ ]	/* InterpolatePts */
PUSHW[ ]	/* 3 values pushed */
18 4 42
SRP1[ ]	/* SetRefPoint1 */
SRP2[ ]	/* SetRefPoint2 */
IP[ ]	/* InterpolatePts */
IUP[0]	/* InterpolateUntPts */
IUP[1]	/* InterpolateUntPts */";
};
width = 1763;
},
{
layerId = m002;
shapes = (
{
closed = 1;
nodes = (
(1621,712,qs),
(1537,836,o),
(1384,836,qs),
(1231,836,o),
(1147,712,qs),
(1069,597,o),
(1069,406,qs),
(1069,215,o),
(1147,99,qs),
(1232,-25,o),
(1384,-25,qs),
(1537,-25,o),
(1621,99,qs),
(1700,215,o),
(1700,406,qs),
(1700,597,o)
);
},
{
closed = 1;
nodes = (
(383,0,l),
(512,0,l),
(1380,1374,l),
(1253,1374,l)
);
},
{
closed = 1;
nodes = (
(617,1277,qs),
(533,1401,o),
(381,1401,qs),
(228,1401,o),
(144,1277,qs),
(66,1162,o),
(66,971,qs),
(66,780,o),
(144,665,qs),
(228,541,o),
(381,541,qs),
(533,541,o),
(617,665,qs),
(694,780,o),
(694,971,qs),
(694,1162,o)
);
},
{
closed = 1;
nodes = (
(1384,53,qs),
(1225,53,o),
(1225,406,qs),
(1225,758,o),
(1384,758,qs),
(1542,758,o),
(1542,406,qs),
(1542,53,o)
);
},
{
closed = 1;
nodes = (
(381,618,qs),
(219,618,o),
(219,971,qs),
(219,1323,o),
(381,1323,qs),
(537,1323,o),
(537,971,qs),
(537,618,o)
);
}
);
userData = {
assembly = "PUSHW[ ]	/* 4 values pushed */
48 6 28 4
CALL[ ]	/* CallFunction */
PUSHW[ ]	/* 4 values pushed */
20 6 44 4
CALL[ ]	/* CallFunction */
PUSHW[ ]	/* 4 values pushed */
40 6 8 4
CALL[ ]	/* CallFunction */
PUSHW[ ]	/* 4 values pushed */
0 6 36 4
CALL[ ]	/* CallFunction */
NPUSHW[ ]	/* 5 values pushed */
218 8 234 8 2
DELTAP1[ ]	/* DeltaExceptionP1 */
NPUSHW[ ]	/* 15 values pushed */
105 8 121 8 137 8 153 8 169 8 185 8 201 8 7
DELTAP1[ ]	/* DeltaExceptionP1 */
PUSHW[ ]	/* 3 values pushed */
16 28 0
SRP1[ ]	/* SetRefPoint1 */
SRP2[ ]	/* SetRefPoint2 */
IP[ ]	/* InterpolatePts */
PUSHW[ ]	/* 3 values pushed */
18 28 0
SRP1[ ]	/* SetRefPoint1 */
SRP2[ ]	/* SetRefPoint2 */
IP[ ]	/* InterpolatePts */
NPUSHW[ ]	/* 15 values pushed */
102 20 118 20 134 20 150 20 166 20 182 20 198 20 7
DELTAP1[ ]	/* DeltaExceptionP1 */
NPUSHW[ ]	/* 5 values pushed */
213 20 229 20 2
DELTAP1[ ]	/* DeltaExceptionP1 */
NPUSHW[ ]	/* 5 values pushed */
218 36 234 36 2
DELTAP1[ ]	/* DeltaExceptionP1 */
NPUSHW[ ]	/* 15 values pushed */
105 36 121 36 137 36 153 36 169 36 185 36 201 36 7
DELTAP1[ ]	/* DeltaExceptionP1 */
NPUSHW[ ]	/* 15 values pushed */
102 48 118 48 134 48 150 48 166 48 182 48 198 48 7
DELTAP1[ ]	/* DeltaExceptionP1 */
NPUSHW[ ]	/* 5 values pushed */
213 48 229 48 2
DELTAP1[ ]	/* DeltaExceptionP1 */
SVTCA[0]	/* SetFreedomAndProjectionVectorToAxis */
PUSHW[ ]	/* 4 values pushed */
42 2 4 4
CALL[ ]	/* CallFunction */
PUSHW[ ]	/* 4 values pushed */
32 2 46 4
CALL[ ]	/* CallFunction */
PUSHW[ ]	/* 4 values pushed */
50 1 24 4
CALL[ ]	/* CallFunction */
PUSHW[ ]	/* 4 values pushed */
12 2 38 4
CALL[ ]	/* CallFunction */
PUSHW[ ]	/* 3 values pushed */
16 46 32
SRP1[ ]	/* SetRefPoint1 */
SRP2[ ]	/* SetRefPoint2 */
IP[ ]	/* InterpolatePts */
PUSHW[ ]	/* 3 values pushed */
18 4 42
SRP1[ ]	/* SetRefPoint1 */
SRP2[ ]	/* SetRefPoint2 */
IP[ ]	/* InterpolatePts */
IUP[0]	/* InterpolateUntPts */
IUP[1]	/* InterpolateUntPts */";
};
width = 1763;
}
);
note = percent;
unicode = 37;
},
{
glyphname = ampersand;
lastChange = "2025-08-23 01:57:26 +0000";
layers = (
{
layerId = m01;
shapes = (
{
closed = 1;
nodes = (
(1237,98,l),
(1071,289,l),
(1197,463,o),
(1245,635,q),
(1393,657,l),
(1393,743,l),
(973,743,l),
(973,657,l),
(1083,641,ls),
(1096,639,o),
(1119,612,o),
(1118,602,qs),
(1103,489,o),
(1004,362,q),
(659,733,l),
(799,796,o),
(866,863,qs),
(961,957,o),
(961,1092,qs),
(961,1225,o),
(755,1401,o),
(600,1401,qs),
(433,1401,o),
(211,1207,o),
(211,1055,qs),
(211,913,o),
(383,741,q),
(109,627,o),
(109,381,qs),
(109,208,o),
(358,-25,o),
(535,-25,qs),
(663,-25,o),
(775,32,qs),
(840,65,o),
(950,152,q),
(1042,49,l),
(1042,0,l),
(1419,0,l),
(1419,88,l)
);
},
{
closed = 1;
nodes = (
(586,803,q),
(488,898,o),
(463,931,qs),
(395,1019,o),
(395,1108,qs),
(395,1189,o),
(498,1300,o),
(580,1300,qs),
(673,1300,o),
(725,1233,qs),
(772,1173,o),
(772,1079,qs),
(772,896,o)
);
},
{
closed = 1;
nodes = (
(612,109,qs),
(487,109,o),
(315,291,o),
(315,428,qs),
(315,578,o),
(463,682,q),
(885,223,l),
(751,109,o)
);
}
);
userData = {
assembly = "PUSHW[ ]	/* 4 values pushed */
56 6 10 4
CALL[ ]	/* CallFunction */
PUSHW[ ]	/* 4 values pushed */
20 6 40 4
CALL[ ]	/* CallFunction */
NPUSHW[ ]	/* 15 values pushed */
102 56 118 56 134 56 150 56 166 56 182 56 198 56 7
DELTAP1[ ]	/* DeltaExceptionP1 */
NPUSHW[ ]	/* 5 values pushed */
213 56 229 56 2
DELTAP1[ ]	/* DeltaExceptionP1 */
PUSHW[ ]	/* 3 values pushed */
14 10 56
SRP1[ ]	/* SetRefPoint1 */
SRP2[ ]	/* SetRefPoint2 */
IP[ ]	/* InterpolatePts */
PUSHW[ ]	/* 1 value pushed */
14
MDAP[1]	/* MoveDirectAbsPt */
PUSHW[ ]	/* 2 values pushed */
47 6
MIRP[11100]	/* MoveIndirectRelPt */
PUSHW[ ]	/* 3 values pushed */
12 14 47
SRP1[ ]	/* SetRefPoint1 */
SRP2[ ]	/* SetRefPoint2 */
IP[ ]	/* InterpolatePts */
PUSHW[ ]	/* 1 value pushed */
20
SRP0[ ]	/* SetRefPoint0 */
PUSHW[ ]	/* 1 value pushed */
31
MDRP[10000]	/* MoveDirectRelPt */
PUSHW[ ]	/* 1 value pushed */
31
MDAP[1]	/* MoveDirectAbsPt */
PUSHW[ ]	/* 3 values pushed */
24 10 31
SRP1[ ]	/* SetRefPoint1 */
SRP2[ ]	/* SetRefPoint2 */
IP[ ]	/* InterpolatePts */
NPUSHW[ ]	/* 5 values pushed */
218 40 234 40 2
DELTAP1[ ]	/* DeltaExceptionP1 */
NPUSHW[ ]	/* 15 values pushed */
105 40 121 40 137 40 153 40 169 40 185 40 201 40 7
DELTAP1[ ]	/* DeltaExceptionP1 */
SVTCA[0]	/* SetFreedomAndProjectionVectorToAxis */
PUSHW[ ]	/* 4 values pushed */
59 2 7 4
CALL[ ]	/* CallFunction */
PUSHW[ ]	/* 4 values pushed */
17 2 44 4
CALL[ ]	/* CallFunction */
PUSHW[ ]	/* 1 value pushed */
59
SRP0[ ]	/* SetRefPoint0 */
PUSHW[ ]	/* 1 value pushed */
38
MDRP[10000]	/* MoveDirectRelPt */
PUSHW[ ]	/* 1 value pushed */
38
MDAP[1]	/* MoveDirectAbsPt */
IUP[0]	/* InterpolateUntPts */
IUP[1]	/* InterpolateUntPts */";
};
width = 1460;
},
{
layerId = m002;
shapes = (
{
closed = 1;
nodes = (
(1237,98,l),
(1071,289,l),
(1197,463,o),
(1245,635,q),
(1393,657,l),
(1393,743,l),
(973,743,l),
(973,657,l),
(1083,641,ls),
(1096,639,o),
(1119,612,o),
(1118,602,qs),
(1103,489,o),
(1004,362,q),
(659,733,l),
(799,796,o),
(866,863,qs),
(961,957,o),
(961,1092,qs),
(961,1225,o),
(755,1401,o),
(600,1401,qs),
(433,1401,o),
(211,1207,o),
(211,1055,qs),
(211,913,o),
(383,741,q),
(109,627,o),
(109,381,qs),
(109,208,o),
(358,-25,o),
(535,-25,qs),
(663,-25,o),
(775,32,qs),
(840,65,o),
(950,152,q),
(1042,49,l),
(1042,0,l),
(1419,0,l),
(1419,88,l)
);
},
{
closed = 1;
nodes = (
(586,803,q),
(488,898,o),
(463,931,qs),
(395,1019,o),
(395,1108,qs),
(395,1189,o),
(498,1300,o),
(580,1300,qs),
(673,1300,o),
(725,1233,qs),
(772,1173,o),
(772,1079,qs),
(772,896,o)
);
},
{
closed = 1;
nodes = (
(612,109,qs),
(487,109,o),
(315,291,o),
(315,428,qs),
(315,578,o),
(463,682,q),
(885,223,l),
(751,109,o)
);
}
);
userData = {
assembly = "PUSHW[ ]	/* 4 values pushed */
56 6 10 4
CALL[ ]	/* CallFunction */
PUSHW[ ]	/* 4 values pushed */
20 6 40 4
CALL[ ]	/* CallFunction */
NPUSHW[ ]	/* 15 values pushed */
102 56 118 56 134 56 150 56 166 56 182 56 198 56 7
DELTAP1[ ]	/* DeltaExceptionP1 */
NPUSHW[ ]	/* 5 values pushed */
213 56 229 56 2
DELTAP1[ ]	/* DeltaExceptionP1 */
PUSHW[ ]	/* 3 values pushed */
14 10 56
SRP1[ ]	/* SetRefPoint1 */
SRP2[ ]	/* SetRefPoint2 */
IP[ ]	/* InterpolatePts */
PUSHW[ ]	/* 1 value pushed */
14
MDAP[1]	/* MoveDirectAbsPt */
PUSHW[ ]	/* 2 values pushed */
47 6
MIRP[11100]	/* MoveIndirectRelPt */
PUSHW[ ]	/* 3 values pushed */
12 14 47
SRP1[ ]	/* SetRefPoint1 */
SRP2[ ]	/* SetRefPoint2 */
IP[ ]	/* InterpolatePts */
PUSHW[ ]	/* 1 value pushed */
20
SRP0[ ]	/* SetRefPoint0 */
PUSHW[ ]	/* 1 value pushed */
31
MDRP[10000]	/* MoveDirectRelPt */
PUSHW[ ]	/* 1 value pushed */
31
MDAP[1]	/* MoveDirectAbsPt */
PUSHW[ ]	/* 3 values pushed */
24 10 31
SRP1[ ]	/* SetRefPoint1 */
SRP2[ ]	/* SetRefPoint2 */
IP[ ]	/* InterpolatePts */
NPUSHW[ ]	/* 5 values pushed */
218 40 234 40 2
DELTAP1[ ]	/* DeltaExceptionP1 */
NPUSHW[ ]	/* 15 values pushed */
105 40 121 40 137 40 153 40 169 40 185 40 201 40 7
DELTAP1[ ]	/* DeltaExceptionP1 */
SVTCA[0]	/* SetFreedomAndProjectionVectorToAxis */
PUSHW[ ]	/* 4 values pushed */
59 2 7 4
CALL[ ]	/* CallFunction */
PUSHW[ ]	/* 4 values pushed */
17 2 44 4
CALL[ ]	/* CallFunction */
PUSHW[ ]	/* 1 value pushed */
59
SRP0[ ]	/* SetRefPoint0 */
PUSHW[ ]	/* 1 value pushed */
38
MDRP[10000]	/* MoveDirectRelPt */
PUSHW[ ]	/* 1 value pushed */
38
MDAP[1]	/* MoveDirectAbsPt */
IUP[0]	/* InterpolateUntPts */
IUP[1]	/* InterpolateUntPts */";
};
width = 1460;
}
);
note = ampersand;
unicode = 38;
},
{
glyphname = quotesingle;
lastChange = "2025-08-23 01:57:26 +0000";
layers = (
{
layerId = m01;
shapes = (
{
closed = 1;
nodes = (
(174,1462,qs),
(88,1462,o),
(88,1362,q),
(160,862,l),
(193,862,l),
(262,1362,l),
(262,1462,o)
);
}
);
userData = {
assembly = "SVTCA[0]	/* SetFreedomAndProjectionVectorToAxis */
PUSHW[ ]	/* 1 value pushed */
1
MDAP[1]	/* MoveDirectAbsPt */
PUSHW[ ]	/* 1 value pushed */
5
MDAP[1]	/* MoveDirectAbsPt */
IUP[0]	/* InterpolateUntPts */
IUP[1]	/* InterpolateUntPts */";
};
width = 350;
},
{
layerId = m002;
shapes = (
{
closed = 1;
nodes = (
(174,1462,qs),
(88,1462,o),
(88,1362,q),
(160,862,l),
(193,862,l),
(262,1362,l),
(262,1462,o)
);
}
);
userData = {
assembly = "SVTCA[0]	/* SetFreedomAndProjectionVectorToAxis */
PUSHW[ ]	/* 1 value pushed */
1
MDAP[1]	/* MoveDirectAbsPt */
PUSHW[ ]	/* 1 value pushed */
5
MDAP[1]	/* MoveDirectAbsPt */
IUP[0]	/* InterpolateUntPts */
IUP[1]	/* InterpolateUntPts */";
};
width = 350;
}
);
note = quotesingle;
unicode = 39;
},
{
glyphname = parenleft;
lastChange = "2025-08-23 01:57:26 +0000";
layers = (
{
layerId = m01;
shapes = (
{
closed = 1;
nodes = (
(745,-212,o),
(624,54,qs),
(512,297,o),
(512,754,qs),
(512,1210,o),
(624,1454,qs),
(745,1719,o),
(1012,1763,q),
(1012,1880,l),
(625,1838,o),
(434,1509,qs),
(268,1222,o),
(268,754,qs),
(268,286,o),
(434,-1,qs),
(624,-329,o),
(1012,-373,q),
(1012,-256,l)
);
}
);
userData = {
assembly = "PUSHW[ ]	/* 4 values pushed */
13 6 4 4
CALL[ ]	/* CallFunction */
NPUSHW[ ]	/* 15 values pushed */
102 13 118 13 134 13 150 13 166 13 182 13 198 13 7
DELTAP1[ ]	/* DeltaExceptionP1 */
NPUSHW[ ]	/* 5 values pushed */
213 13 229 13 2
DELTAP1[ ]	/* DeltaExceptionP1 */
SVTCA[0]	/* SetFreedomAndProjectionVectorToAxis */
PUSHW[ ]	/* 1 value pushed */
8
MDAP[1]	/* MoveDirectAbsPt */
PUSHW[ ]	/* 1 value pushed */
0
MDAP[1]	/* MoveDirectAbsPt */
IUP[0]	/* InterpolateUntPts */
IUP[1]	/* InterpolateUntPts */";
};
width = 1100;
},
{
layerId = m002;
shapes = (
{
closed = 1;
nodes = (
(745,-212,o),
(624,54,qs),
(512,297,o),
(512,754,qs),
(512,1210,o),
(624,1454,qs),
(745,1719,o),
(1012,1763,q),
(1012,1880,l),
(625,1838,o),
(434,1509,qs),
(268,1222,o),
(268,754,qs),
(268,286,o),
(434,-1,qs),
(624,-329,o),
(1012,-373,q),
(1012,-256,l)
);
}
);
userData = {
assembly = "PUSHW[ ]	/* 4 values pushed */
13 6 4 4
CALL[ ]	/* CallFunction */
NPUSHW[ ]	/* 15 values pushed */
102 13 118 13 134 13 150 13 166 13 182 13 198 13 7
DELTAP1[ ]	/* DeltaExceptionP1 */
NPUSHW[ ]	/* 5 values pushed */
213 13 229 13 2
DELTAP1[ ]	/* DeltaExceptionP1 */
SVTCA[0]	/* SetFreedomAndProjectionVectorToAxis */
PUSHW[ ]	/* 1 value pushed */
8
MDAP[1]	/* MoveDirectAbsPt */
PUSHW[ ]	/* 1 value pushed */
0
MDAP[1]	/* MoveDirectAbsPt */
IUP[0]	/* InterpolateUntPts */
IUP[1]	/* InterpolateUntPts */";
};
width = 1100;
}
);
note = parenleft;
unicode = 40;
},
{
glyphname = parenright;
lastChange = "2025-08-23 01:57:26 +0000";
layers = (
{
layerId = m01;
shapes = (
{
closed = 1;
nodes = (
(667,1509,qs),
(475,1838,o),
(88,1880,q),
(88,1763,l),
(355,1719,o),
(476,1454,qs),
(588,1210,o),
(588,754,qs),
(588,297,o),
(476,54,qs),
(355,-212,o),
(88,-256,q),
(88,-373,l),
(476,-329,o),
(667,-1,qs),
(834,286,o),
(834,754,qs),
(834,1221,o)
);
}
);
userData = {
assembly = "PUSHW[ ]	/* 4 values pushed */
0 6 9 4
CALL[ ]	/* CallFunction */
NPUSHW[ ]	/* 5 values pushed */
218 9 234 9 2
DELTAP1[ ]	/* DeltaExceptionP1 */
NPUSHW[ ]	/* 15 values pushed */
105 9 121 9 137 9 153 9 169 9 185 9 201 9 7
DELTAP1[ ]	/* DeltaExceptionP1 */
SVTCA[0]	/* SetFreedomAndProjectionVectorToAxis */
PUSHW[ ]	/* 1 value pushed */
14
MDAP[1]	/* MoveDirectAbsPt */
PUSHW[ ]	/* 1 value pushed */
4
MDAP[1]	/* MoveDirectAbsPt */
IUP[0]	/* InterpolateUntPts */
IUP[1]	/* InterpolateUntPts */";
};
width = 1100;
},
{
layerId = m002;
shapes = (
{
closed = 1;
nodes = (
(667,1509,qs),
(475,1838,o),
(88,1880,q),
(88,1763,l),
(355,1719,o),
(476,1454,qs),
(588,1210,o),
(588,754,qs),
(588,297,o),
(476,54,qs),
(355,-212,o),
(88,-256,q),
(88,-373,l),
(476,-329,o),
(667,-1,qs),
(834,286,o),
(834,754,qs),
(834,1221,o)
);
}
);
userData = {
assembly = "PUSHW[ ]	/* 4 values pushed */
0 6 9 4
CALL[ ]	/* CallFunction */
NPUSHW[ ]	/* 5 values pushed */
218 9 234 9 2
DELTAP1[ ]	/* DeltaExceptionP1 */
NPUSHW[ ]	/* 15 values pushed */
105 9 121 9 137 9 153 9 169 9 185 9 201 9 7
DELTAP1[ ]	/* DeltaExceptionP1 */
SVTCA[0]	/* SetFreedomAndProjectionVectorToAxis */
PUSHW[ ]	/* 1 value pushed */
14
MDAP[1]	/* MoveDirectAbsPt */
PUSHW[ ]	/* 1 value pushed */
4
MDAP[1]	/* MoveDirectAbsPt */
IUP[0]	/* InterpolateUntPts */
IUP[1]	/* InterpolateUntPts */";
};
width = 1100;
}
);
note = parenright;
unicode = 41;
},
{
glyphname = asterisk;
lastChange = "2025-08-23 01:57:26 +0000";
layers = (
{
layerId = m01;
shapes = (
{
closed = 1;
nodes = (
(547,1202,l),
(557,1171,l),
(844,1188,l),
(944,1315,l),
(786,1362,l)
);
},
{
closed = 1;
nodes = (
(414,1503,l),
(489,1227,l),
(522,1227,l),
(598,1503,l),
(506,1640,l)
);
},
{
closed = 1;
nodes = (
(545,1141,l),
(520,1120,l),
(623,854,l),
(776,797,l),
(770,961,l)
);
},
{
closed = 1;
nodes = (
(66,1315,l),
(168,1188,l),
(457,1171,l),
(467,1202,l),
(223,1362,l)
);
},
{
closed = 1;
nodes = (
(242,961,l),
(236,797,l),
(389,854,l),
(492,1120,l),
(467,1141,l)
);
}
);
userData = {
assembly = "SVTCA[0]	/* SetFreedomAndProjectionVectorToAxis */
PUSHW[ ]	/* 1 value pushed */
9
MDAP[1]	/* MoveDirectAbsPt */
PUSHW[ ]	/* 1 value pushed */
10
MDAP[1]	/* MoveDirectAbsPt */
PUSHW[ ]	/* 1 value pushed */
22
MDAP[1]	/* MoveDirectAbsPt */
PUSHW[ ]	/* 3 values pushed */
0 10 9
SRP1[ ]	/* SetRefPoint1 */
SRP2[ ]	/* SetRefPoint2 */
IP[ ]	/* InterpolatePts */
PUSHW[ ]	/* 3 values pushed */
18 10 9
SRP1[ ]	/* SetRefPoint1 */
SRP2[ ]	/* SetRefPoint2 */
IP[ ]	/* InterpolatePts */
IUP[0]	/* InterpolateUntPts */
IUP[1]	/* InterpolateUntPts */";
};
width = 1032;
},
{
layerId = m002;
shapes = (
{
closed = 1;
nodes = (
(547,1202,l),
(557,1171,l),
(844,1188,l),
(944,1315,l),
(786,1362,l)
);
},
{
closed = 1;
nodes = (
(414,1503,l),
(489,1227,l),
(522,1227,l),
(598,1503,l),
(506,1640,l)
);
},
{
closed = 1;
nodes = (
(545,1141,l),
(520,1120,l),
(623,854,l),
(776,797,l),
(770,961,l)
);
},
{
closed = 1;
nodes = (
(66,1315,l),
(168,1188,l),
(457,1171,l),
(467,1202,l),
(223,1362,l)
);
},
{
closed = 1;
nodes = (
(242,961,l),
(236,797,l),
(389,854,l),
(492,1120,l),
(467,1141,l)
);
}
);
userData = {
assembly = "SVTCA[0]	/* SetFreedomAndProjectionVectorToAxis */
PUSHW[ ]	/* 1 value pushed */
9
MDAP[1]	/* MoveDirectAbsPt */
PUSHW[ ]	/* 1 value pushed */
10
MDAP[1]	/* MoveDirectAbsPt */
PUSHW[ ]	/* 1 value pushed */
22
MDAP[1]	/* MoveDirectAbsPt */
PUSHW[ ]	/* 3 values pushed */
0 10 9
SRP1[ ]	/* SetRefPoint1 */
SRP2[ ]	/* SetRefPoint2 */
IP[ ]	/* InterpolatePts */
PUSHW[ ]	/* 3 values pushed */
18 10 9
SRP1[ ]	/* SetRefPoint1 */
SRP2[ ]	/* SetRefPoint2 */
IP[ ]	/* InterpolatePts */
IUP[0]	/* InterpolateUntPts */
IUP[1]	/* InterpolateUntPts */";
};
width = 1032;
}
);
note = asterisk;
unicode = 42;
},
{
glyphname = plus;
lastChange = "2025-08-23 01:57:26 +0000";
layers = (
{
layerId = m01;
shapes = (
{
closed = 1;
nodes = (
(911,668,l),
(911,1217,l),
(795,1217,l),
(795,668,l),
(244,668,l),
(244,551,l),
(795,551,l),
(795,0,l),
(911,0,l),
(911,551,l),
(1462,551,l),
(1462,668,l)
);
}
);
userData = {
assembly = "PUSHW[ ]	/* 4 values pushed */
2 5 3 4
CALL[ ]	/* CallFunction */
PUSHW[ ]	/* 1 value pushed */
3
SRP0[ ]	/* SetRefPoint0 */
PUSHW[ ]	/* 1 value pushed */
7
MDRP[10000]	/* MoveDirectRelPt */
PUSHW[ ]	/* 1 value pushed */
2
SRP0[ ]	/* SetRefPoint0 */
PUSHW[ ]	/* 1 value pushed */
9
MDRP[10000]	/* MoveDirectRelPt */
SVTCA[0]	/* SetFreedomAndProjectionVectorToAxis */
PUSHW[ ]	/* 1 value pushed */
8
MDAP[1]	/* MoveDirectAbsPt */
PUSHW[ ]	/* 1 value pushed */
2
MDAP[1]	/* MoveDirectAbsPt */
PUSHW[ ]	/* 4 values pushed */
11 2 0 4
CALL[ ]	/* CallFunction */
PUSHW[ ]	/* 1 value pushed */
0
SRP0[ ]	/* SetRefPoint0 */
PUSHW[ ]	/* 1 value pushed */
4
MDRP[10000]	/* MoveDirectRelPt */
PUSHW[ ]	/* 1 value pushed */
11
SRP0[ ]	/* SetRefPoint0 */
PUSHW[ ]	/* 1 value pushed */
6
MDRP[10000]	/* MoveDirectRelPt */
IUP[0]	/* InterpolateUntPts */
IUP[1]	/* InterpolateUntPts */";
};
width = 1706;
},
{
layerId = m002;
shapes = (
{
closed = 1;
nodes = (
(911,668,l),
(911,1217,l),
(795,1217,l),
(795,668,l),
(244,668,l),
(244,551,l),
(795,551,l),
(795,0,l),
(911,0,l),
(911,551,l),
(1462,551,l),
(1462,668,l)
);
}
);
userData = {
assembly = "PUSHW[ ]	/* 4 values pushed */
2 5 3 4
CALL[ ]	/* CallFunction */
PUSHW[ ]	/* 1 value pushed */
3
SRP0[ ]	/* SetRefPoint0 */
PUSHW[ ]	/* 1 value pushed */
7
MDRP[10000]	/* MoveDirectRelPt */
PUSHW[ ]	/* 1 value pushed */
2
SRP0[ ]	/* SetRefPoint0 */
PUSHW[ ]	/* 1 value pushed */
9
MDRP[10000]	/* MoveDirectRelPt */
SVTCA[0]	/* SetFreedomAndProjectionVectorToAxis */
PUSHW[ ]	/* 1 value pushed */
8
MDAP[1]	/* MoveDirectAbsPt */
PUSHW[ ]	/* 1 value pushed */
2
MDAP[1]	/* MoveDirectAbsPt */
PUSHW[ ]	/* 4 values pushed */
11 2 0 4
CALL[ ]	/* CallFunction */
PUSHW[ ]	/* 1 value pushed */
0
SRP0[ ]	/* SetRefPoint0 */
PUSHW[ ]	/* 1 value pushed */
4
MDRP[10000]	/* MoveDirectRelPt */
PUSHW[ ]	/* 1 value pushed */
11
SRP0[ ]	/* SetRefPoint0 */
PUSHW[ ]	/* 1 value pushed */
6
MDRP[10000]	/* MoveDirectRelPt */
IUP[0]	/* InterpolateUntPts */
IUP[1]	/* InterpolateUntPts */";
};
width = 1706;
}
);
note = plus;
unicode = 43;
},
{
glyphname = comma;
lastChange = "2025-08-23 01:57:26 +0000";
layers = (
{
layerId = m01;
shapes = (
{
closed = 1;
nodes = (
(233,344,q),
(156,366,o),
(80,298,q),
(11,228,o),
(5,154,q),
(25,90,o),
(46,56,o),
(86,29,o),
(152,16,o),
(237,43,o),
(252,7,o),
(250,-101,o),
(207,-210,q),
(177,-246,o),
(130,-310,o),
(130,-319,qs),
(130,-333,o),
(139,-341,o),
(150,-341,qs),
(183,-341,o),
(265,-248,q),
(336,-90,o),
(367,67,o),
(367,150,qs),
(367,260,o)
);
}
);
width = 432;
},
{
layerId = m002;
shapes = (
{
closed = 1;
nodes = (
(233,344,q),
(156,366,o),
(80,298,q),
(11,228,o),
(5,154,q),
(25,90,o),
(46,56,o),
(86,29,o),
(152,16,o),
(237,43,o),
(252,7,o),
(250,-101,o),
(207,-210,q),
(177,-246,o),
(130,-310,o),
(130,-319,qs),
(130,-333,o),
(139,-341,o),
(150,-341,qs),
(183,-341,o),
(265,-248,q),
(336,-90,o),
(367,67,o),
(367,150,qs),
(367,260,o)
);
}
);
width = 432;
}
);
note = comma;
unicode = 44;
},
{
glyphname = hyphenminus;
lastChange = "2025-08-23 01:57:26 +0000";
layers = (
{
layerId = m01;
shapes = (
{
closed = 1;
nodes = (
(90,569,l),
(90,416,l),
(565,416,l),
(565,569,l)
);
}
);
userData = {
assembly = "SVTCA[0]	/* SetFreedomAndProjectionVectorToAxis */
PUSHW[ ]	/* 4 values pushed */
3 3 0 4
CALL[ ]	/* CallFunction */
IUP[0]	/* InterpolateUntPts */
IUP[1]	/* InterpolateUntPts */";
};
width = 657;
},
{
layerId = m002;
shapes = (
{
closed = 1;
nodes = (
(90,569,l),
(90,416,l),
(565,416,l),
(565,569,l)
);
}
);
userData = {
assembly = "SVTCA[0]	/* SetFreedomAndProjectionVectorToAxis */
PUSHW[ ]	/* 4 values pushed */
3 3 0 4
CALL[ ]	/* CallFunction */
IUP[0]	/* InterpolateUntPts */
IUP[1]	/* InterpolateUntPts */";
};
width = 657;
}
);
note = hyphenminus;
unicode = 45;
},
{
glyphname = period;
lastChange = "2025-08-23 01:57:26 +0000";
layers = (
{
layerId = m01;
shapes = (
{
closed = 1;
nodes = (
(295,396,q),
(127,366,o),
(116,156,q),
(147,13,o),
(295,-25,q),
(443,13,o),
(483,166,q),
(463,366,o)
);
}
);
width = 592;
},
{
layerId = m002;
shapes = (
{
closed = 1;
nodes = (
(295,396,q),
(127,366,o),
(116,156,q),
(147,13,o),
(295,-25,q),
(443,13,o),
(483,166,q),
(463,366,o)
);
}
);
width = 592;
}
);
note = period;
unicode = 46;
},
{
glyphname = slash;
lastChange = "2025-08-23 01:57:26 +0000";
layers = (
{
layerId = m01;
shapes = (
{
closed = 1;
nodes = (
(0,-102,l),
(133,-102,l),
(1024,1497,l),
(891,1497,l)
);
}
);
userData = {
assembly = "SVTCA[0]	/* SetFreedomAndProjectionVectorToAxis */
PUSHW[ ]	/* 1 value pushed */
0
MDAP[1]	/* MoveDirectAbsPt */
PUSHW[ ]	/* 1 value pushed */
1
MDAP[1]	/* MoveDirectAbsPt */
IUP[0]	/* InterpolateUntPts */
IUP[1]	/* InterpolateUntPts */";
};
width = 1026;
},
{
layerId = m002;
shapes = (
{
closed = 1;
nodes = (
(0,-102,l),
(133,-102,l),
(1024,1497,l),
(891,1497,l)
);
}
);
userData = {
assembly = "SVTCA[0]	/* SetFreedomAndProjectionVectorToAxis */
PUSHW[ ]	/* 1 value pushed */
0
MDAP[1]	/* MoveDirectAbsPt */
PUSHW[ ]	/* 1 value pushed */
1
MDAP[1]	/* MoveDirectAbsPt */
IUP[0]	/* InterpolateUntPts */
IUP[1]	/* InterpolateUntPts */";
};
width = 1026;
}
);
note = slash;
unicode = 47;
},
{
glyphname = zero;
lastChange = "2025-08-23 01:57:26 +0000";
layers = (
{
layerId = m01;
shapes = (
{
closed = 1;
nodes = (
(936,1172,qs),
(804,1378,o),
(567,1378,qs),
(331,1378,o),
(200,1172,qs),
(80,983,o),
(80,678,qs),
(80,371,o),
(200,182,qs),
(331,-25,o),
(567,-25,qs),
(804,-25,o),
(936,182,qs),
(1057,371,o),
(1057,678,qs),
(1057,983,o)
);
},
{
closed = 1;
nodes = (
(567,76,qs),
(293,76,o),
(293,678,qs),
(293,1278,o),
(567,1278,qs),
(844,1278,o),
(844,678,qs),
(844,76,o)
);
}
);
userData = {
assembly = "PUSHW[ ]	/* 1 value pushed */
24
MDAP[1]	/* MoveDirectAbsPt */
PUSHW[ ]	/* 1 value pushed */
25
MDAP[1]	/* MoveDirectAbsPt */
PUSHW[ ]	/* 1 value pushed */
0
MDRP[11100]	/* MoveDirectRelPt */
PUSHW[ ]	/* 1 value pushed */
24
SRP0[ ]	/* SetRefPoint0 */
PUSHW[ ]	/* 1 value pushed */
8
MDRP[10000]	/* MoveDirectRelPt */
PUSHW[ ]	/* 1 value pushed */
8
MDAP[1]	/* MoveDirectAbsPt */
PUSHW[ ]	/* 1 value pushed */
0
SRP0[ ]	/* SetRefPoint0 */
PUSHW[ ]	/* 2 values pushed */
16 6
MIRP[11100]	/* MoveIndirectRelPt */
NPUSHW[ ]	/* 5 values pushed */
218 16 234 16 2
DELTAP1[ ]	/* DeltaExceptionP1 */
NPUSHW[ ]	/* 15 values pushed */
105 16 121 16 137 16 153 16 169 16 185 16 201 16 7
DELTAP1[ ]	/* DeltaExceptionP1 */
PUSHW[ ]	/* 1 value pushed */
8
SRP0[ ]	/* SetRefPoint0 */
PUSHW[ ]	/* 2 values pushed */
20 6
MIRP[11100]	/* MoveIndirectRelPt */
NPUSHW[ ]	/* 15 values pushed */
102 20 118 20 134 20 150 20 166 20 182 20 198 20 7
DELTAP1[ ]	/* DeltaExceptionP1 */
NPUSHW[ ]	/* 5 values pushed */
213 20 229 20 2
DELTAP1[ ]	/* DeltaExceptionP1 */
SVTCA[0]	/* SetFreedomAndProjectionVectorToAxis */
PUSHW[ ]	/* 4 values pushed */
22 2 4 4
CALL[ ]	/* CallFunction */
PUSHW[ ]	/* 4 values pushed */
12 2 18 4
CALL[ ]	/* CallFunction */
IUP[0]	/* InterpolateUntPts */
IUP[1]	/* InterpolateUntPts */";
};
width = 1135;
},
{
layerId = m002;
shapes = (
{
closed = 1;
nodes = (
(936,1172,qs),
(804,1378,o),
(567,1378,qs),
(331,1378,o),
(200,1172,qs),
(80,983,o),
(80,678,qs),
(80,371,o),
(200,182,qs),
(331,-25,o),
(567,-25,qs),
(804,-25,o),
(936,182,qs),
(1057,371,o),
(1057,678,qs),
(1057,983,o)
);
},
{
closed = 1;
nodes = (
(567,76,qs),
(293,76,o),
(293,678,qs),
(293,1278,o),
(567,1278,qs),
(844,1278,o),
(844,678,qs),
(844,76,o)
);
}
);
userData = {
assembly = "PUSHW[ ]	/* 1 value pushed */
24
MDAP[1]	/* MoveDirectAbsPt */
PUSHW[ ]	/* 1 value pushed */
25
MDAP[1]	/* MoveDirectAbsPt */
PUSHW[ ]	/* 1 value pushed */
0
MDRP[11100]	/* MoveDirectRelPt */
PUSHW[ ]	/* 1 value pushed */
24
SRP0[ ]	/* SetRefPoint0 */
PUSHW[ ]	/* 1 value pushed */
8
MDRP[10000]	/* MoveDirectRelPt */
PUSHW[ ]	/* 1 value pushed */
8
MDAP[1]	/* MoveDirectAbsPt */
PUSHW[ ]	/* 1 value pushed */
0
SRP0[ ]	/* SetRefPoint0 */
PUSHW[ ]	/* 2 values pushed */
16 6
MIRP[11100]	/* MoveIndirectRelPt */
NPUSHW[ ]	/* 5 values pushed */
218 16 234 16 2
DELTAP1[ ]	/* DeltaExceptionP1 */
NPUSHW[ ]	/* 15 values pushed */
105 16 121 16 137 16 153 16 169 16 185 16 201 16 7
DELTAP1[ ]	/* DeltaExceptionP1 */
PUSHW[ ]	/* 1 value pushed */
8
SRP0[ ]	/* SetRefPoint0 */
PUSHW[ ]	/* 2 values pushed */
20 6
MIRP[11100]	/* MoveIndirectRelPt */
NPUSHW[ ]	/* 15 values pushed */
102 20 118 20 134 20 150 20 166 20 182 20 198 20 7
DELTAP1[ ]	/* DeltaExceptionP1 */
NPUSHW[ ]	/* 5 values pushed */
213 20 229 20 2
DELTAP1[ ]	/* DeltaExceptionP1 */
SVTCA[0]	/* SetFreedomAndProjectionVectorToAxis */
PUSHW[ ]	/* 4 values pushed */
22 2 4 4
CALL[ ]	/* CallFunction */
PUSHW[ ]	/* 4 values pushed */
12 2 18 4
CALL[ ]	/* CallFunction */
IUP[0]	/* InterpolateUntPts */
IUP[1]	/* InterpolateUntPts */";
};
width = 1135;
}
);
note = zero;
unicode = 48;
},
{
glyphname = one;
lastChange = "2025-08-23 01:57:26 +0000";
layers = (
{
layerId = m01;
shapes = (
{
closed = 1;
nodes = (
(711,98,ls),
(666,100,o),
(666,143,qs),
(666,1378,l),
(590,1378,l),
(154,1243,l),
(154,1153,l),
(467,1206,l),
(467,143,ls),
(467,100,o),
(424,98,qs),
(217,90,l),
(217,0,l),
(901,0,l),
(901,90,l)
);
}
);
userData = {
assembly = "PUSHW[ ]	/* 4 values pushed */
11 6 5 4
CALL[ ]	/* CallFunction */
SVTCA[0]	/* SetFreedomAndProjectionVectorToAxis */
PUSHW[ ]	/* 1 value pushed */
9
MDAP[1]	/* MoveDirectAbsPt */
IUP[0]	/* InterpolateUntPts */
IUP[1]	/* InterpolateUntPts */";
};
width = 1135;
},
{
layerId = m002;
shapes = (
{
closed = 1;
nodes = (
(711,98,ls),
(666,100,o),
(666,143,qs),
(666,1378,l),
(590,1378,l),
(154,1243,l),
(154,1153,l),
(467,1206,l),
(467,143,ls),
(467,100,o),
(424,98,qs),
(217,90,l),
(217,0,l),
(901,0,l),
(901,90,l)
);
}
);
userData = {
assembly = "PUSHW[ ]	/* 4 values pushed */
11 6 5 4
CALL[ ]	/* CallFunction */
SVTCA[0]	/* SetFreedomAndProjectionVectorToAxis */
PUSHW[ ]	/* 1 value pushed */
9
MDAP[1]	/* MoveDirectAbsPt */
IUP[0]	/* InterpolateUntPts */
IUP[1]	/* InterpolateUntPts */";
};
width = 1135;
}
);
note = one;
unicode = 49;
},
{
glyphname = two;
lastChange = "2025-08-23 01:57:26 +0000";
layers = (
{
layerId = m01;
shapes = (
{
closed = 1;
nodes = (
(942,344,l),
(905,170,l),
(307,170,l),
(689,470,o),
(799,582,qs),
(1018,805,o),
(1018,993,qs),
(1018,1167,o),
(766,1378,o),
(567,1378,qs),
(386,1378,o),
(256,1296,qs),
(123,1211,o),
(123,1085,qs),
(123,969,o),
(244,969,qs),
(301,969,o),
(342,1001,q),
(342,1227,l),
(369,1238,o),
(396,1249,qs),
(454,1270,o),
(512,1270,qs),
(635,1270,o),
(715,1194,qs),
(801,1113,o),
(801,975,qs),
(801,787,o),
(602,577,qs),
(508,477,o),
(96,135,q),
(96,0,l),
(1040,0,l),
(1040,344,l)
);
}
);
userData = {
assembly = "PUSHW[ ]	/* 1 value pushed */
34
MDAP[1]	/* MoveDirectAbsPt */
PUSHW[ ]	/* 1 value pushed */
35
MDAP[1]	/* MoveDirectAbsPt */
PUSHW[ ]	/* 1 value pushed */
26
MDRP[11100]	/* MoveDirectRelPt */
PUSHW[ ]	/* 2 values pushed */
6 6
MIRP[11100]	/* MoveIndirectRelPt */
NPUSHW[ ]	/* 5 values pushed */
218 6 234 6 2
DELTAP1[ ]	/* DeltaExceptionP1 */
NPUSHW[ ]	/* 15 values pushed */
105 6 121 6 137 6 153 6 169 6 185 6 201 6 7
DELTAP1[ ]	/* DeltaExceptionP1 */
PUSHW[ ]	/* 1 value pushed */
34
SRP0[ ]	/* SetRefPoint0 */
PUSHW[ ]	/* 1 value pushed */
19
MDRP[10000]	/* MoveDirectRelPt */
PUSHW[ ]	/* 1 value pushed */
19
MDAP[1]	/* MoveDirectAbsPt */
PUSHW[ ]	/* 2 values pushed */
15 6
MIRP[11100]	/* MoveIndirectRelPt */
PUSHW[ ]	/* 1 value pushed */
6
SRP0[ ]	/* SetRefPoint0 */
PUSHW[ ]	/* 1 value pushed */
28
MDRP[10000]	/* MoveDirectRelPt */
PUSHW[ ]	/* 1 value pushed */
28
MDAP[1]	/* MoveDirectAbsPt */
PUSHW[ ]	/* 3 values pushed */
30 19 15
SRP1[ ]	/* SetRefPoint1 */
SRP2[ ]	/* SetRefPoint2 */
IP[ ]	/* InterpolatePts */
SVTCA[0]	/* SetFreedomAndProjectionVectorToAxis */
PUSHW[ ]	/* 4 values pushed */
31 3 0 4
CALL[ ]	/* CallFunction */
PUSHW[ ]	/* 4 values pushed */
23 2 10 4
CALL[ ]	/* CallFunction */
IUP[0]	/* InterpolateUntPts */
IUP[1]	/* InterpolateUntPts */";
};
width = 1135;
},
{
layerId = m002;
shapes = (
{
closed = 1;
nodes = (
(942,344,l),
(905,170,l),
(307,170,l),
(689,470,o),
(799,582,qs),
(1018,805,o),
(1018,993,qs),
(1018,1167,o),
(766,1378,o),
(567,1378,qs),
(386,1378,o),
(256,1296,qs),
(123,1211,o),
(123,1085,qs),
(123,969,o),
(244,969,qs),
(301,969,o),
(342,1001,q),
(342,1227,l),
(369,1238,o),
(396,1249,qs),
(454,1270,o),
(512,1270,qs),
(635,1270,o),
(715,1194,qs),
(801,1113,o),
(801,975,qs),
(801,787,o),
(602,577,qs),
(508,477,o),
(96,135,q),
(96,0,l),
(1040,0,l),
(1040,344,l)
);
}
);
userData = {
assembly = "PUSHW[ ]	/* 1 value pushed */
34
MDAP[1]	/* MoveDirectAbsPt */
PUSHW[ ]	/* 1 value pushed */
35
MDAP[1]	/* MoveDirectAbsPt */
PUSHW[ ]	/* 1 value pushed */
26
MDRP[11100]	/* MoveDirectRelPt */
PUSHW[ ]	/* 2 values pushed */
6 6
MIRP[11100]	/* MoveIndirectRelPt */
NPUSHW[ ]	/* 5 values pushed */
218 6 234 6 2
DELTAP1[ ]	/* DeltaExceptionP1 */
NPUSHW[ ]	/* 15 values pushed */
105 6 121 6 137 6 153 6 169 6 185 6 201 6 7
DELTAP1[ ]	/* DeltaExceptionP1 */
PUSHW[ ]	/* 1 value pushed */
34
SRP0[ ]	/* SetRefPoint0 */
PUSHW[ ]	/* 1 value pushed */
19
MDRP[10000]	/* MoveDirectRelPt */
PUSHW[ ]	/* 1 value pushed */
19
MDAP[1]	/* MoveDirectAbsPt */
PUSHW[ ]	/* 2 values pushed */
15 6
MIRP[11100]	/* MoveIndirectRelPt */
PUSHW[ ]	/* 1 value pushed */
6
SRP0[ ]	/* SetRefPoint0 */
PUSHW[ ]	/* 1 value pushed */
28
MDRP[10000]	/* MoveDirectRelPt */
PUSHW[ ]	/* 1 value pushed */
28
MDAP[1]	/* MoveDirectAbsPt */
PUSHW[ ]	/* 3 values pushed */
30 19 15
SRP1[ ]	/* SetRefPoint1 */
SRP2[ ]	/* SetRefPoint2 */
IP[ ]	/* InterpolatePts */
SVTCA[0]	/* SetFreedomAndProjectionVectorToAxis */
PUSHW[ ]	/* 4 values pushed */
31 3 0 4
CALL[ ]	/* CallFunction */
PUSHW[ ]	/* 4 values pushed */
23 2 10 4
CALL[ ]	/* CallFunction */
IUP[0]	/* InterpolateUntPts */
IUP[1]	/* InterpolateUntPts */";
};
width = 1135;
}
);
note = two;
unicode = 50;
},
{
glyphname = three;
lastChange = "2025-08-23 01:57:26 +0000";
layers = (
{
layerId = m01;
shapes = (
{
closed = 1;
nodes = (
(923,630,qs),
(824,706,o),
(680,713,q),
(989,802,o),
(989,1038,qs),
(989,1194,o),
(870,1288,qs),
(755,1378,o),
(575,1378,qs),
(392,1378,o),
(262,1300,qs),
(129,1220,o),
(129,1106,qs),
(129,1048,o),
(170,1016,qs),
(202,991,o),
(246,991,qs),
(283,991,o),
(336,1018,q),
(336,1219,l),
(419,1268,o),
(518,1268,qs),
(628,1268,o),
(703,1203,qs),
(784,1132,o),
(784,1012,qs),
(784,886,o),
(685,817,qs),
(597,756,o),
(459,756,qs),
(414,756,o),
(408,758,q),
(408,631,l),
(464,641,o),
(530,641,qs),
(650,641,o),
(732,587,qs),
(834,519,o),
(834,385,qs),
(834,260,o),
(746,171,qs),
(654,78,o),
(518,78,qs),
(424,78,o),
(344,121,q),
(283,301,l),
(264,315,o),
(215,315,qs),
(157,315,o),
(96,250,o),
(96,205,qs),
(96,121,o),
(202,53,qs),
(323,-25,o),
(512,-25,qs),
(735,-25,o),
(1040,205,o),
(1040,385,qs),
(1040,540,o)
);
}
);
userData = {
assembly = "PUSHW[ ]	/* 4 values pushed */
39 6 45 4
CALL[ ]	/* CallFunction */
PUSHW[ ]	/* 4 values pushed */
53 6 32 4
CALL[ ]	/* CallFunction */
NPUSHW[ ]	/* 5 values pushed */
218 32 234 32 2
DELTAP1[ ]	/* DeltaExceptionP1 */
NPUSHW[ ]	/* 15 values pushed */
105 32 121 32 137 32 153 32 169 32 185 32 201 32 7
DELTAP1[ ]	/* DeltaExceptionP1 */
PUSHW[ ]	/* 3 values pushed */
19 32 53
SRP1[ ]	/* SetRefPoint1 */
SRP2[ ]	/* SetRefPoint2 */
IP[ ]	/* InterpolatePts */
PUSHW[ ]	/* 1 value pushed */
19
MDAP[1]	/* MoveDirectAbsPt */
NPUSHW[ ]	/* 5 values pushed */
218 19 234 19 2
DELTAP1[ ]	/* DeltaExceptionP1 */
NPUSHW[ ]	/* 15 values pushed */
105 19 121 19 137 19 153 19 169 19 185 19 201 19 7
DELTAP1[ ]	/* DeltaExceptionP1 */
PUSHW[ ]	/* 2 values pushed */
0 6
MIRP[11100]	/* MoveIndirectRelPt */
PUSHW[ ]	/* 3 values pushed */
26 45 0
SRP1[ ]	/* SetRefPoint1 */
SRP2[ ]	/* SetRefPoint2 */
IP[ ]	/* InterpolatePts */
PUSHW[ ]	/* 3 values pushed */
55 45 0
SRP1[ ]	/* SetRefPoint1 */
SRP2[ ]	/* SetRefPoint2 */
IP[ ]	/* InterpolatePts */
SVTCA[0]	/* SetFreedomAndProjectionVectorToAxis */
PUSHW[ ]	/* 4 values pushed */
15 2 3 4
CALL[ ]	/* CallFunction */
PUSHW[ ]	/* 4 values pushed */
49 2 36 4
CALL[ ]	/* CallFunction */
PUSHW[ ]	/* 4 values pushed */
28 2 23 4
CALL[ ]	/* CallFunction */
PUSHW[ ]	/* 1 value pushed */
23
SRP0[ ]	/* SetRefPoint0 */
PUSHW[ ]	/* 1 value pushed */
25
MDRP[10000]	/* MoveDirectRelPt */
PUSHW[ ]	/* 1 value pushed */
25
MDAP[1]	/* MoveDirectAbsPt */
PUSHW[ ]	/* 3 values pushed */
55 23 28
SRP1[ ]	/* SetRefPoint1 */
SRP2[ ]	/* SetRefPoint2 */
IP[ ]	/* InterpolatePts */
IUP[0]	/* InterpolateUntPts */
IUP[1]	/* InterpolateUntPts */";
};
width = 1135;
},
{
layerId = m002;
shapes = (
{
closed = 1;
nodes = (
(923,630,qs),
(824,706,o),
(680,713,q),
(989,802,o),
(989,1038,qs),
(989,1194,o),
(870,1288,qs),
(755,1378,o),
(575,1378,qs),
(392,1378,o),
(262,1300,qs),
(129,1220,o),
(129,1106,qs),
(129,1048,o),
(170,1016,qs),
(202,991,o),
(246,991,qs),
(283,991,o),
(336,1018,q),
(336,1219,l),
(419,1268,o),
(518,1268,qs),
(628,1268,o),
(703,1203,qs),
(784,1132,o),
(784,1012,qs),
(784,886,o),
(685,817,qs),
(597,756,o),
(459,756,qs),
(414,756,o),
(408,758,q),
(408,631,l),
(464,641,o),
(530,641,qs),
(650,641,o),
(732,587,qs),
(834,519,o),
(834,385,qs),
(834,260,o),
(746,171,qs),
(654,78,o),
(518,78,qs),
(424,78,o),
(344,121,q),
(283,301,l),
(264,315,o),
(215,315,qs),
(157,315,o),
(96,250,o),
(96,205,qs),
(96,121,o),
(202,53,qs),
(323,-25,o),
(512,-25,qs),
(735,-25,o),
(1040,205,o),
(1040,385,qs),
(1040,540,o)
);
}
);
userData = {
assembly = "PUSHW[ ]	/* 4 values pushed */
39 6 45 4
CALL[ ]	/* CallFunction */
PUSHW[ ]	/* 4 values pushed */
53 6 32 4
CALL[ ]	/* CallFunction */
NPUSHW[ ]	/* 5 values pushed */
218 32 234 32 2
DELTAP1[ ]	/* DeltaExceptionP1 */
NPUSHW[ ]	/* 15 values pushed */
105 32 121 32 137 32 153 32 169 32 185 32 201 32 7
DELTAP1[ ]	/* DeltaExceptionP1 */
PUSHW[ ]	/* 3 values pushed */
19 32 53
SRP1[ ]	/* SetRefPoint1 */
SRP2[ ]	/* SetRefPoint2 */
IP[ ]	/* InterpolatePts */
PUSHW[ ]	/* 1 value pushed */
19
MDAP[1]	/* MoveDirectAbsPt */
NPUSHW[ ]	/* 5 values pushed */
218 19 234 19 2
DELTAP1[ ]	/* DeltaExceptionP1 */
NPUSHW[ ]	/* 15 values pushed */
105 19 121 19 137 19 153 19 169 19 185 19 201 19 7
DELTAP1[ ]	/* DeltaExceptionP1 */
PUSHW[ ]	/* 2 values pushed */
0 6
MIRP[11100]	/* MoveIndirectRelPt */
PUSHW[ ]	/* 3 values pushed */
26 45 0
SRP1[ ]	/* SetRefPoint1 */
SRP2[ ]	/* SetRefPoint2 */
IP[ ]	/* InterpolatePts */
PUSHW[ ]	/* 3 values pushed */
55 45 0
SRP1[ ]	/* SetRefPoint1 */
SRP2[ ]	/* SetRefPoint2 */
IP[ ]	/* InterpolatePts */
SVTCA[0]	/* SetFreedomAndProjectionVectorToAxis */
PUSHW[ ]	/* 4 values pushed */
15 2 3 4
CALL[ ]	/* CallFunction */
PUSHW[ ]	/* 4 values pushed */
49 2 36 4
CALL[ ]	/* CallFunction */
PUSHW[ ]	/* 4 values pushed */
28 2 23 4
CALL[ ]	/* CallFunction */
PUSHW[ ]	/* 1 value pushed */
23
SRP0[ ]	/* SetRefPoint0 */
PUSHW[ ]	/* 1 value pushed */
25
MDRP[10000]	/* MoveDirectRelPt */
PUSHW[ ]	/* 1 value pushed */
25
MDAP[1]	/* MoveDirectAbsPt */
PUSHW[ ]	/* 3 values pushed */
55 23 28
SRP1[ ]	/* SetRefPoint1 */
SRP2[ ]	/* SetRefPoint2 */
IP[ ]	/* InterpolatePts */
IUP[0]	/* InterpolateUntPts */
IUP[1]	/* InterpolateUntPts */";
};
width = 1135;
}
);
note = three;
unicode = 51;
},
{
glyphname = four;
lastChange = "2025-08-23 01:57:26 +0000";
layers = (
{
layerId = m01;
shapes = (
{
closed = 1;
nodes = (
(885,539,l),
(885,1378,l),
(741,1378,l),
(80,541,l),
(80,401,l),
(694,401,l),
(694,-25,l),
(885,-25,l),
(885,401,l),
(1057,401,l),
(1057,539,l)
);
},
{
closed = 1;
nodes = (
(694,1120,l),
(694,539,l),
(240,539,l)
);
}
);
userData = {
assembly = "PUSHW[ ]	/* 4 values pushed */
2 6 3 4
CALL[ ]	/* CallFunction */
PUSHW[ ]	/* 1 value pushed */
2
SRP0[ ]	/* SetRefPoint0 */
PUSHW[ ]	/* 1 value pushed */
8
MDRP[10000]	/* MoveDirectRelPt */
PUSHW[ ]	/* 1 value pushed */
3
SRP0[ ]	/* SetRefPoint0 */
PUSHW[ ]	/* 1 value pushed */
11
MDRP[10000]	/* MoveDirectRelPt */
SVTCA[0]	/* SetFreedomAndProjectionVectorToAxis */
PUSHW[ ]	/* 1 value pushed */
7
MDAP[1]	/* MoveDirectAbsPt */
PUSHW[ ]	/* 1 value pushed */
2
MDAP[1]	/* MoveDirectAbsPt */
PUSHW[ ]	/* 4 values pushed */
10 2 0 4
CALL[ ]	/* CallFunction */
PUSHW[ ]	/* 1 value pushed */
0
SRP0[ ]	/* SetRefPoint0 */
PUSHW[ ]	/* 1 value pushed */
4
MDRP[10000]	/* MoveDirectRelPt */
PUSHW[ ]	/* 1 value pushed */
10
SRP0[ ]	/* SetRefPoint0 */
PUSHW[ ]	/* 1 value pushed */
11
MDRP[10000]	/* MoveDirectRelPt */
PUSHW[ ]	/* 3 values pushed */
12 2 7
SRP1[ ]	/* SetRefPoint1 */
SRP2[ ]	/* SetRefPoint2 */
IP[ ]	/* InterpolatePts */
PUSHW[ ]	/* 3 values pushed */
13 2 7
SRP1[ ]	/* SetRefPoint1 */
SRP2[ ]	/* SetRefPoint2 */
IP[ ]	/* InterpolatePts */
IUP[0]	/* InterpolateUntPts */
IUP[1]	/* InterpolateUntPts */";
};
width = 1135;
},
{
layerId = m002;
shapes = (
{
closed = 1;
nodes = (
(885,539,l),
(885,1378,l),
(741,1378,l),
(80,541,l),
(80,401,l),
(694,401,l),
(694,-25,l),
(885,-25,l),
(885,401,l),
(1057,401,l),
(1057,539,l)
);
},
{
closed = 1;
nodes = (
(694,1120,l),
(694,539,l),
(240,539,l)
);
}
);
userData = {
assembly = "PUSHW[ ]	/* 4 values pushed */
2 6 3 4
CALL[ ]	/* CallFunction */
PUSHW[ ]	/* 1 value pushed */
2
SRP0[ ]	/* SetRefPoint0 */
PUSHW[ ]	/* 1 value pushed */
8
MDRP[10000]	/* MoveDirectRelPt */
PUSHW[ ]	/* 1 value pushed */
3
SRP0[ ]	/* SetRefPoint0 */
PUSHW[ ]	/* 1 value pushed */
11
MDRP[10000]	/* MoveDirectRelPt */
SVTCA[0]	/* SetFreedomAndProjectionVectorToAxis */
PUSHW[ ]	/* 1 value pushed */
7
MDAP[1]	/* MoveDirectAbsPt */
PUSHW[ ]	/* 1 value pushed */
2
MDAP[1]	/* MoveDirectAbsPt */
PUSHW[ ]	/* 4 values pushed */
10 2 0 4
CALL[ ]	/* CallFunction */
PUSHW[ ]	/* 1 value pushed */
0
SRP0[ ]	/* SetRefPoint0 */
PUSHW[ ]	/* 1 value pushed */
4
MDRP[10000]	/* MoveDirectRelPt */
PUSHW[ ]	/* 1 value pushed */
10
SRP0[ ]	/* SetRefPoint0 */
PUSHW[ ]	/* 1 value pushed */
11
MDRP[10000]	/* MoveDirectRelPt */
PUSHW[ ]	/* 3 values pushed */
12 2 7
SRP1[ ]	/* SetRefPoint1 */
SRP2[ ]	/* SetRefPoint2 */
IP[ ]	/* InterpolatePts */
PUSHW[ ]	/* 3 values pushed */
13 2 7
SRP1[ ]	/* SetRefPoint1 */
SRP2[ ]	/* SetRefPoint2 */
IP[ ]	/* InterpolatePts */
IUP[0]	/* InterpolateUntPts */
IUP[1]	/* InterpolateUntPts */";
};
width = 1135;
}
);
note = four;
unicode = 52;
},
{
glyphname = five;
lastChange = "2025-08-23 01:57:26 +0000";
layers = (
{
layerId = m01;
shapes = (
{
closed = 1;
nodes = (
(798,852,o),
(586,852,qs),
(502,852,o),
(301,801,o),
(315,801,q),
(315,1184,l),
(950,1184,l),
(950,1354,l),
(170,1354,l),
(170,653,l),
(372,723,o),
(494,723,qs),
(647,723,o),
(739,641,qs),
(838,553,o),
(838,389,qs),
(838,271,o),
(752,178,qs),
(656,74,o),
(506,74,qs),
(401,74,o),
(350,125,q),
(272,311,l),
(248,319,o),
(217,319,qs),
(92,319,o),
(92,205,qs),
(92,123,o),
(205,51,qs),
(323,-25,o),
(475,-25,qs),
(747,-25,o),
(899,104,qs),
(1044,227,o),
(1044,438,qs),
(1044,632,o)
);
}
);
userData = {
assembly = "PUSHW[ ]	/* 1 value pushed */
36
MDAP[1]	/* MoveDirectAbsPt */
PUSHW[ ]	/* 1 value pushed */
37
MDAP[1]	/* MoveDirectAbsPt */
PUSHW[ ]	/* 1 value pushed */
0
MDRP[11100]	/* MoveDirectRelPt */
PUSHW[ ]	/* 2 values pushed */
19 6
MIRP[11100]	/* MoveIndirectRelPt */
NPUSHW[ ]	/* 5 values pushed */
218 19 234 19 2
DELTAP1[ ]	/* DeltaExceptionP1 */
NPUSHW[ ]	/* 15 values pushed */
105 19 121 19 137 19 153 19 169 19 185 19 201 19 7
DELTAP1[ ]	/* DeltaExceptionP1 */
PUSHW[ ]	/* 1 value pushed */
36
SRP0[ ]	/* SetRefPoint0 */
PUSHW[ ]	/* 1 value pushed */
25
MDRP[10000]	/* MoveDirectRelPt */
PUSHW[ ]	/* 1 value pushed */
25
MDAP[1]	/* MoveDirectAbsPt */
PUSHW[ ]	/* 2 values pushed */
30 5
MIRP[11100]	/* MoveIndirectRelPt */
SVTCA[0]	/* SetFreedomAndProjectionVectorToAxis */
PUSHW[ ]	/* 4 values pushed */
15 2 4 4
CALL[ ]	/* CallFunction */
PUSHW[ ]	/* 4 values pushed */
27 3 28 4
CALL[ ]	/* CallFunction */
PUSHW[ ]	/* 4 values pushed */
33 2 23 4
CALL[ ]	/* CallFunction */
IUP[0]	/* InterpolateUntPts */
IUP[1]	/* InterpolateUntPts */";
};
width = 1135;
},
{
layerId = m002;
shapes = (
{
closed = 1;
nodes = (
(798,852,o),
(586,852,qs),
(502,852,o),
(301,801,o),
(315,801,q),
(315,1184,l),
(950,1184,l),
(950,1354,l),
(170,1354,l),
(170,653,l),
(372,723,o),
(494,723,qs),
(647,723,o),
(739,641,qs),
(838,553,o),
(838,389,qs),
(838,271,o),
(752,178,qs),
(656,74,o),
(506,74,qs),
(401,74,o),
(350,125,q),
(272,311,l),
(248,319,o),
(217,319,qs),
(92,319,o),
(92,205,qs),
(92,123,o),
(205,51,qs),
(323,-25,o),
(475,-25,qs),
(747,-25,o),
(899,104,qs),
(1044,227,o),
(1044,438,qs),
(1044,632,o)
);
}
);
userData = {
assembly = "PUSHW[ ]	/* 1 value pushed */
36
MDAP[1]	/* MoveDirectAbsPt */
PUSHW[ ]	/* 1 value pushed */
37
MDAP[1]	/* MoveDirectAbsPt */
PUSHW[ ]	/* 1 value pushed */
0
MDRP[11100]	/* MoveDirectRelPt */
PUSHW[ ]	/* 2 values pushed */
19 6
MIRP[11100]	/* MoveIndirectRelPt */
NPUSHW[ ]	/* 5 values pushed */
218 19 234 19 2
DELTAP1[ ]	/* DeltaExceptionP1 */
NPUSHW[ ]	/* 15 values pushed */
105 19 121 19 137 19 153 19 169 19 185 19 201 19 7
DELTAP1[ ]	/* DeltaExceptionP1 */
PUSHW[ ]	/* 1 value pushed */
36
SRP0[ ]	/* SetRefPoint0 */
PUSHW[ ]	/* 1 value pushed */
25
MDRP[10000]	/* MoveDirectRelPt */
PUSHW[ ]	/* 1 value pushed */
25
MDAP[1]	/* MoveDirectAbsPt */
PUSHW[ ]	/* 2 values pushed */
30 5
MIRP[11100]	/* MoveIndirectRelPt */
SVTCA[0]	/* SetFreedomAndProjectionVectorToAxis */
PUSHW[ ]	/* 4 values pushed */
15 2 4 4
CALL[ ]	/* CallFunction */
PUSHW[ ]	/* 4 values pushed */
27 3 28 4
CALL[ ]	/* CallFunction */
PUSHW[ ]	/* 4 values pushed */
33 2 23 4
CALL[ ]	/* CallFunction */
IUP[0]	/* InterpolateUntPts */
IUP[1]	/* InterpolateUntPts */";
};
width = 1135;
}
);
note = five;
unicode = 53;
},
{
glyphname = six;
lastChange = "2025-08-23 01:57:26 +0000";
layers = (
{
layerId = m01;
shapes = (
{
closed = 1;
nodes = (
(825,883,o),
(637,883,qs),
(447,883,o),
(299,754,q),
(329,989,o),
(478,1128,qs),
(622,1261,o),
(819,1255,qs),
(889,1253,l),
(889,1378,l),
(509,1378,o),
(292,1160,qs),
(80,946,o),
(80,580,qs),
(80,266,o),
(221,112,qs),
(346,-25,o),
(565,-25,qs),
(774,-25,o),
(913,109,qs),
(1057,246,o),
(1057,463,qs),
(1057,645,o)
);
},
{
closed = 1;
nodes = (
(782,183,qs),
(705,80,o),
(565,80,qs),
(289,80,o),
(289,539,qs),
(289,606,o),
(293,649,q),
(431,752,o),
(565,752,qs),
(699,752,o),
(852,585,o),
(852,436,qs),
(852,278,o)
);
}
);
userData = {
assembly = "PUSHW[ ]	/* 1 value pushed */
36
MDAP[1]	/* MoveDirectAbsPt */
PUSHW[ ]	/* 1 value pushed */
37
MDAP[1]	/* MoveDirectAbsPt */
PUSHW[ ]	/* 1 value pushed */
0
MDRP[11100]	/* MoveDirectRelPt */
PUSHW[ ]	/* 1 value pushed */
36
SRP0[ ]	/* SetRefPoint0 */
PUSHW[ ]	/* 1 value pushed */
8
MDRP[10000]	/* MoveDirectRelPt */
PUSHW[ ]	/* 1 value pushed */
8
MDAP[1]	/* MoveDirectAbsPt */
PUSHW[ ]	/* 2 values pushed */
30 6
MIRP[11100]	/* MoveIndirectRelPt */
NPUSHW[ ]	/* 15 values pushed */
102 30 118 30 134 30 150 30 166 30 182 30 198 30 7
DELTAP1[ ]	/* DeltaExceptionP1 */
NPUSHW[ ]	/* 5 values pushed */
213 30 229 30 2
DELTAP1[ ]	/* DeltaExceptionP1 */
PUSHW[ ]	/* 1 value pushed */
10
MDRP[10000]	/* MoveDirectRelPt */
PUSHW[ ]	/* 1 value pushed */
10
MDAP[1]	/* MoveDirectAbsPt */
PUSHW[ ]	/* 1 value pushed */
30
SRP0[ ]	/* SetRefPoint0 */
PUSHW[ ]	/* 1 value pushed */
18
MDRP[10000]	/* MoveDirectRelPt */
PUSHW[ ]	/* 1 value pushed */
18
MDAP[1]	/* MoveDirectAbsPt */
PUSHW[ ]	/* 1 value pushed */
0
SRP0[ ]	/* SetRefPoint0 */
PUSHW[ ]	/* 2 values pushed */
23 6
MIRP[11100]	/* MoveIndirectRelPt */
NPUSHW[ ]	/* 5 values pushed */
218 23 234 23 2
DELTAP1[ ]	/* DeltaExceptionP1 */
NPUSHW[ ]	/* 15 values pushed */
105 23 121 23 137 23 153 23 169 23 185 23 201 23 7
DELTAP1[ ]	/* DeltaExceptionP1 */
PUSHW[ ]	/* 1 value pushed */
30
SRP0[ ]	/* SetRefPoint0 */
PUSHW[ ]	/* 1 value pushed */
28
MDRP[10000]	/* MoveDirectRelPt */
PUSHW[ ]	/* 1 value pushed */
28
MDAP[1]	/* MoveDirectAbsPt */
SVTCA[0]	/* SetFreedomAndProjectionVectorToAxis */
PUSHW[ ]	/* 4 values pushed */
32 2 4 4
CALL[ ]	/* CallFunction */
PUSHW[ ]	/* 4 values pushed */
12 2 14 4
CALL[ ]	/* CallFunction */
PUSHW[ ]	/* 4 values pushed */
20 2 26 4
CALL[ ]	/* CallFunction */
PUSHW[ ]	/* 3 values pushed */
18 26 20
SRP1[ ]	/* SetRefPoint1 */
SRP2[ ]	/* SetRefPoint2 */
IP[ ]	/* InterpolatePts */
IUP[0]	/* InterpolateUntPts */
IUP[1]	/* InterpolateUntPts */";
};
width = 1135;
},
{
layerId = m002;
shapes = (
{
closed = 1;
nodes = (
(825,883,o),
(637,883,qs),
(447,883,o),
(299,754,q),
(329,989,o),
(478,1128,qs),
(622,1261,o),
(819,1255,qs),
(889,1253,l),
(889,1378,l),
(509,1378,o),
(292,1160,qs),
(80,946,o),
(80,580,qs),
(80,266,o),
(221,112,qs),
(346,-25,o),
(565,-25,qs),
(774,-25,o),
(913,109,qs),
(1057,246,o),
(1057,463,qs),
(1057,645,o)
);
},
{
closed = 1;
nodes = (
(782,183,qs),
(705,80,o),
(565,80,qs),
(289,80,o),
(289,539,qs),
(289,606,o),
(293,649,q),
(431,752,o),
(565,752,qs),
(699,752,o),
(852,585,o),
(852,436,qs),
(852,278,o)
);
}
);
userData = {
assembly = "PUSHW[ ]	/* 1 value pushed */
36
MDAP[1]	/* MoveDirectAbsPt */
PUSHW[ ]	/* 1 value pushed */
37
MDAP[1]	/* MoveDirectAbsPt */
PUSHW[ ]	/* 1 value pushed */
0
MDRP[11100]	/* MoveDirectRelPt */
PUSHW[ ]	/* 1 value pushed */
36
SRP0[ ]	/* SetRefPoint0 */
PUSHW[ ]	/* 1 value pushed */
8
MDRP[10000]	/* MoveDirectRelPt */
PUSHW[ ]	/* 1 value pushed */
8
MDAP[1]	/* MoveDirectAbsPt */
PUSHW[ ]	/* 2 values pushed */
30 6
MIRP[11100]	/* MoveIndirectRelPt */
NPUSHW[ ]	/* 15 values pushed */
102 30 118 30 134 30 150 30 166 30 182 30 198 30 7
DELTAP1[ ]	/* DeltaExceptionP1 */
NPUSHW[ ]	/* 5 values pushed */
213 30 229 30 2
DELTAP1[ ]	/* DeltaExceptionP1 */
PUSHW[ ]	/* 1 value pushed */
10
MDRP[10000]	/* MoveDirectRelPt */
PUSHW[ ]	/* 1 value pushed */
10
MDAP[1]	/* MoveDirectAbsPt */
PUSHW[ ]	/* 1 value pushed */
30
SRP0[ ]	/* SetRefPoint0 */
PUSHW[ ]	/* 1 value pushed */
18
MDRP[10000]	/* MoveDirectRelPt */
PUSHW[ ]	/* 1 value pushed */
18
MDAP[1]	/* MoveDirectAbsPt */
PUSHW[ ]	/* 1 value pushed */
0
SRP0[ ]	/* SetRefPoint0 */
PUSHW[ ]	/* 2 values pushed */
23 6
MIRP[11100]	/* MoveIndirectRelPt */
NPUSHW[ ]	/* 5 values pushed */
218 23 234 23 2
DELTAP1[ ]	/* DeltaExceptionP1 */
NPUSHW[ ]	/* 15 values pushed */
105 23 121 23 137 23 153 23 169 23 185 23 201 23 7
DELTAP1[ ]	/* DeltaExceptionP1 */
PUSHW[ ]	/* 1 value pushed */
30
SRP0[ ]	/* SetRefPoint0 */
PUSHW[ ]	/* 1 value pushed */
28
MDRP[10000]	/* MoveDirectRelPt */
PUSHW[ ]	/* 1 value pushed */
28
MDAP[1]	/* MoveDirectAbsPt */
SVTCA[0]	/* SetFreedomAndProjectionVectorToAxis */
PUSHW[ ]	/* 4 values pushed */
32 2 4 4
CALL[ ]	/* CallFunction */
PUSHW[ ]	/* 4 values pushed */
12 2 14 4
CALL[ ]	/* CallFunction */
PUSHW[ ]	/* 4 values pushed */
20 2 26 4
CALL[ ]	/* CallFunction */
PUSHW[ ]	/* 3 values pushed */
18 26 20
SRP1[ ]	/* SetRefPoint1 */
SRP2[ ]	/* SetRefPoint2 */
IP[ ]	/* InterpolatePts */
IUP[0]	/* InterpolateUntPts */
IUP[1]	/* InterpolateUntPts */";
};
width = 1135;
}
);
note = six;
unicode = 54;
},
{
glyphname = seven;
lastChange = "2025-08-23 01:57:26 +0000";
layers = (
{
layerId = m01;
shapes = (
{
closed = 1;
nodes = (
(84,1354,l),
(84,997,l),
(188,997,l),
(219,1184,l),
(842,1184,l),
(176,-25,l),
(389,-25,l),
(389,43,l),
(1053,1241,l),
(1053,1354,l)
);
}
);
userData = {
assembly = "SVTCA[0]	/* SetFreedomAndProjectionVectorToAxis */
PUSHW[ ]	/* 1 value pushed */
2
MDAP[1]	/* MoveDirectAbsPt */
PUSHW[ ]	/* 4 values pushed */
9 3 4 4
CALL[ ]	/* CallFunction */
IUP[0]	/* InterpolateUntPts */
IUP[1]	/* InterpolateUntPts */";
};
width = 1135;
},
{
layerId = m002;
shapes = (
{
closed = 1;
nodes = (
(84,1354,l),
(84,997,l),
(188,997,l),
(219,1184,l),
(842,1184,l),
(176,-25,l),
(389,-25,l),
(389,43,l),
(1053,1241,l),
(1053,1354,l)
);
}
);
userData = {
assembly = "SVTCA[0]	/* SetFreedomAndProjectionVectorToAxis */
PUSHW[ ]	/* 1 value pushed */
2
MDAP[1]	/* MoveDirectAbsPt */
PUSHW[ ]	/* 4 values pushed */
9 3 4 4
CALL[ ]	/* CallFunction */
IUP[0]	/* InterpolateUntPts */
IUP[1]	/* InterpolateUntPts */";
};
width = 1135;
}
);
note = seven;
unicode = 55;
},
{
glyphname = eight;
lastChange = "2025-08-23 01:57:26 +0000";
layers = (
{
layerId = m01;
shapes = (
{
closed = 1;
nodes = (
(754,713,q),
(997,830,o),
(997,1040,qs),
(997,1187,o),
(752,1378,o),
(567,1378,qs),
(372,1378,o),
(254,1280,qs),
(135,1179,o),
(135,1008,qs),
(135,898,o),
(210,811,qs),
(273,740,o),
(369,700,q),
(82,594,o),
(82,365,qs),
(82,191,o),
(346,-25,o),
(567,-25,qs),
(776,-25,o),
(1055,198,o),
(1055,369,qs),
(1055,603,o)
);
},
{
closed = 1;
nodes = (
(666,750,q),
(499,812,o),
(422,878,qs),
(334,953,o),
(334,1055,qs),
(334,1147,o),
(465,1276,o),
(567,1276,qs),
(672,1276,o),
(740,1211,qs),
(813,1142,o),
(813,1022,qs),
(813,856,o)
);
},
{
closed = 1;
nodes = (
(774,159,qs),
(695,86,o),
(567,86,qs),
(423,86,o),
(344,167,qs),
(268,245,o),
(268,379,qs),
(268,556,o),
(449,655,q),
(680,564,o),
(744,520,qs),
(850,449,o),
(850,336,qs),
(850,230,o)
);
}
);
userData = {
assembly = "PUSHW[ ]	/* 4 values pushed */
42 6 6 4
CALL[ ]	/* CallFunction */
PUSHW[ ]	/* 4 values pushed */
19 6 23 4
CALL[ ]	/* CallFunction */
NPUSHW[ ]	/* 5 values pushed */
218 23 234 23 2
DELTAP1[ ]	/* DeltaExceptionP1 */
NPUSHW[ ]	/* 15 values pushed */
105 23 121 23 137 23 153 23 169 23 185 23 201 23 7
DELTAP1[ ]	/* DeltaExceptionP1 */
PUSHW[ ]	/* 3 values pushed */
36 23 19
SRP1[ ]	/* SetRefPoint1 */
SRP2[ ]	/* SetRefPoint2 */
IP[ ]	/* InterpolatePts */
PUSHW[ ]	/* 1 value pushed */
36
MDAP[1]	/* MoveDirectAbsPt */
NPUSHW[ ]	/* 5 values pushed */
218 36 234 36 2
DELTAP1[ ]	/* DeltaExceptionP1 */
NPUSHW[ ]	/* 15 values pushed */
105 36 121 36 137 36 153 36 169 36 185 36 201 36 7
DELTAP1[ ]	/* DeltaExceptionP1 */
PUSHW[ ]	/* 2 values pushed */
0 6
MIRP[11100]	/* MoveIndirectRelPt */
PUSHW[ ]	/* 3 values pushed */
8 6 0
SRP1[ ]	/* SetRefPoint1 */
SRP2[ ]	/* SetRefPoint2 */
IP[ ]	/* InterpolatePts */
NPUSHW[ ]	/* 15 values pushed */
102 42 118 42 134 42 150 42 166 42 182 42 198 42 7
DELTAP1[ ]	/* DeltaExceptionP1 */
NPUSHW[ ]	/* 5 values pushed */
213 42 229 42 2
DELTAP1[ ]	/* DeltaExceptionP1 */
PUSHW[ ]	/* 3 values pushed */
12 6 42
SRP1[ ]	/* SetRefPoint1 */
SRP2[ ]	/* SetRefPoint2 */
IP[ ]	/* InterpolatePts */
PUSHW[ ]	/* 1 value pushed */
12
MDAP[1]	/* MoveDirectAbsPt */
PUSHW[ ]	/* 3 values pushed */
21 6 0
SRP1[ ]	/* SetRefPoint1 */
SRP2[ ]	/* SetRefPoint2 */
IP[ ]	/* InterpolatePts */
PUSHW[ ]	/* 2 values pushed */
30 6
MIRP[11100]	/* MoveIndirectRelPt */
SVTCA[0]	/* SetFreedomAndProjectionVectorToAxis */
PUSHW[ ]	/* 4 values pushed */
46 2 3 4
CALL[ ]	/* CallFunction */
PUSHW[ ]	/* 4 values pushed */
16 2 27 4
CALL[ ]	/* CallFunction */
IUP[0]	/* InterpolateUntPts */
IUP[1]	/* InterpolateUntPts */";
};
width = 1135;
},
{
layerId = m002;
shapes = (
{
closed = 1;
nodes = (
(754,713,q),
(997,830,o),
(997,1040,qs),
(997,1187,o),
(752,1378,o),
(567,1378,qs),
(372,1378,o),
(254,1280,qs),
(135,1179,o),
(135,1008,qs),
(135,898,o),
(210,811,qs),
(273,740,o),
(369,700,q),
(82,594,o),
(82,365,qs),
(82,191,o),
(346,-25,o),
(567,-25,qs),
(776,-25,o),
(1055,198,o),
(1055,369,qs),
(1055,603,o)
);
},
{
closed = 1;
nodes = (
(666,750,q),
(499,812,o),
(422,878,qs),
(334,953,o),
(334,1055,qs),
(334,1147,o),
(465,1276,o),
(567,1276,qs),
(672,1276,o),
(740,1211,qs),
(813,1142,o),
(813,1022,qs),
(813,856,o)
);
},
{
closed = 1;
nodes = (
(774,159,qs),
(695,86,o),
(567,86,qs),
(423,86,o),
(344,167,qs),
(268,245,o),
(268,379,qs),
(268,556,o),
(449,655,q),
(680,564,o),
(744,520,qs),
(850,449,o),
(850,336,qs),
(850,230,o)
);
}
);
userData = {
assembly = "PUSHW[ ]	/* 4 values pushed */
42 6 6 4
CALL[ ]	/* CallFunction */
PUSHW[ ]	/* 4 values pushed */
19 6 23 4
CALL[ ]	/* CallFunction */
NPUSHW[ ]	/* 5 values pushed */
218 23 234 23 2
DELTAP1[ ]	/* DeltaExceptionP1 */
NPUSHW[ ]	/* 15 values pushed */
105 23 121 23 137 23 153 23 169 23 185 23 201 23 7
DELTAP1[ ]	/* DeltaExceptionP1 */
PUSHW[ ]	/* 3 values pushed */
36 23 19
SRP1[ ]	/* SetRefPoint1 */
SRP2[ ]	/* SetRefPoint2 */
IP[ ]	/* InterpolatePts */
PUSHW[ ]	/* 1 value pushed */
36
MDAP[1]	/* MoveDirectAbsPt */
NPUSHW[ ]	/* 5 values pushed */
218 36 234 36 2
DELTAP1[ ]	/* DeltaExceptionP1 */
NPUSHW[ ]	/* 15 values pushed */
105 36 121 36 137 36 153 36 169 36 185 36 201 36 7
DELTAP1[ ]	/* DeltaExceptionP1 */
PUSHW[ ]	/* 2 values pushed */
0 6
MIRP[11100]	/* MoveIndirectRelPt */
PUSHW[ ]	/* 3 values pushed */
8 6 0
SRP1[ ]	/* SetRefPoint1 */
SRP2[ ]	/* SetRefPoint2 */
IP[ ]	/* InterpolatePts */
NPUSHW[ ]	/* 15 values pushed */
102 42 118 42 134 42 150 42 166 42 182 42 198 42 7
DELTAP1[ ]	/* DeltaExceptionP1 */
NPUSHW[ ]	/* 5 values pushed */
213 42 229 42 2
DELTAP1[ ]	/* DeltaExceptionP1 */
PUSHW[ ]	/* 3 values pushed */
12 6 42
SRP1[ ]	/* SetRefPoint1 */
SRP2[ ]	/* SetRefPoint2 */
IP[ ]	/* InterpolatePts */
PUSHW[ ]	/* 1 value pushed */
12
MDAP[1]	/* MoveDirectAbsPt */
PUSHW[ ]	/* 3 values pushed */
21 6 0
SRP1[ ]	/* SetRefPoint1 */
SRP2[ ]	/* SetRefPoint2 */
IP[ ]	/* InterpolatePts */
PUSHW[ ]	/* 2 values pushed */
30 6
MIRP[11100]	/* MoveIndirectRelPt */
SVTCA[0]	/* SetFreedomAndProjectionVectorToAxis */
PUSHW[ ]	/* 4 values pushed */
46 2 3 4
CALL[ ]	/* CallFunction */
PUSHW[ ]	/* 4 values pushed */
16 2 27 4
CALL[ ]	/* CallFunction */
IUP[0]	/* InterpolateUntPts */
IUP[1]	/* InterpolateUntPts */";
};
width = 1135;
}
);
note = eight;
unicode = 56;
},
{
glyphname = nine;
lastChange = "2025-08-23 01:57:26 +0000";
layers = (
{
layerId = m01;
shapes = (
{
closed = 1;
nodes = (
(915,1242,qs),
(790,1378,o),
(569,1378,qs),
(361,1378,o),
(222,1245,qs),
(80,1108,o),
(80,891,qs),
(80,709,o),
(312,471,o),
(500,471,qs),
(689,471,o),
(838,600,q),
(806,364,o),
(656,226,qs),
(512,93,o),
(315,98,qs),
(246,100,l),
(246,-25,l),
(626,-25,o),
(843,194,qs),
(1057,409,o),
(1057,774,qs),
(1057,1088,o)
);
},
{
closed = 1;
nodes = (
(844,705,q),
(706,602,o),
(569,602,qs),
(436,602,o),
(285,770,o),
(285,918,qs),
(285,1077,o),
(355,1172,qs),
(430,1274,o),
(569,1274,qs),
(848,1274,o),
(848,815,qs),
(848,748,o)
);
}
);
userData = {
assembly = "PUSHW[ ]	/* 1 value pushed */
36
MDAP[1]	/* MoveDirectAbsPt */
PUSHW[ ]	/* 1 value pushed */
37
MDAP[1]	/* MoveDirectAbsPt */
PUSHW[ ]	/* 1 value pushed */
0
MDRP[11100]	/* MoveDirectRelPt */
PUSHW[ ]	/* 2 values pushed */
23 6
MIRP[11100]	/* MoveIndirectRelPt */
NPUSHW[ ]	/* 5 values pushed */
218 23 234 23 2
DELTAP1[ ]	/* DeltaExceptionP1 */
NPUSHW[ ]	/* 15 values pushed */
105 23 121 23 137 23 153 23 169 23 185 23 201 23 7
DELTAP1[ ]	/* DeltaExceptionP1 */
PUSHW[ ]	/* 1 value pushed */
2
MDRP[10000]	/* MoveDirectRelPt */
PUSHW[ ]	/* 1 value pushed */
2
MDAP[1]	/* MoveDirectAbsPt */
PUSHW[ ]	/* 1 value pushed */
23
SRP0[ ]	/* SetRefPoint0 */
PUSHW[ ]	/* 1 value pushed */
10
MDRP[10000]	/* MoveDirectRelPt */
PUSHW[ ]	/* 1 value pushed */
10
MDAP[1]	/* MoveDirectAbsPt */
PUSHW[ ]	/* 1 value pushed */
36
SRP0[ ]	/* SetRefPoint0 */
PUSHW[ ]	/* 1 value pushed */
15
MDRP[10000]	/* MoveDirectRelPt */
PUSHW[ ]	/* 1 value pushed */
15
MDAP[1]	/* MoveDirectAbsPt */
PUSHW[ ]	/* 2 values pushed */
29 6
MIRP[11100]	/* MoveIndirectRelPt */
NPUSHW[ ]	/* 15 values pushed */
102 29 118 29 134 29 150 29 166 29 182 29 198 29 7
DELTAP1[ ]	/* DeltaExceptionP1 */
NPUSHW[ ]	/* 5 values pushed */
213 29 229 29 2
DELTAP1[ ]	/* DeltaExceptionP1 */
PUSHW[ ]	/* 1 value pushed */
23
SRP0[ ]	/* SetRefPoint0 */
PUSHW[ ]	/* 1 value pushed */
34
MDRP[10000]	/* MoveDirectRelPt */
PUSHW[ ]	/* 1 value pushed */
34
MDAP[1]	/* MoveDirectAbsPt */
SVTCA[0]	/* SetFreedomAndProjectionVectorToAxis */
PUSHW[ ]	/* 4 values pushed */
6 2 4 4
CALL[ ]	/* CallFunction */
PUSHW[ ]	/* 4 values pushed */
19 2 25 4
CALL[ ]	/* CallFunction */
PUSHW[ ]	/* 4 values pushed */
32 2 12 4
CALL[ ]	/* CallFunction */
PUSHW[ ]	/* 3 values pushed */
10 12 32
SRP1[ ]	/* SetRefPoint1 */
SRP2[ ]	/* SetRefPoint2 */
IP[ ]	/* InterpolatePts */
IUP[0]	/* InterpolateUntPts */
IUP[1]	/* InterpolateUntPts */";
};
width = 1135;
},
{
layerId = m002;
shapes = (
{
closed = 1;
nodes = (
(915,1242,qs),
(790,1378,o),
(569,1378,qs),
(361,1378,o),
(222,1245,qs),
(80,1108,o),
(80,891,qs),
(80,709,o),
(312,471,o),
(500,471,qs),
(689,471,o),
(838,600,q),
(806,364,o),
(656,226,qs),
(512,93,o),
(315,98,qs),
(246,100,l),
(246,-25,l),
(626,-25,o),
(843,194,qs),
(1057,409,o),
(1057,774,qs),
(1057,1088,o)
);
},
{
closed = 1;
nodes = (
(844,705,q),
(706,602,o),
(569,602,qs),
(436,602,o),
(285,770,o),
(285,918,qs),
(285,1077,o),
(355,1172,qs),
(430,1274,o),
(569,1274,qs),
(848,1274,o),
(848,815,qs),
(848,748,o)
);
}
);
userData = {
assembly = "PUSHW[ ]	/* 1 value pushed */
36
MDAP[1]	/* MoveDirectAbsPt */
PUSHW[ ]	/* 1 value pushed */
37
MDAP[1]	/* MoveDirectAbsPt */
PUSHW[ ]	/* 1 value pushed */
0
MDRP[11100]	/* MoveDirectRelPt */
PUSHW[ ]	/* 2 values pushed */
23 6
MIRP[11100]	/* MoveIndirectRelPt */
NPUSHW[ ]	/* 5 values pushed */
218 23 234 23 2
DELTAP1[ ]	/* DeltaExceptionP1 */
NPUSHW[ ]	/* 15 values pushed */
105 23 121 23 137 23 153 23 169 23 185 23 201 23 7
DELTAP1[ ]	/* DeltaExceptionP1 */
PUSHW[ ]	/* 1 value pushed */
2
MDRP[10000]	/* MoveDirectRelPt */
PUSHW[ ]	/* 1 value pushed */
2
MDAP[1]	/* MoveDirectAbsPt */
PUSHW[ ]	/* 1 value pushed */
23
SRP0[ ]	/* SetRefPoint0 */
PUSHW[ ]	/* 1 value pushed */
10
MDRP[10000]	/* MoveDirectRelPt */
PUSHW[ ]	/* 1 value pushed */
10
MDAP[1]	/* MoveDirectAbsPt */
PUSHW[ ]	/* 1 value pushed */
36
SRP0[ ]	/* SetRefPoint0 */
PUSHW[ ]	/* 1 value pushed */
15
MDRP[10000]	/* MoveDirectRelPt */
PUSHW[ ]	/* 1 value pushed */
15
MDAP[1]	/* MoveDirectAbsPt */
PUSHW[ ]	/* 2 values pushed */
29 6
MIRP[11100]	/* MoveIndirectRelPt */
NPUSHW[ ]	/* 15 values pushed */
102 29 118 29 134 29 150 29 166 29 182 29 198 29 7
DELTAP1[ ]	/* DeltaExceptionP1 */
NPUSHW[ ]	/* 5 values pushed */
213 29 229 29 2
DELTAP1[ ]	/* DeltaExceptionP1 */
PUSHW[ ]	/* 1 value pushed */
23
SRP0[ ]	/* SetRefPoint0 */
PUSHW[ ]	/* 1 value pushed */
34
MDRP[10000]	/* MoveDirectRelPt */
PUSHW[ ]	/* 1 value pushed */
34
MDAP[1]	/* MoveDirectAbsPt */
SVTCA[0]	/* SetFreedomAndProjectionVectorToAxis */
PUSHW[ ]	/* 4 values pushed */
6 2 4 4
CALL[ ]	/* CallFunction */
PUSHW[ ]	/* 4 values pushed */
19 2 25 4
CALL[ ]	/* CallFunction */
PUSHW[ ]	/* 4 values pushed */
32 2 12 4
CALL[ ]	/* CallFunction */
PUSHW[ ]	/* 3 values pushed */
10 12 32
SRP1[ ]	/* SetRefPoint1 */
SRP2[ ]	/* SetRefPoint2 */
IP[ ]	/* InterpolatePts */
IUP[0]	/* InterpolateUntPts */
IUP[1]	/* InterpolateUntPts */";
};
width = 1135;
}
);
note = nine;
unicode = 57;
},
{
glyphname = colon;
lastChange = "2025-08-23 01:57:26 +0000";
layers = (
{
layerId = m01;
shapes = (
{
closed = 1;
nodes = (
(358,987,o),
(301,987,qs),
(204,987,o),
(126,908,o),
(126,850,qs),
(126,743,o),
(204,663,o),
(301,663,qs),
(358,663,o),
(438,743,o),
(438,850,qs),
(438,907,o)
);
},
{
closed = 1;
nodes = (
(359,308,o),
(301,308,qs),
(204,308,o),
(126,228,o),
(126,121,qs),
(126,64,o),
(204,-16,o),
(301,-16,qs),
(358,-16,o),
(438,64,o),
(438,121,qs),
(438,228,o)
);
}
);
width = 600;
},
{
layerId = m002;
shapes = (
{
closed = 1;
nodes = (
(358,987,o),
(301,987,qs),
(204,987,o),
(126,908,o),
(126,850,qs),
(126,743,o),
(204,663,o),
(301,663,qs),
(358,663,o),
(438,743,o),
(438,850,qs),
(438,907,o)
);
},
{
closed = 1;
nodes = (
(359,308,o),
(301,308,qs),
(204,308,o),
(126,228,o),
(126,121,qs),
(126,64,o),
(204,-16,o),
(301,-16,qs),
(358,-16,o),
(438,64,o),
(438,121,qs),
(438,228,o)
);
}
);
width = 600;
}
);
note = colon;
unicode = 58;
},
{
glyphname = semicolon;
lastChange = "2025-08-23 01:57:26 +0000";
layers = (
{
layerId = m01;
shapes = (
{
closed = 1;
nodes = (
(289,836,q),
(218,713,o),
(100,645,q),
(220,576,o),
(289,457,q),
(359,578,o),
(475,645,q),
(361,711,o)
);
},
{
closed = 1;
nodes = (
(289,344,q),
(271,306,o),
(157,188,o),
(100,154,q),
(260,84,o),
(260,0,qs),
(260,-36,o),
(215,-100,o),
(215,-109,qs),
(215,-131,o),
(238,-131,qs),
(270,-131,o),
(351,-39,qs),
(442,65,o),
(442,147,qs),
(442,260,o)
);
}
);
userData = {
assembly = "SVTCA[0]	/* SetFreedomAndProjectionVectorToAxis */
PUSHW[ ]	/* 1 value pushed */
6
MDAP[1]	/* MoveDirectAbsPt */
PUSHW[ ]	/* 1 value pushed */
12
MDAP[1]	/* MoveDirectAbsPt */
PUSHW[ ]	/* 3 values pushed */
0 12 6
SRP1[ ]	/* SetRefPoint1 */
SRP2[ ]	/* SetRefPoint2 */
IP[ ]	/* InterpolatePts */
PUSHW[ ]	/* 3 values pushed */
2 12 6
SRP1[ ]	/* SetRefPoint1 */
SRP2[ ]	/* SetRefPoint2 */
IP[ ]	/* InterpolatePts */
PUSHW[ ]	/* 3 values pushed */
4 12 6
SRP1[ ]	/* SetRefPoint1 */
SRP2[ ]	/* SetRefPoint2 */
IP[ ]	/* InterpolatePts */
PUSHW[ ]	/* 3 values pushed */
19 12 6
SRP1[ ]	/* SetRefPoint1 */
SRP2[ ]	/* SetRefPoint2 */
IP[ ]	/* InterpolatePts */
IUP[0]	/* InterpolateUntPts */
IUP[1]	/* InterpolateUntPts */";
};
width = 592;
},
{
layerId = m002;
shapes = (
{
closed = 1;
nodes = (
(289,836,q),
(218,713,o),
(100,645,q),
(220,576,o),
(289,457,q),
(359,578,o),
(475,645,q),
(361,711,o)
);
},
{
closed = 1;
nodes = (
(289,344,q),
(271,306,o),
(157,188,o),
(100,154,q),
(260,84,o),
(260,0,qs),
(260,-36,o),
(215,-100,o),
(215,-109,qs),
(215,-131,o),
(238,-131,qs),
(270,-131,o),
(351,-39,qs),
(442,65,o),
(442,147,qs),
(442,260,o)
);
}
);
userData = {
assembly = "SVTCA[0]	/* SetFreedomAndProjectionVectorToAxis */
PUSHW[ ]	/* 1 value pushed */
6
MDAP[1]	/* MoveDirectAbsPt */
PUSHW[ ]	/* 1 value pushed */
12
MDAP[1]	/* MoveDirectAbsPt */
PUSHW[ ]	/* 3 values pushed */
0 12 6
SRP1[ ]	/* SetRefPoint1 */
SRP2[ ]	/* SetRefPoint2 */
IP[ ]	/* InterpolatePts */
PUSHW[ ]	/* 3 values pushed */
2 12 6
SRP1[ ]	/* SetRefPoint1 */
SRP2[ ]	/* SetRefPoint2 */
IP[ ]	/* InterpolatePts */
PUSHW[ ]	/* 3 values pushed */
4 12 6
SRP1[ ]	/* SetRefPoint1 */
SRP2[ ]	/* SetRefPoint2 */
IP[ ]	/* InterpolatePts */
PUSHW[ ]	/* 3 values pushed */
19 12 6
SRP1[ ]	/* SetRefPoint1 */
SRP2[ ]	/* SetRefPoint2 */
IP[ ]	/* InterpolatePts */
IUP[0]	/* InterpolateUntPts */
IUP[1]	/* InterpolateUntPts */";
};
width = 592;
}
);
note = semicolon;
unicode = 59;
},
{
glyphname = less;
lastChange = "2025-08-23 01:57:26 +0000";
layers = (
{
layerId = m01;
shapes = (
{
closed = 1;
nodes = (
(442,610,l),
(1442,1018,l),
(1442,1145,l),
(264,662,l),
(264,557,l),
(1442,76,l),
(1442,205,l)
);
}
);
userData = {
assembly = "SVTCA[0]	/* SetFreedomAndProjectionVectorToAxis */
PUSHW[ ]	/* 1 value pushed */
3
MDAP[1]	/* MoveDirectAbsPt */
PUSHW[ ]	/* 1 value pushed */
0
MDAP[1]	/* MoveDirectAbsPt */
PUSHW[ ]	/* 3 values pushed */
5 0 3
SRP1[ ]	/* SetRefPoint1 */
SRP2[ ]	/* SetRefPoint2 */
IP[ ]	/* InterpolatePts */
IUP[0]	/* InterpolateUntPts */
IUP[1]	/* InterpolateUntPts */";
};
width = 1706;
},
{
layerId = m002;
shapes = (
{
closed = 1;
nodes = (
(442,610,l),
(1442,1018,l),
(1442,1145,l),
(264,662,l),
(264,557,l),
(1442,76,l),
(1442,205,l)
);
}
);
userData = {
assembly = "SVTCA[0]	/* SetFreedomAndProjectionVectorToAxis */
PUSHW[ ]	/* 1 value pushed */
3
MDAP[1]	/* MoveDirectAbsPt */
PUSHW[ ]	/* 1 value pushed */
0
MDAP[1]	/* MoveDirectAbsPt */
PUSHW[ ]	/* 3 values pushed */
5 0 3
SRP1[ ]	/* SetRefPoint1 */
SRP2[ ]	/* SetRefPoint2 */
IP[ ]	/* InterpolatePts */
IUP[0]	/* InterpolateUntPts */
IUP[1]	/* InterpolateUntPts */";
};
width = 1706;
}
);
note = less;
unicode = 60;
},
{
glyphname = equal;
lastChange = "2025-08-23 01:57:26 +0000";
layers = (
{
layerId = m01;
shapes = (
{
closed = 1;
nodes = (
(254,860,l),
(254,743,l),
(1452,743,l),
(1452,860,l)
);
},
{
closed = 1;
nodes = (
(254,477,l),
(254,360,l),
(1452,360,l),
(1452,477,l)
);
}
);
userData = {
assembly = "SVTCA[0]	/* SetFreedomAndProjectionVectorToAxis */
PUSHW[ ]	/* 4 values pushed */
7 2 4 4
CALL[ ]	/* CallFunction */
PUSHW[ ]	/* 4 values pushed */
3 2 0 4
CALL[ ]	/* CallFunction */
IUP[0]	/* InterpolateUntPts */
IUP[1]	/* InterpolateUntPts */";
};
width = 1706;
},
{
layerId = m002;
shapes = (
{
closed = 1;
nodes = (
(254,860,l),
(254,743,l),
(1452,743,l),
(1452,860,l)
);
},
{
closed = 1;
nodes = (
(254,477,l),
(254,360,l),
(1452,360,l),
(1452,477,l)
);
}
);
userData = {
assembly = "SVTCA[0]	/* SetFreedomAndProjectionVectorToAxis */
PUSHW[ ]	/* 4 values pushed */
7 2 4 4
CALL[ ]	/* CallFunction */
PUSHW[ ]	/* 4 values pushed */
3 2 0 4
CALL[ ]	/* CallFunction */
IUP[0]	/* InterpolateUntPts */
IUP[1]	/* InterpolateUntPts */";
};
width = 1706;
}
);
note = equal;
unicode = 61;
},
{
glyphname = greater;
lastChange = "2025-08-23 01:57:26 +0000";
layers = (
{
layerId = m01;
shapes = (
{
closed = 1;
nodes = (
(264,1145,l),
(264,1018,l),
(1264,610,l),
(264,205,l),
(264,76,l),
(1442,557,l),
(1442,662,l)
);
}
);
userData = {
assembly = "SVTCA[0]	/* SetFreedomAndProjectionVectorToAxis */
PUSHW[ ]	/* 1 value pushed */
5
MDAP[1]	/* MoveDirectAbsPt */
PUSHW[ ]	/* 1 value pushed */
1
MDAP[1]	/* MoveDirectAbsPt */
PUSHW[ ]	/* 3 values pushed */
3 1 5
SRP1[ ]	/* SetRefPoint1 */
SRP2[ ]	/* SetRefPoint2 */
IP[ ]	/* InterpolatePts */
IUP[0]	/* InterpolateUntPts */
IUP[1]	/* InterpolateUntPts */";
};
width = 1706;
},
{
layerId = m002;
shapes = (
{
closed = 1;
nodes = (
(264,1145,l),
(264,1018,l),
(1264,610,l),
(264,205,l),
(264,76,l),
(1442,557,l),
(1442,662,l)
);
}
);
userData = {
assembly = "SVTCA[0]	/* SetFreedomAndProjectionVectorToAxis */
PUSHW[ ]	/* 1 value pushed */
5
MDAP[1]	/* MoveDirectAbsPt */
PUSHW[ ]	/* 1 value pushed */
1
MDAP[1]	/* MoveDirectAbsPt */
PUSHW[ ]	/* 3 values pushed */
3 1 5
SRP1[ ]	/* SetRefPoint1 */
SRP2[ ]	/* SetRefPoint2 */
IP[ ]	/* InterpolatePts */
IUP[0]	/* InterpolateUntPts */
IUP[1]	/* InterpolateUntPts */";
};
width = 1706;
}
);
note = greater;
unicode = 62;
},
{
glyphname = question;
lastChange = "2025-08-23 01:57:26 +0000";
layers = (
{
layerId = m01;
shapes = (
{
closed = 1;
nodes = (
(797,1345,qs),
(674,1448,o),
(483,1448,qs),
(321,1448,o),
(229,1381,qs),
(147,1323,o),
(147,1239,qs),
(147,1124,o),
(285,1124,q),
(319,1126,l),
(408,1344,l),
(709,1344,o),
(709,1051,qs),
(709,907,o),
(606,803,qs),
(525,721,o),
(401,680,q),
(401,375,l),
(520,375,l),
(520,608,l),
(694,685,o),
(783,765,qs),
(924,892,o),
(924,1069,qs),
(924,1239,o)
);
},
{
closed = 1;
nodes = (
(518,246,o),
(463,246,qs),
(409,246,o),
(334,169,o),
(334,115,qs),
(334,61,o),
(409,-16,o),
(463,-16,qs),
(517,-16,o),
(596,59,o),
(596,113,qs),
(596,168,o)
);
}
);
userData = {
assembly = "PUSHW[ ]	/* 3 values pushed */
25 31 3
CALL[ ]	/* CallFunction */
PUSHW[ ]	/* 3 values pushed */
0 11 3
CALL[ ]	/* CallFunction */
SVTCA[0]	/* SetFreedomAndProjectionVectorToAxis */
PUSHW[ ]	/* 3 values pushed */
13 21 3
CALL[ ]	/* CallFunction */
PUSHW[ ]	/* 3 values pushed */
34 28 3
CALL[ ]	/* CallFunction */
PUSHW[ ]	/* 1 value pushed */
34
SRP0[ ]	/* SetRefPoint0 */
PUSHW[ ]	/* 1 value pushed */
5
MDRP[11100]	/* MoveDirectRelPt */
IUP[0]	/* InterpolateUntPts */
IUP[1]	/* InterpolateUntPts */";
};
width = 1071;
},
{
layerId = m002;
shapes = (
{
closed = 1;
nodes = (
(797,1345,qs),
(674,1448,o),
(483,1448,qs),
(321,1448,o),
(229,1381,qs),
(147,1323,o),
(147,1239,qs),
(147,1124,o),
(285,1124,q),
(319,1126,l),
(408,1344,l),
(709,1344,o),
(709,1051,qs),
(709,907,o),
(606,803,qs),
(525,721,o),
(401,680,q),
(401,375,l),
(520,375,l),
(520,608,l),
(694,685,o),
(783,765,qs),
(924,892,o),
(924,1069,qs),
(924,1239,o)
);
},
{
closed = 1;
nodes = (
(518,246,o),
(463,246,qs),
(409,246,o),
(334,169,o),
(334,115,qs),
(334,61,o),
(409,-16,o),
(463,-16,qs),
(517,-16,o),
(596,59,o),
(596,113,qs),
(596,168,o)
);
}
);
userData = {
assembly = "PUSHW[ ]	/* 3 values pushed */
25 31 3
CALL[ ]	/* CallFunction */
PUSHW[ ]	/* 3 values pushed */
0 11 3
CALL[ ]	/* CallFunction */
SVTCA[0]	/* SetFreedomAndProjectionVectorToAxis */
PUSHW[ ]	/* 3 values pushed */
13 21 3
CALL[ ]	/* CallFunction */
PUSHW[ ]	/* 3 values pushed */
34 28 3
CALL[ ]	/* CallFunction */
PUSHW[ ]	/* 1 value pushed */
34
SRP0[ ]	/* SetRefPoint0 */
PUSHW[ ]	/* 1 value pushed */
5
MDRP[11100]	/* MoveDirectRelPt */
IUP[0]	/* InterpolateUntPts */
IUP[1]	/* InterpolateUntPts */";
};
width = 1071;
}
);
note = question;
unicode = 63;
},
{
glyphname = at;
lastChange = "2025-08-23 01:57:26 +0000";
layers = (
{
layerId = m01;
shapes = (
{
closed = 1;
nodes = (
(1579,1248,qs),
(1390,1415,o),
(1077,1415,qs),
(707,1415,o),
(445,1179,qs),
(156,919,o),
(156,489,qs),
(156,127,o),
(399,-99,qs),
(630,-313,o),
(971,-313,qs),
(1254,-313,o),
(1591,-133,q),
(1561,-59,l),
(1288,-211,o),
(1020,-211,qs),
(689,-211,o),
(492,1,qs),
(303,204,o),
(303,526,qs),
(303,870,o),
(754,1325,o),
(1102,1325,qs),
(1338,1325,o),
(1498,1188,qs),
(1677,1034,o),
(1677,762,qs),
(1677,537,o),
(1565,374,qs),
(1466,231,o),
(1362,231,qs),
(1278,231,o),
(1278,326,qs),
(1278,355,o),
(1286,391,qs),
(1417,969,o),
(1427,999,q),
(1311,999,l),
(1274,952,l),
(1173,1008,o),
(1073,1008,qs),
(875,1008,o),
(722,847,qs),
(565,681,o),
(565,451,qs),
(565,299,o),
(708,117,o),
(821,117,qs),
(948,117,o),
(1116,285,q),
(1116,115,o),
(1276,115,qs),
(1451,115,o),
(1603,284,qs),
(1776,476,o),
(1776,764,qs),
(1776,1073,o)
);
},
{
closed = 1;
nodes = (
(1015,248,o),
(913,248,qs),
(752,248,o),
(752,469,qs),
(752,661,o),
(841,789,qs),
(934,922,o),
(1083,922,qs),
(1134,922,o),
(1174,877,qs),
(1210,835,o),
(1204,805,qs),
(1122,381,l)
);
}
);
userData = {
assembly = "PUSHW[ ]	/* 4 values pushed */
36 5 49 4
CALL[ ]	/* CallFunction */
PUSHW[ ]	/* 4 values pushed */
65 6 11 4
CALL[ ]	/* CallFunction */
PUSHW[ ]	/* 4 values pushed */
0 5 29 4
CALL[ ]	/* CallFunction */
PUSHW[ ]	/* 3 values pushed */
6 49 0
SRP1[ ]	/* SetRefPoint1 */
SRP2[ ]	/* SetRefPoint2 */
IP[ ]	/* InterpolatePts */
PUSHW[ ]	/* 3 values pushed */
19 49 0
SRP1[ ]	/* SetRefPoint1 */
SRP2[ ]	/* SetRefPoint2 */
IP[ ]	/* InterpolatePts */
NPUSHW[ ]	/* 5 values pushed */
106 29 122 29 2
DELTAP2[ ]	/* DeltaExceptionP2 */
NPUSHW[ ]	/* 21 values pushed */
105 29 121 29 137 29 153 29 169 29 185 29 201 29 217 29 233 29 249 29 10
DELTAP1[ ]	/* DeltaExceptionP1 */
NPUSHW[ ]	/* 13 values pushed */
9 29 25 29 41 29 57 29 73 29 89 29 6
DELTAP2[ ]	/* DeltaExceptionP2 */
NPUSHW[ ]	/* 21 values pushed */
102 36 118 36 134 36 150 36 166 36 182 36 198 36 214 36 230 36 246 36 10
DELTAP1[ ]	/* DeltaExceptionP1 */
NPUSHW[ ]	/* 13 values pushed */
6 36 22 36 38 36 54 36 70 36 86 36 6
DELTAP2[ ]	/* DeltaExceptionP2 */
NPUSHW[ ]	/* 5 values pushed */
101 36 117 36 2
DELTAP2[ ]	/* DeltaExceptionP2 */
NPUSHW[ ]	/* 15 values pushed */
102 65 118 65 134 65 150 65 166 65 182 65 198 65 7
DELTAP1[ ]	/* DeltaExceptionP1 */
NPUSHW[ ]	/* 5 values pushed */
213 65 229 65 2
DELTAP1[ ]	/* DeltaExceptionP1 */
SVTCA[0]	/* SetFreedomAndProjectionVectorToAxis */
PUSHW[ ]	/* 4 values pushed */
40 2 45 4
CALL[ ]	/* CallFunction */
PUSHW[ ]	/* 4 values pushed */
53 2 33 4
CALL[ ]	/* CallFunction */
PUSHW[ ]	/* 4 values pushed */
67 2 8 4
CALL[ ]	/* CallFunction */
PUSHW[ ]	/* 4 values pushed */
18 1 61 4
CALL[ ]	/* CallFunction */
PUSHW[ ]	/* 1 value pushed */
8
SRP0[ ]	/* SetRefPoint0 */
PUSHW[ ]	/* 1 value pushed */
4
MDRP[10000]	/* MoveDirectRelPt */
PUSHW[ ]	/* 1 value pushed */
4
MDAP[1]	/* MoveDirectAbsPt */
PUSHW[ ]	/* 1 value pushed */
18
SRP0[ ]	/* SetRefPoint0 */
PUSHW[ ]	/* 1 value pushed */
15
MDRP[10000]	/* MoveDirectRelPt */
PUSHW[ ]	/* 1 value pushed */
15
MDAP[1]	/* MoveDirectAbsPt */
PUSHW[ ]	/* 1 value pushed */
8
SRP0[ ]	/* SetRefPoint0 */
PUSHW[ ]	/* 2 values pushed */
25 2
MIRP[11100]	/* MoveIndirectRelPt */
IUP[0]	/* InterpolateUntPts */
IUP[1]	/* InterpolateUntPts */";
};
width = 1917;
},
{
layerId = m002;
shapes = (
{
closed = 1;
nodes = (
(1579,1248,qs),
(1390,1415,o),
(1077,1415,qs),
(707,1415,o),
(445,1179,qs),
(156,919,o),
(156,489,qs),
(156,127,o),
(399,-99,qs),
(630,-313,o),
(971,-313,qs),
(1254,-313,o),
(1591,-133,q),
(1561,-59,l),
(1288,-211,o),
(1020,-211,qs),
(689,-211,o),
(492,1,qs),
(303,204,o),
(303,526,qs),
(303,870,o),
(754,1325,o),
(1102,1325,qs),
(1338,1325,o),
(1498,1188,qs),
(1677,1034,o),
(1677,762,qs),
(1677,537,o),
(1565,374,qs),
(1466,231,o),
(1362,231,qs),
(1278,231,o),
(1278,326,qs),
(1278,355,o),
(1286,391,qs),
(1417,969,o),
(1427,999,q),
(1311,999,l),
(1274,952,l),
(1173,1008,o),
(1073,1008,qs),
(875,1008,o),
(722,847,qs),
(565,681,o),
(565,451,qs),
(565,299,o),
(708,117,o),
(821,117,qs),
(948,117,o),
(1116,285,q),
(1116,115,o),
(1276,115,qs),
(1451,115,o),
(1603,284,qs),
(1776,476,o),
(1776,764,qs),
(1776,1073,o)
);
},
{
closed = 1;
nodes = (
(1015,248,o),
(913,248,qs),
(752,248,o),
(752,469,qs),
(752,661,o),
(841,789,qs),
(934,922,o),
(1083,922,qs),
(1134,922,o),
(1174,877,qs),
(1210,835,o),
(1204,805,qs),
(1122,381,l)
);
}
);
userData = {
assembly = "PUSHW[ ]	/* 4 values pushed */
36 5 49 4
CALL[ ]	/* CallFunction */
PUSHW[ ]	/* 4 values pushed */
65 6 11 4
CALL[ ]	/* CallFunction */
PUSHW[ ]	/* 4 values pushed */
0 5 29 4
CALL[ ]	/* CallFunction */
PUSHW[ ]	/* 3 values pushed */
6 49 0
SRP1[ ]	/* SetRefPoint1 */
SRP2[ ]	/* SetRefPoint2 */
IP[ ]	/* InterpolatePts */
PUSHW[ ]	/* 3 values pushed */
19 49 0
SRP1[ ]	/* SetRefPoint1 */
SRP2[ ]	/* SetRefPoint2 */
IP[ ]	/* InterpolatePts */
NPUSHW[ ]	/* 5 values pushed */
106 29 122 29 2
DELTAP2[ ]	/* DeltaExceptionP2 */
NPUSHW[ ]	/* 21 values pushed */
105 29 121 29 137 29 153 29 169 29 185 29 201 29 217 29 233 29 249 29 10
DELTAP1[ ]	/* DeltaExceptionP1 */
NPUSHW[ ]	/* 13 values pushed */
9 29 25 29 41 29 57 29 73 29 89 29 6
DELTAP2[ ]	/* DeltaExceptionP2 */
NPUSHW[ ]	/* 21 values pushed */
102 36 118 36 134 36 150 36 166 36 182 36 198 36 214 36 230 36 246 36 10
DELTAP1[ ]	/* DeltaExceptionP1 */
NPUSHW[ ]	/* 13 values pushed */
6 36 22 36 38 36 54 36 70 36 86 36 6
DELTAP2[ ]	/* DeltaExceptionP2 */
NPUSHW[ ]	/* 5 values pushed */
101 36 117 36 2
DELTAP2[ ]	/* DeltaExceptionP2 */
NPUSHW[ ]	/* 15 values pushed */
102 65 118 65 134 65 150 65 166 65 182 65 198 65 7
DELTAP1[ ]	/* DeltaExceptionP1 */
NPUSHW[ ]	/* 5 values pushed */
213 65 229 65 2
DELTAP1[ ]	/* DeltaExceptionP1 */
SVTCA[0]	/* SetFreedomAndProjectionVectorToAxis */
PUSHW[ ]	/* 4 values pushed */
40 2 45 4
CALL[ ]	/* CallFunction */
PUSHW[ ]	/* 4 values pushed */
53 2 33 4
CALL[ ]	/* CallFunction */
PUSHW[ ]	/* 4 values pushed */
67 2 8 4
CALL[ ]	/* CallFunction */
PUSHW[ ]	/* 4 values pushed */
18 1 61 4
CALL[ ]	/* CallFunction */
PUSHW[ ]	/* 1 value pushed */
8
SRP0[ ]	/* SetRefPoint0 */
PUSHW[ ]	/* 1 value pushed */
4
MDRP[10000]	/* MoveDirectRelPt */
PUSHW[ ]	/* 1 value pushed */
4
MDAP[1]	/* MoveDirectAbsPt */
PUSHW[ ]	/* 1 value pushed */
18
SRP0[ ]	/* SetRefPoint0 */
PUSHW[ ]	/* 1 value pushed */
15
MDRP[10000]	/* MoveDirectRelPt */
PUSHW[ ]	/* 1 value pushed */
15
MDAP[1]	/* MoveDirectAbsPt */
PUSHW[ ]	/* 1 value pushed */
8
SRP0[ ]	/* SetRefPoint0 */
PUSHW[ ]	/* 2 values pushed */
25 2
MIRP[11100]	/* MoveIndirectRelPt */
IUP[0]	/* InterpolateUntPts */
IUP[1]	/* InterpolateUntPts */";
};
width = 1917;
}
);
note = at;
unicode = 64;
},
{
glyphname = A;
lastChange = "2025-08-23 01:57:26 +0000";
layers = (
{
layerId = m01;
shapes = (
{
closed = 1;
nodes = (
(1268,104,ls),
(1246,108,o),
(1234,120,o),
(1225,143,qs),
(750,1391,l),
(596,1391,l),
(119,113,l),
(0,88,l),
(0,0,l),
(412,0,l),
(412,88,l),
(291,98,ls),
(261,100,o),
(261,133,qs),
(261,136,o),
(262,139,qs),
(397,508,l),
(872,508,l),
(1012,133,ls),
(1015,125,o),
(1000,99,o),
(991,98,qs),
(872,88,l),
(872,0,l),
(1360,0,l),
(1360,88,l)
);
},
{
closed = 1;
nodes = (
(631,1159,l),
(834,606,l),
(434,606,l)
);
}
);
userData = {
assembly = "SVTCA[0]	/* SetFreedomAndProjectionVectorToAxis */
PUSHW[ ]	/* 1 value pushed */
19
MDAP[1]	/* MoveDirectAbsPt */
PUSHW[ ]	/* 4 values pushed */
26 2 7 4
CALL[ ]	/* CallFunction */
IUP[0]	/* InterpolateUntPts */
IUP[1]	/* InterpolateUntPts */";
};
width = 1360;
},
{
layerId = m002;
shapes = (
{
closed = 1;
nodes = (
(1268,104,ls),
(1246,108,o),
(1234,120,o),
(1225,143,qs),
(750,1391,l),
(596,1391,l),
(119,113,l),
(0,88,l),
(0,0,l),
(412,0,l),
(412,88,l),
(291,98,ls),
(261,100,o),
(261,133,qs),
(261,136,o),
(262,139,qs),
(397,508,l),
(872,508,l),
(1012,133,ls),
(1015,125,o),
(1000,99,o),
(991,98,qs),
(872,88,l),
(872,0,l),
(1360,0,l),
(1360,88,l)
);
},
{
closed = 1;
nodes = (
(631,1159,l),
(834,606,l),
(434,606,l)
);
}
);
userData = {
assembly = "SVTCA[0]	/* SetFreedomAndProjectionVectorToAxis */
PUSHW[ ]	/* 1 value pushed */
19
MDAP[1]	/* MoveDirectAbsPt */
PUSHW[ ]	/* 4 values pushed */
26 2 7 4
CALL[ ]	/* CallFunction */
IUP[0]	/* InterpolateUntPts */
IUP[1]	/* InterpolateUntPts */";
};
width = 1360;
}
);
note = A;
unicode = 65;
},
{
glyphname = B;
lastChange = "2025-08-23 01:57:26 +0000";
layers = (
{
layerId = m01;
shapes = (
{
closed = 1;
nodes = (
(1038,658,qs),
(937,729,o),
(780,729,q),
(1075,804,o),
(1075,1044,qs),
(1075,1374,o),
(614,1374,qs),
(66,1374,l),
(66,1286,l),
(174,1278,ls),
(217,1275,o),
(217,1233,qs),
(217,141,ls),
(217,99,o),
(174,96,qs),
(66,88,l),
(66,0,l),
(639,0,ls),
(845,0,o),
(980,79,qs),
(1159,183,o),
(1159,406,qs),
(1159,573,o)
);
},
{
closed = 1;
nodes = (
(775,826,qs),
(689,754,o),
(496,754,qs),
(475,754,o),
(422,756,q),
(422,1274,l),
(426,1274,o),
(514,1280,o),
(539,1280,qs),
(854,1280,o),
(854,1030,qs),
(854,892,o)
);
},
{
closed = 1;
nodes = (
(850,172,qs),
(759,100,o),
(549,100,qs),
(513,100,o),
(422,106,q),
(422,647,l),
(421,647,o),
(565,659,o),
(606,659,qs),
(936,659,o),
(936,389,qs),
(936,239,o)
);
}
);
userData = {
assembly = "PUSHW[ ]	/* 4 values pushed */
41 6 9 4
CALL[ ]	/* CallFunction */
PUSHW[ ]	/* 4 values pushed */
17 6 23 4
CALL[ ]	/* CallFunction */
NPUSHW[ ]	/* 5 values pushed */
218 23 234 23 2
DELTAP1[ ]	/* DeltaExceptionP1 */
NPUSHW[ ]	/* 15 values pushed */
105 23 121 23 137 23 153 23 169 23 185 23 201 23 7
DELTAP1[ ]	/* DeltaExceptionP1 */
PUSHW[ ]	/* 3 values pushed */
35 23 17
SRP1[ ]	/* SetRefPoint1 */
SRP2[ ]	/* SetRefPoint2 */
IP[ ]	/* InterpolatePts */
PUSHW[ ]	/* 1 value pushed */
35
MDAP[1]	/* MoveDirectAbsPt */
NPUSHW[ ]	/* 5 values pushed */
218 35 234 35 2
DELTAP1[ ]	/* DeltaExceptionP1 */
NPUSHW[ ]	/* 15 values pushed */
105 35 121 35 137 35 153 35 169 35 185 35 201 35 7
DELTAP1[ ]	/* DeltaExceptionP1 */
PUSHW[ ]	/* 2 values pushed */
0 6
MIRP[11100]	/* MoveIndirectRelPt */
PUSHW[ ]	/* 3 values pushed */
19 9 0
SRP1[ ]	/* SetRefPoint1 */
SRP2[ ]	/* SetRefPoint2 */
IP[ ]	/* InterpolatePts */
PUSHW[ ]	/* 1 value pushed */
41
SRP0[ ]	/* SetRefPoint0 */
PUSHW[ ]	/* 1 value pushed */
28
MDRP[10000]	/* MoveDirectRelPt */
SVTCA[0]	/* SetFreedomAndProjectionVectorToAxis */
PUSHW[ ]	/* 4 values pushed */
43 2 4 4
CALL[ ]	/* CallFunction */
PUSHW[ ]	/* 4 values pushed */
15 2 25 4
CALL[ ]	/* CallFunction */
PUSHW[ ]	/* 4 values pushed */
31 2 37 4
CALL[ ]	/* CallFunction */
PUSHW[ ]	/* 1 value pushed */
43
SRP0[ ]	/* SetRefPoint0 */
PUSHW[ ]	/* 1 value pushed */
6
MDRP[10000]	/* MoveDirectRelPt */
PUSHW[ ]	/* 1 value pushed */
6
MDAP[1]	/* MoveDirectAbsPt */
PUSHW[ ]	/* 1 value pushed */
25
SRP0[ ]	/* SetRefPoint0 */
PUSHW[ ]	/* 1 value pushed */
12
MDRP[10000]	/* MoveDirectRelPt */
PUSHW[ ]	/* 1 value pushed */
12
MDAP[1]	/* MoveDirectAbsPt */
PUSHW[ ]	/* 3 values pushed */
19 37 31
SRP1[ ]	/* SetRefPoint1 */
SRP2[ ]	/* SetRefPoint2 */
IP[ ]	/* InterpolatePts */
PUSHW[ ]	/* 1 value pushed */
25
SRP0[ ]	/* SetRefPoint0 */
PUSHW[ ]	/* 1 value pushed */
28
MDRP[10000]	/* MoveDirectRelPt */
PUSHW[ ]	/* 1 value pushed */
28
MDAP[1]	/* MoveDirectAbsPt */
PUSHW[ ]	/* 1 value pushed */
31
SRP0[ ]	/* SetRefPoint0 */
PUSHW[ ]	/* 1 value pushed */
29
MDRP[10000]	/* MoveDirectRelPt */
PUSHW[ ]	/* 1 value pushed */
29
MDAP[1]	/* MoveDirectAbsPt */
PUSHW[ ]	/* 1 value pushed */
43
SRP0[ ]	/* SetRefPoint0 */
PUSHW[ ]	/* 1 value pushed */
41
MDRP[10000]	/* MoveDirectRelPt */
PUSHW[ ]	/* 1 value pushed */
41
MDAP[1]	/* MoveDirectAbsPt */
IUP[0]	/* InterpolateUntPts */
IUP[1]	/* InterpolateUntPts */";
};
width = 1247;
},
{
layerId = m002;
shapes = (
{
closed = 1;
nodes = (
(1038,658,qs),
(937,729,o),
(780,729,q),
(1075,804,o),
(1075,1044,qs),
(1075,1374,o),
(614,1374,qs),
(66,1374,l),
(66,1286,l),
(174,1278,ls),
(217,1275,o),
(217,1233,qs),
(217,141,ls),
(217,99,o),
(174,96,qs),
(66,88,l),
(66,0,l),
(639,0,ls),
(845,0,o),
(980,79,qs),
(1159,183,o),
(1159,406,qs),
(1159,573,o)
);
},
{
closed = 1;
nodes = (
(775,826,qs),
(689,754,o),
(496,754,qs),
(475,754,o),
(422,756,q),
(422,1274,l),
(426,1274,o),
(514,1280,o),
(539,1280,qs),
(854,1280,o),
(854,1030,qs),
(854,892,o)
);
},
{
closed = 1;
nodes = (
(850,172,qs),
(759,100,o),
(549,100,qs),
(513,100,o),
(422,106,q),
(422,647,l),
(421,647,o),
(565,659,o),
(606,659,qs),
(936,659,o),
(936,389,qs),
(936,239,o)
);
}
);
userData = {
assembly = "PUSHW[ ]	/* 4 values pushed */
41 6 9 4
CALL[ ]	/* CallFunction */
PUSHW[ ]	/* 4 values pushed */
17 6 23 4
CALL[ ]	/* CallFunction */
NPUSHW[ ]	/* 5 values pushed */
218 23 234 23 2
DELTAP1[ ]	/* DeltaExceptionP1 */
NPUSHW[ ]	/* 15 values pushed */
105 23 121 23 137 23 153 23 169 23 185 23 201 23 7
DELTAP1[ ]	/* DeltaExceptionP1 */
PUSHW[ ]	/* 3 values pushed */
35 23 17
SRP1[ ]	/* SetRefPoint1 */
SRP2[ ]	/* SetRefPoint2 */
IP[ ]	/* InterpolatePts */
PUSHW[ ]	/* 1 value pushed */
35
MDAP[1]	/* MoveDirectAbsPt */
NPUSHW[ ]	/* 5 values pushed */
218 35 234 35 2
DELTAP1[ ]	/* DeltaExceptionP1 */
NPUSHW[ ]	/* 15 values pushed */
105 35 121 35 137 35 153 35 169 35 185 35 201 35 7
DELTAP1[ ]	/* DeltaExceptionP1 */
PUSHW[ ]	/* 2 values pushed */
0 6
MIRP[11100]	/* MoveIndirectRelPt */
PUSHW[ ]	/* 3 values pushed */
19 9 0
SRP1[ ]	/* SetRefPoint1 */
SRP2[ ]	/* SetRefPoint2 */
IP[ ]	/* InterpolatePts */
PUSHW[ ]	/* 1 value pushed */
41
SRP0[ ]	/* SetRefPoint0 */
PUSHW[ ]	/* 1 value pushed */
28
MDRP[10000]	/* MoveDirectRelPt */
SVTCA[0]	/* SetFreedomAndProjectionVectorToAxis */
PUSHW[ ]	/* 4 values pushed */
43 2 4 4
CALL[ ]	/* CallFunction */
PUSHW[ ]	/* 4 values pushed */
15 2 25 4
CALL[ ]	/* CallFunction */
PUSHW[ ]	/* 4 values pushed */
31 2 37 4
CALL[ ]	/* CallFunction */
PUSHW[ ]	/* 1 value pushed */
43
SRP0[ ]	/* SetRefPoint0 */
PUSHW[ ]	/* 1 value pushed */
6
MDRP[10000]	/* MoveDirectRelPt */
PUSHW[ ]	/* 1 value pushed */
6
MDAP[1]	/* MoveDirectAbsPt */
PUSHW[ ]	/* 1 value pushed */
25
SRP0[ ]	/* SetRefPoint0 */
PUSHW[ ]	/* 1 value pushed */
12
MDRP[10000]	/* MoveDirectRelPt */
PUSHW[ ]	/* 1 value pushed */
12
MDAP[1]	/* MoveDirectAbsPt */
PUSHW[ ]	/* 3 values pushed */
19 37 31
SRP1[ ]	/* SetRefPoint1 */
SRP2[ ]	/* SetRefPoint2 */
IP[ ]	/* InterpolatePts */
PUSHW[ ]	/* 1 value pushed */
25
SRP0[ ]	/* SetRefPoint0 */
PUSHW[ ]	/* 1 value pushed */
28
MDRP[10000]	/* MoveDirectRelPt */
PUSHW[ ]	/* 1 value pushed */
28
MDAP[1]	/* MoveDirectAbsPt */
PUSHW[ ]	/* 1 value pushed */
31
SRP0[ ]	/* SetRefPoint0 */
PUSHW[ ]	/* 1 value pushed */
29
MDRP[10000]	/* MoveDirectRelPt */
PUSHW[ ]	/* 1 value pushed */
29
MDAP[1]	/* MoveDirectAbsPt */
PUSHW[ ]	/* 1 value pushed */
43
SRP0[ ]	/* SetRefPoint0 */
PUSHW[ ]	/* 1 value pushed */
41
MDRP[10000]	/* MoveDirectRelPt */
PUSHW[ ]	/* 1 value pushed */
41
MDAP[1]	/* MoveDirectAbsPt */
IUP[0]	/* InterpolateUntPts */
IUP[1]	/* InterpolateUntPts */";
};
width = 1247;
}
);
note = B;
unicode = 66;
},
{
glyphname = C;
lastChange = "2025-08-23 01:57:26 +0000";
layers = (
{
layerId = m01;
shapes = (
{
closed = 1;
nodes = (
(1092,379,l),
(1044,156,ls),
(1038,128,o),
(1006,115,qs),
(941,88,o),
(840,88,qs),
(597,88,o),
(322,411,o),
(322,696,qs),
(322,981,o),
(463,1137,qs),
(595,1284,o),
(813,1284,qs),
(927,1284,o),
(1022,1239,qs),
(1052,1225,o),
(1057,1192,qs),
(1087,1006,l),
(1210,1006,l),
(1210,1327,l),
(977,1399,o),
(803,1399,qs),
(482,1399,o),
(86,1008,o),
(86,690,qs),
(86,393,o),
(271,192,qs),
(471,-25,o),
(801,-25,qs),
(1030,-25,o),
(1210,47,q),
(1210,379,l)
);
}
);
userData = {
assembly = "PUSHW[ ]	/* 4 values pushed */
22 6 6 4
CALL[ ]	/* CallFunction */
NPUSHW[ ]	/* 15 values pushed */
102 22 118 22 134 22 150 22 166 22 182 22 198 22 7
DELTAP1[ ]	/* DeltaExceptionP1 */
NPUSHW[ ]	/* 5 values pushed */
213 22 229 22 2
DELTAP1[ ]	/* DeltaExceptionP1 */
SVTCA[0]	/* SetFreedomAndProjectionVectorToAxis */
PUSHW[ ]	/* 4 values pushed */
25 2 2 4
CALL[ ]	/* CallFunction */
PUSHW[ ]	/* 4 values pushed */
9 2 18 4
CALL[ ]	/* CallFunction */
IUP[0]	/* InterpolateUntPts */
IUP[1]	/* InterpolateUntPts */";
};
width = 1296;
},
{
layerId = m002;
shapes = (
{
closed = 1;
nodes = (
(1092,379,l),
(1044,156,ls),
(1038,128,o),
(1006,115,qs),
(941,88,o),
(840,88,qs),
(597,88,o),
(322,411,o),
(322,696,qs),
(322,981,o),
(463,1137,qs),
(595,1284,o),
(813,1284,qs),
(927,1284,o),
(1022,1239,qs),
(1052,1225,o),
(1057,1192,qs),
(1087,1006,l),
(1210,1006,l),
(1210,1327,l),
(977,1399,o),
(803,1399,qs),
(482,1399,o),
(86,1008,o),
(86,690,qs),
(86,393,o),
(271,192,qs),
(471,-25,o),
(801,-25,qs),
(1030,-25,o),
(1210,47,q),
(1210,379,l)
);
}
);
userData = {
assembly = "PUSHW[ ]	/* 4 values pushed */
22 6 6 4
CALL[ ]	/* CallFunction */
NPUSHW[ ]	/* 15 values pushed */
102 22 118 22 134 22 150 22 166 22 182 22 198 22 7
DELTAP1[ ]	/* DeltaExceptionP1 */
NPUSHW[ ]	/* 5 values pushed */
213 22 229 22 2
DELTAP1[ ]	/* DeltaExceptionP1 */
SVTCA[0]	/* SetFreedomAndProjectionVectorToAxis */
PUSHW[ ]	/* 4 values pushed */
25 2 2 4
CALL[ ]	/* CallFunction */
PUSHW[ ]	/* 4 values pushed */
9 2 18 4
CALL[ ]	/* CallFunction */
IUP[0]	/* InterpolateUntPts */
IUP[1]	/* InterpolateUntPts */";
};
width = 1296;
}
);
note = C;
unicode = 67;
},
{
glyphname = D;
lastChange = "2025-08-23 01:57:26 +0000";
layers = (
{
layerId = m01;
shapes = (
{
closed = 1;
nodes = (
(1131,1209,qs),
(934,1374,o),
(594,1374,qs),
(66,1374,l),
(66,1286,l),
(174,1278,ls),
(219,1275,o),
(219,1233,qs),
(219,141,ls),
(219,99,o),
(174,96,qs),
(66,88,l),
(66,0,l),
(635,0,ls),
(996,0,o),
(1183,211,qs),
(1346,394,o),
(1346,690,qs),
(1346,1030,o)
);
},
{
closed = 1;
nodes = (
(592,100,qs),
(424,98,l),
(424,1276,l),
(582,1276,ls),
(1114,1276,o),
(1114,686,qs),
(1114,106,o)
);
}
);
userData = {
assembly = "PUSHW[ ]	/* 1 value pushed */
26
MDAP[1]	/* MoveDirectAbsPt */
PUSHW[ ]	/* 1 value pushed */
27
MDAP[1]	/* MoveDirectAbsPt */
PUSHW[ ]	/* 1 value pushed */
0
MDRP[11100]	/* MoveDirectRelPt */
PUSHW[ ]	/* 1 value pushed */
26
SRP0[ ]	/* SetRefPoint0 */
PUSHW[ ]	/* 1 value pushed */
9
MDRP[10000]	/* MoveDirectRelPt */
PUSHW[ ]	/* 1 value pushed */
9
MDAP[1]	/* MoveDirectAbsPt */
PUSHW[ ]	/* 1 value pushed */
0
SRP0[ ]	/* SetRefPoint0 */
PUSHW[ ]	/* 2 values pushed */
19 6
MIRP[11100]	/* MoveIndirectRelPt */
NPUSHW[ ]	/* 5 values pushed */
218 19 234 19 2
DELTAP1[ ]	/* DeltaExceptionP1 */
NPUSHW[ ]	/* 15 values pushed */
105 19 121 19 137 19 153 19 169 19 185 19 201 19 7
DELTAP1[ ]	/* DeltaExceptionP1 */
PUSHW[ ]	/* 1 value pushed */
9
SRP0[ ]	/* SetRefPoint0 */
PUSHW[ ]	/* 2 values pushed */
23 6
MIRP[11100]	/* MoveIndirectRelPt */
SVTCA[0]	/* SetFreedomAndProjectionVectorToAxis */
PUSHW[ ]	/* 4 values pushed */
24 2 4 4
CALL[ ]	/* CallFunction */
PUSHW[ ]	/* 4 values pushed */
15 2 21 4
CALL[ ]	/* CallFunction */
PUSHW[ ]	/* 1 value pushed */
24
SRP0[ ]	/* SetRefPoint0 */
PUSHW[ ]	/* 1 value pushed */
6
MDRP[10000]	/* MoveDirectRelPt */
PUSHW[ ]	/* 1 value pushed */
6
MDAP[1]	/* MoveDirectAbsPt */
PUSHW[ ]	/* 1 value pushed */
21
SRP0[ ]	/* SetRefPoint0 */
PUSHW[ ]	/* 1 value pushed */
12
MDRP[10000]	/* MoveDirectRelPt */
PUSHW[ ]	/* 1 value pushed */
12
MDAP[1]	/* MoveDirectAbsPt */
IUP[0]	/* InterpolateUntPts */
IUP[1]	/* InterpolateUntPts */";
};
width = 1430;
},
{
layerId = m002;
shapes = (
{
closed = 1;
nodes = (
(1131,1209,qs),
(934,1374,o),
(594,1374,qs),
(66,1374,l),
(66,1286,l),
(174,1278,ls),
(219,1275,o),
(219,1233,qs),
(219,141,ls),
(219,99,o),
(174,96,qs),
(66,88,l),
(66,0,l),
(635,0,ls),
(996,0,o),
(1183,211,qs),
(1346,394,o),
(1346,690,qs),
(1346,1030,o)
);
},
{
closed = 1;
nodes = (
(592,100,qs),
(424,98,l),
(424,1276,l),
(582,1276,ls),
(1114,1276,o),
(1114,686,qs),
(1114,106,o)
);
}
);
userData = {
assembly = "PUSHW[ ]	/* 1 value pushed */
26
MDAP[1]	/* MoveDirectAbsPt */
PUSHW[ ]	/* 1 value pushed */
27
MDAP[1]	/* MoveDirectAbsPt */
PUSHW[ ]	/* 1 value pushed */
0
MDRP[11100]	/* MoveDirectRelPt */
PUSHW[ ]	/* 1 value pushed */
26
SRP0[ ]	/* SetRefPoint0 */
PUSHW[ ]	/* 1 value pushed */
9
MDRP[10000]	/* MoveDirectRelPt */
PUSHW[ ]	/* 1 value pushed */
9
MDAP[1]	/* MoveDirectAbsPt */
PUSHW[ ]	/* 1 value pushed */
0
SRP0[ ]	/* SetRefPoint0 */
PUSHW[ ]	/* 2 values pushed */
19 6
MIRP[11100]	/* MoveIndirectRelPt */
NPUSHW[ ]	/* 5 values pushed */
218 19 234 19 2
DELTAP1[ ]	/* DeltaExceptionP1 */
NPUSHW[ ]	/* 15 values pushed */
105 19 121 19 137 19 153 19 169 19 185 19 201 19 7
DELTAP1[ ]	/* DeltaExceptionP1 */
PUSHW[ ]	/* 1 value pushed */
9
SRP0[ ]	/* SetRefPoint0 */
PUSHW[ ]	/* 2 values pushed */
23 6
MIRP[11100]	/* MoveIndirectRelPt */
SVTCA[0]	/* SetFreedomAndProjectionVectorToAxis */
PUSHW[ ]	/* 4 values pushed */
24 2 4 4
CALL[ ]	/* CallFunction */
PUSHW[ ]	/* 4 values pushed */
15 2 21 4
CALL[ ]	/* CallFunction */
PUSHW[ ]	/* 1 value pushed */
24
SRP0[ ]	/* SetRefPoint0 */
PUSHW[ ]	/* 1 value pushed */
6
MDRP[10000]	/* MoveDirectRelPt */
PUSHW[ ]	/* 1 value pushed */
6
MDAP[1]	/* MoveDirectAbsPt */
PUSHW[ ]	/* 1 value pushed */
21
SRP0[ ]	/* SetRefPoint0 */
PUSHW[ ]	/* 1 value pushed */
12
MDRP[10000]	/* MoveDirectRelPt */
PUSHW[ ]	/* 1 value pushed */
12
MDAP[1]	/* MoveDirectAbsPt */
IUP[0]	/* InterpolateUntPts */
IUP[1]	/* InterpolateUntPts */";
};
width = 1430;
}
);
note = D;
unicode = 68;
},
{
glyphname = E;
lastChange = "2025-08-23 01:57:26 +0000";
layers = (
{
layerId = m01;
shapes = (
{
closed = 1;
nodes = (
(1018,342,l),
(983,139,ls),
(976,100,o),
(946,100,qs),
(424,100,l),
(424,664,l),
(735,664,ls),
(767,664,o),
(772,627,qs),
(791,485,l),
(895,485,l),
(895,942,l),
(791,942,l),
(772,801,ls),
(767,766,o),
(735,766,qs),
(424,766,l),
(424,1276,l),
(872,1276,ls),
(902,1276,o),
(909,1237,qs),
(938,1069,l),
(1061,1069,l),
(1061,1374,l),
(66,1374,l),
(66,1286,l),
(174,1278,ls),
(219,1275,o),
(219,1233,qs),
(219,141,ls),
(219,99,o),
(174,96,qs),
(66,88,l),
(66,0,l),
(1130,0,l),
(1130,342,l)
);
}
);
userData = {
assembly = "PUSHW[ ]	/* 4 values pushed */
30 6 5 4
CALL[ ]	/* CallFunction */
PUSHW[ ]	/* 1 value pushed */
30
SRP0[ ]	/* SetRefPoint0 */
PUSHW[ ]	/* 1 value pushed */
17
MDRP[10000]	/* MoveDirectRelPt */
SVTCA[0]	/* SetFreedomAndProjectionVectorToAxis */
PUSHW[ ]	/* 4 values pushed */
31 2 0 4
CALL[ ]	/* CallFunction */
PUSHW[ ]	/* 4 values pushed */
11 2 16 4
CALL[ ]	/* CallFunction */
PUSHW[ ]	/* 4 values pushed */
19 2 28 4
CALL[ ]	/* CallFunction */
PUSHW[ ]	/* 1 value pushed */
31
SRP0[ ]	/* SetRefPoint0 */
PUSHW[ ]	/* 1 value pushed */
2
MDRP[10000]	/* MoveDirectRelPt */
PUSHW[ ]	/* 1 value pushed */
2
MDAP[1]	/* MoveDirectAbsPt */
PUSHW[ ]	/* 1 value pushed */
16
SRP0[ ]	/* SetRefPoint0 */
PUSHW[ ]	/* 1 value pushed */
8
MDRP[10000]	/* MoveDirectRelPt */
PUSHW[ ]	/* 1 value pushed */
8
MDAP[1]	/* MoveDirectAbsPt */
IUP[0]	/* InterpolateUntPts */
IUP[1]	/* InterpolateUntPts */";
};
width = 1198;
},
{
layerId = m002;
shapes = (
{
closed = 1;
nodes = (
(1018,342,l),
(983,139,ls),
(976,100,o),
(946,100,qs),
(424,100,l),
(424,664,l),
(735,664,ls),
(767,664,o),
(772,627,qs),
(791,485,l),
(895,485,l),
(895,942,l),
(791,942,l),
(772,801,ls),
(767,766,o),
(735,766,qs),
(424,766,l),
(424,1276,l),
(872,1276,ls),
(902,1276,o),
(909,1237,qs),
(938,1069,l),
(1061,1069,l),
(1061,1374,l),
(66,1374,l),
(66,1286,l),
(174,1278,ls),
(219,1275,o),
(219,1233,qs),
(219,141,ls),
(219,99,o),
(174,96,qs),
(66,88,l),
(66,0,l),
(1130,0,l),
(1130,342,l)
);
}
);
userData = {
assembly = "PUSHW[ ]	/* 4 values pushed */
30 6 5 4
CALL[ ]	/* CallFunction */
PUSHW[ ]	/* 1 value pushed */
30
SRP0[ ]	/* SetRefPoint0 */
PUSHW[ ]	/* 1 value pushed */
17
MDRP[10000]	/* MoveDirectRelPt */
SVTCA[0]	/* SetFreedomAndProjectionVectorToAxis */
PUSHW[ ]	/* 4 values pushed */
31 2 0 4
CALL[ ]	/* CallFunction */
PUSHW[ ]	/* 4 values pushed */
11 2 16 4
CALL[ ]	/* CallFunction */
PUSHW[ ]	/* 4 values pushed */
19 2 28 4
CALL[ ]	/* CallFunction */
PUSHW[ ]	/* 1 value pushed */
31
SRP0[ ]	/* SetRefPoint0 */
PUSHW[ ]	/* 1 value pushed */
2
MDRP[10000]	/* MoveDirectRelPt */
PUSHW[ ]	/* 1 value pushed */
2
MDAP[1]	/* MoveDirectAbsPt */
PUSHW[ ]	/* 1 value pushed */
16
SRP0[ ]	/* SetRefPoint0 */
PUSHW[ ]	/* 1 value pushed */
8
MDRP[10000]	/* MoveDirectRelPt */
PUSHW[ ]	/* 1 value pushed */
8
MDAP[1]	/* MoveDirectAbsPt */
IUP[0]	/* InterpolateUntPts */
IUP[1]	/* InterpolateUntPts */";
};
width = 1198;
}
);
note = E;
unicode = 69;
},
{
glyphname = F;
lastChange = "2025-08-23 01:57:26 +0000";
layers = (
{
layerId = m01;
shapes = (
{
closed = 1;
nodes = (
(63,1374,l),
(63,1286,l),
(188,1278,ls),
(231,1275,o),
(231,1233,qs),
(231,141,ls),
(231,99,o),
(188,96,qs),
(80,88,l),
(80,0,l),
(616,0,l),
(616,88,l),
(479,96,ls),
(436,99,o),
(436,141,qs),
(436,641,l),
(752,641,ls),
(783,641,o),
(788,604,qs),
(807,461,l),
(909,461,l),
(909,922,l),
(807,922,l),
(788,778,ls),
(783,741,o),
(752,741,qs),
(436,741,l),
(436,1274,l),
(874,1274,ls),
(903,1274,o),
(909,1237,qs),
(938,1049,l),
(1059,1049,l),
(1059,1374,l)
);
}
);
userData = {
assembly = "PUSHW[ ]	/* 4 values pushed */
18 6 27 4
CALL[ ]	/* CallFunction */
PUSHW[ ]	/* 1 value pushed */
18
SRP0[ ]	/* SetRefPoint0 */
PUSHW[ ]	/* 1 value pushed */
5
MDRP[10000]	/* MoveDirectRelPt */
SVTCA[0]	/* SetFreedomAndProjectionVectorToAxis */
PUSHW[ ]	/* 4 values pushed */
33 2 4 4
CALL[ ]	/* CallFunction */
PUSHW[ ]	/* 4 values pushed */
7 2 16 4
CALL[ ]	/* CallFunction */
PUSHW[ ]	/* 1 value pushed */
4
SRP0[ ]	/* SetRefPoint0 */
PUSHW[ ]	/* 1 value pushed */
30
MDRP[10000]	/* MoveDirectRelPt */
PUSHW[ ]	/* 1 value pushed */
30
MDAP[1]	/* MoveDirectAbsPt */
IUP[0]	/* InterpolateUntPts */
IUP[1]	/* InterpolateUntPts */";
};
width = 1110;
},
{
layerId = m002;
shapes = (
{
closed = 1;
nodes = (
(63,1374,l),
(63,1286,l),
(188,1278,ls),
(231,1275,o),
(231,1233,qs),
(231,141,ls),
(231,99,o),
(188,96,qs),
(80,88,l),
(80,0,l),
(616,0,l),
(616,88,l),
(479,96,ls),
(436,99,o),
(436,141,qs),
(436,641,l),
(752,641,ls),
(783,641,o),
(788,604,qs),
(807,461,l),
(909,461,l),
(909,922,l),
(807,922,l),
(788,778,ls),
(783,741,o),
(752,741,qs),
(436,741,l),
(436,1274,l),
(874,1274,ls),
(903,1274,o),
(909,1237,qs),
(938,1049,l),
(1059,1049,l),
(1059,1374,l)
);
}
);
userData = {
assembly = "PUSHW[ ]	/* 4 values pushed */
18 6 27 4
CALL[ ]	/* CallFunction */
PUSHW[ ]	/* 1 value pushed */
18
SRP0[ ]	/* SetRefPoint0 */
PUSHW[ ]	/* 1 value pushed */
5
MDRP[10000]	/* MoveDirectRelPt */
SVTCA[0]	/* SetFreedomAndProjectionVectorToAxis */
PUSHW[ ]	/* 4 values pushed */
33 2 4 4
CALL[ ]	/* CallFunction */
PUSHW[ ]	/* 4 values pushed */
7 2 16 4
CALL[ ]	/* CallFunction */
PUSHW[ ]	/* 1 value pushed */
4
SRP0[ ]	/* SetRefPoint0 */
PUSHW[ ]	/* 1 value pushed */
30
MDRP[10000]	/* MoveDirectRelPt */
PUSHW[ ]	/* 1 value pushed */
30
MDAP[1]	/* MoveDirectAbsPt */
IUP[0]	/* InterpolateUntPts */
IUP[1]	/* InterpolateUntPts */";
};
width = 1110;
}
);
note = F;
unicode = 70;
},
{
glyphname = G;
lastChange = "2025-08-23 01:57:26 +0000";
layers = (
{
layerId = m01;
shapes = (
{
closed = 1;
nodes = (
(844,664,l),
(844,575,l),
(981,565,ls),
(1024,562,o),
(1024,522,qs),
(1024,113,l),
(1029,113,o),
(899,90,o),
(844,90,qs),
(601,90,o),
(462,248,qs),
(319,409,o),
(319,700,qs),
(319,979,o),
(458,1135,qs),
(592,1284,o),
(819,1284,qs),
(927,1284,o),
(1032,1239,qs),
(1067,1224,o),
(1073,1190,qs),
(1106,1006,l),
(1229,1006,l),
(1229,1337,l),
(993,1399,o),
(827,1399,qs),
(485,1399,o),
(86,1014,o),
(86,690,qs),
(86,392,o),
(272,190,qs),
(472,-25,o),
(801,-25,qs),
(1006,-25,o),
(1231,49,q),
(1231,522,ls),
(1231,561,o),
(1274,565,qs),
(1378,575,l),
(1378,664,l)
);
}
);
userData = {
assembly = "PUSHW[ ]	/* 1 value pushed */
40
MDAP[1]	/* MoveDirectAbsPt */
PUSHW[ ]	/* 1 value pushed */
41
MDAP[1]	/* MoveDirectAbsPt */
PUSHW[ ]	/* 1 value pushed */
4
MDRP[11100]	/* MoveDirectRelPt */
PUSHW[ ]	/* 1 value pushed */
40
SRP0[ ]	/* SetRefPoint0 */
PUSHW[ ]	/* 1 value pushed */
10
MDRP[10000]	/* MoveDirectRelPt */
PUSHW[ ]	/* 1 value pushed */
10
MDAP[1]	/* MoveDirectAbsPt */
PUSHW[ ]	/* 1 value pushed */
4
SRP0[ ]	/* SetRefPoint0 */
PUSHW[ ]	/* 1 value pushed */
15
MDRP[10000]	/* MoveDirectRelPt */
PUSHW[ ]	/* 1 value pushed */
15
MDAP[1]	/* MoveDirectAbsPt */
PUSHW[ ]	/* 1 value pushed */
4
SRP0[ ]	/* SetRefPoint0 */
PUSHW[ ]	/* 2 values pushed */
33 6
MIRP[11100]	/* MoveIndirectRelPt */
PUSHW[ ]	/* 1 value pushed */
20
MDRP[10000]	/* MoveDirectRelPt */
PUSHW[ ]	/* 1 value pushed */
20
MDAP[1]	/* MoveDirectAbsPt */
PUSHW[ ]	/* 1 value pushed */
10
SRP0[ ]	/* SetRefPoint0 */
PUSHW[ ]	/* 2 values pushed */
26 6
MIRP[11100]	/* MoveIndirectRelPt */
NPUSHW[ ]	/* 15 values pushed */
102 26 118 26 134 26 150 26 166 26 182 26 198 26 7
DELTAP1[ ]	/* DeltaExceptionP1 */
NPUSHW[ ]	/* 5 values pushed */
213 26 229 26 2
DELTAP1[ ]	/* DeltaExceptionP1 */
SVTCA[0]	/* SetFreedomAndProjectionVectorToAxis */
PUSHW[ ]	/* 4 values pushed */
30 2 6 4
CALL[ ]	/* CallFunction */
PUSHW[ ]	/* 4 values pushed */
13 2 22 4
CALL[ ]	/* CallFunction */
IUP[0]	/* InterpolateUntPts */
IUP[1]	/* InterpolateUntPts */";
};
width = 1430;
},
{
layerId = m002;
shapes = (
{
closed = 1;
nodes = (
(844,664,l),
(844,575,l),
(981,565,ls),
(1024,562,o),
(1024,522,qs),
(1024,113,l),
(1029,113,o),
(899,90,o),
(844,90,qs),
(601,90,o),
(462,248,qs),
(319,409,o),
(319,700,qs),
(319,979,o),
(458,1135,qs),
(592,1284,o),
(819,1284,qs),
(927,1284,o),
(1032,1239,qs),
(1067,1224,o),
(1073,1190,qs),
(1106,1006,l),
(1229,1006,l),
(1229,1337,l),
(993,1399,o),
(827,1399,qs),
(485,1399,o),
(86,1014,o),
(86,690,qs),
(86,392,o),
(272,190,qs),
(472,-25,o),
(801,-25,qs),
(1006,-25,o),
(1231,49,q),
(1231,522,ls),
(1231,561,o),
(1274,565,qs),
(1378,575,l),
(1378,664,l)
);
}
);
userData = {
assembly = "PUSHW[ ]	/* 1 value pushed */
40
MDAP[1]	/* MoveDirectAbsPt */
PUSHW[ ]	/* 1 value pushed */
41
MDAP[1]	/* MoveDirectAbsPt */
PUSHW[ ]	/* 1 value pushed */
4
MDRP[11100]	/* MoveDirectRelPt */
PUSHW[ ]	/* 1 value pushed */
40
SRP0[ ]	/* SetRefPoint0 */
PUSHW[ ]	/* 1 value pushed */
10
MDRP[10000]	/* MoveDirectRelPt */
PUSHW[ ]	/* 1 value pushed */
10
MDAP[1]	/* MoveDirectAbsPt */
PUSHW[ ]	/* 1 value pushed */
4
SRP0[ ]	/* SetRefPoint0 */
PUSHW[ ]	/* 1 value pushed */
15
MDRP[10000]	/* MoveDirectRelPt */
PUSHW[ ]	/* 1 value pushed */
15
MDAP[1]	/* MoveDirectAbsPt */
PUSHW[ ]	/* 1 value pushed */
4
SRP0[ ]	/* SetRefPoint0 */
PUSHW[ ]	/* 2 values pushed */
33 6
MIRP[11100]	/* MoveIndirectRelPt */
PUSHW[ ]	/* 1 value pushed */
20
MDRP[10000]	/* MoveDirectRelPt */
PUSHW[ ]	/* 1 value pushed */
20
MDAP[1]	/* MoveDirectAbsPt */
PUSHW[ ]	/* 1 value pushed */
10
SRP0[ ]	/* SetRefPoint0 */
PUSHW[ ]	/* 2 values pushed */
26 6
MIRP[11100]	/* MoveIndirectRelPt */
NPUSHW[ ]	/* 15 values pushed */
102 26 118 26 134 26 150 26 166 26 182 26 198 26 7
DELTAP1[ ]	/* DeltaExceptionP1 */
NPUSHW[ ]	/* 5 values pushed */
213 26 229 26 2
DELTAP1[ ]	/* DeltaExceptionP1 */
SVTCA[0]	/* SetFreedomAndProjectionVectorToAxis */
PUSHW[ ]	/* 4 values pushed */
30 2 6 4
CALL[ ]	/* CallFunction */
PUSHW[ ]	/* 4 values pushed */
13 2 22 4
CALL[ ]	/* CallFunction */
IUP[0]	/* InterpolateUntPts */
IUP[1]	/* InterpolateUntPts */";
};
width = 1430;
}
);
note = G;
unicode = 71;
},
{
glyphname = H;
lastChange = "2025-08-23 01:57:26 +0000";
layers = (
{
layerId = m01;
shapes = (
{
closed = 1;
nodes = (
(1350,96,ls),
(1305,99,o),
(1305,141,qs),
(1305,1233,ls),
(1305,1273,o),
(1350,1276,qs),
(1456,1284,l),
(1456,1374,l),
(940,1374,l),
(940,1284,l),
(1057,1276,ls),
(1100,1273,o),
(1100,1233,qs),
(1100,772,l),
(424,772,l),
(424,1233,ls),
(424,1273,o),
(467,1276,qs),
(584,1284,l),
(584,1374,l),
(66,1374,l),
(66,1284,l),
(172,1276,ls),
(217,1273,o),
(217,1233,qs),
(217,141,ls),
(217,99,o),
(172,96,qs),
(66,88,l),
(66,0,l),
(584,0,l),
(584,88,l),
(467,96,ls),
(424,99,o),
(424,141,qs),
(424,670,l),
(1100,670,l),
(1100,141,ls),
(1100,99,o),
(1057,96,qs),
(940,88,l),
(940,0,l),
(1456,0,l),
(1456,88,l)
);
}
);
userData = {
assembly = "PUSHW[ ]	/* 1 value pushed */
44
MDAP[1]	/* MoveDirectAbsPt */
PUSHW[ ]	/* 1 value pushed */
45
MDAP[1]	/* MoveDirectAbsPt */
PUSHW[ ]	/* 1 value pushed */
40
MDRP[11100]	/* MoveDirectRelPt */
PUSHW[ ]	/* 2 values pushed */
5 6
MIRP[11100]	/* MoveIndirectRelPt */
PUSHW[ ]	/* 1 value pushed */
44
SRP0[ ]	/* SetRefPoint0 */
PUSHW[ ]	/* 1 value pushed */
17
MDRP[10000]	/* MoveDirectRelPt */
PUSHW[ ]	/* 1 value pushed */
17
MDAP[1]	/* MoveDirectAbsPt */
PUSHW[ ]	/* 2 values pushed */
8 6
MIRP[11100]	/* MoveIndirectRelPt */
PUSHW[ ]	/* 1 value pushed */
27
MDRP[10000]	/* MoveDirectRelPt */
PUSHW[ ]	/* 1 value pushed */
5
SRP0[ ]	/* SetRefPoint0 */
PUSHW[ ]	/* 1 value pushed */
29
MDRP[10000]	/* MoveDirectRelPt */
SVTCA[0]	/* SetFreedomAndProjectionVectorToAxis */
PUSHW[ ]	/* 4 values pushed */
29 2 6 4
CALL[ ]	/* CallFunction */
IUP[0]	/* InterpolateUntPts */
IUP[1]	/* InterpolateUntPts */";
};
width = 1522;
},
{
layerId = m002;
shapes = (
{
closed = 1;
nodes = (
(1350,96,ls),
(1305,99,o),
(1305,141,qs),
(1305,1233,ls),
(1305,1273,o),
(1350,1276,qs),
(1456,1284,l),
(1456,1374,l),
(940,1374,l),
(940,1284,l),
(1057,1276,ls),
(1100,1273,o),
(1100,1233,qs),
(1100,772,l),
(424,772,l),
(424,1233,ls),
(424,1273,o),
(467,1276,qs),
(584,1284,l),
(584,1374,l),
(66,1374,l),
(66,1284,l),
(172,1276,ls),
(217,1273,o),
(217,1233,qs),
(217,141,ls),
(217,99,o),
(172,96,qs),
(66,88,l),
(66,0,l),
(584,0,l),
(584,88,l),
(467,96,ls),
(424,99,o),
(424,141,qs),
(424,670,l),
(1100,670,l),
(1100,141,ls),
(1100,99,o),
(1057,96,qs),
(940,88,l),
(940,0,l),
(1456,0,l),
(1456,88,l)
);
}
);
userData = {
assembly = "PUSHW[ ]	/* 1 value pushed */
44
MDAP[1]	/* MoveDirectAbsPt */
PUSHW[ ]	/* 1 value pushed */
45
MDAP[1]	/* MoveDirectAbsPt */
PUSHW[ ]	/* 1 value pushed */
40
MDRP[11100]	/* MoveDirectRelPt */
PUSHW[ ]	/* 2 values pushed */
5 6
MIRP[11100]	/* MoveIndirectRelPt */
PUSHW[ ]	/* 1 value pushed */
44
SRP0[ ]	/* SetRefPoint0 */
PUSHW[ ]	/* 1 value pushed */
17
MDRP[10000]	/* MoveDirectRelPt */
PUSHW[ ]	/* 1 value pushed */
17
MDAP[1]	/* MoveDirectAbsPt */
PUSHW[ ]	/* 2 values pushed */
8 6
MIRP[11100]	/* MoveIndirectRelPt */
PUSHW[ ]	/* 1 value pushed */
27
MDRP[10000]	/* MoveDirectRelPt */
PUSHW[ ]	/* 1 value pushed */
5
SRP0[ ]	/* SetRefPoint0 */
PUSHW[ ]	/* 1 value pushed */
29
MDRP[10000]	/* MoveDirectRelPt */
SVTCA[0]	/* SetFreedomAndProjectionVectorToAxis */
PUSHW[ ]	/* 4 values pushed */
29 2 6 4
CALL[ ]	/* CallFunction */
IUP[0]	/* InterpolateUntPts */
IUP[1]	/* InterpolateUntPts */";
};
width = 1522;
}
);
note = H;
unicode = 72;
},
{
glyphname = I;
lastChange = "2025-08-23 01:57:26 +0000";
layers = (
{
layerId = m01;
shapes = (
{
closed = 1;
nodes = (
(483,96,ls),
(440,99,o),
(440,141,qs),
(440,1233,ls),
(440,1273,o),
(483,1276,qs),
(608,1284,l),
(608,1374,l),
(68,1374,l),
(68,1284,l),
(190,1276,ls),
(233,1273,o),
(233,1233,qs),
(233,141,ls),
(233,99,o),
(190,96,qs),
(68,88,l),
(68,0,l),
(608,0,l),
(608,88,l)
);
}
);
userData = {
assembly = "PUSHW[ ]	/* 4 values pushed */
16 6 5 4
CALL[ ]	/* CallFunction */
IUP[0]	/* InterpolateUntPts */
IUP[1]	/* InterpolateUntPts */";
};
width = 676;
},
{
layerId = m002;
shapes = (
{
closed = 1;
nodes = (
(483,96,ls),
(440,99,o),
(440,141,qs),
(440,1233,ls),
(440,1273,o),
(483,1276,qs),
(608,1284,l),
(608,1374,l),
(68,1374,l),
(68,1284,l),
(190,1276,ls),
(233,1273,o),
(233,1233,qs),
(233,141,ls),
(233,99,o),
(190,96,qs),
(68,88,l),
(68,0,l),
(608,0,l),
(608,88,l)
);
}
);
userData = {
assembly = "PUSHW[ ]	/* 4 values pushed */
16 6 5 4
CALL[ ]	/* CallFunction */
IUP[0]	/* InterpolateUntPts */
IUP[1]	/* InterpolateUntPts */";
};
width = 676;
}
);
note = I;
unicode = 73;
},
{
glyphname = J;
lastChange = "2025-08-23 01:57:26 +0000";
layers = (
{
layerId = m01;
shapes = (
{
closed = 1;
nodes = (
(401,1374,l),
(401,1286,l),
(530,1278,ls),
(573,1275,o),
(573,1233,qs),
(573,504,ls),
(573,286,o),
(451,80,o),
(313,80,qs),
(227,80,o),
(219,125,qs),
(174,375,l),
(51,375,l),
(51,25,l),
(201,-25,o),
(328,-25,qs),
(568,-25,o),
(677,119,qs),
(778,251,o),
(778,518,qs),
(778,1233,ls),
(778,1275,o),
(821,1278,qs),
(940,1286,l),
(940,1374,l)
);
}
);
userData = {
assembly = "PUSHW[ ]	/* 4 values pushed */
4 6 18 4
CALL[ ]	/* CallFunction */
SVTCA[0]	/* SetFreedomAndProjectionVectorToAxis */
PUSHW[ ]	/* 4 values pushed */
15 2 8 4
CALL[ ]	/* CallFunction */
IUP[0]	/* InterpolateUntPts */
IUP[1]	/* InterpolateUntPts */";
};
width = 981;
},
{
layerId = m002;
shapes = (
{
closed = 1;
nodes = (
(401,1374,l),
(401,1286,l),
(530,1278,ls),
(573,1275,o),
(573,1233,qs),
(573,504,ls),
(573,286,o),
(451,80,o),
(313,80,qs),
(227,80,o),
(219,125,qs),
(174,375,l),
(51,375,l),
(51,25,l),
(201,-25,o),
(328,-25,qs),
(568,-25,o),
(677,119,qs),
(778,251,o),
(778,518,qs),
(778,1233,ls),
(778,1275,o),
(821,1278,qs),
(940,1286,l),
(940,1374,l)
);
}
);
userData = {
assembly = "PUSHW[ ]	/* 4 values pushed */
4 6 18 4
CALL[ ]	/* CallFunction */
SVTCA[0]	/* SetFreedomAndProjectionVectorToAxis */
PUSHW[ ]	/* 4 values pushed */
15 2 8 4
CALL[ ]	/* CallFunction */
IUP[0]	/* InterpolateUntPts */
IUP[1]	/* InterpolateUntPts */";
};
width = 981;
}
);
note = J;
unicode = 74;
},
{
glyphname = K;
lastChange = "2025-08-23 01:57:26 +0000";
layers = (
{
layerId = m01;
shapes = (
{
closed = 1;
nodes = (
(1159,98,l),
(700,770,l),
(1118,1270,l),
(1257,1286,l),
(1257,1374,l),
(823,1374,l),
(823,1286,l),
(928,1276,ls),
(939,1275,o),
(945,1263,qs),
(951,1250,o),
(944,1241,qs),
(498,696,l),
(426,696,l),
(424,1233,ls),
(424,1275,o),
(469,1278,qs),
(586,1286,l),
(586,1374,l),
(66,1374,l),
(66,1286,l),
(174,1278,ls),
(217,1275,o),
(217,1233,qs),
(217,141,ls),
(217,99,o),
(174,96,qs),
(66,88,l),
(66,0,l),
(586,0,l),
(586,88,l),
(469,96,ls),
(424,99,o),
(424,141,qs),
(426,610,l),
(567,610,l),
(948,63,l),
(948,0,l),
(1307,0,l),
(1307,88,l)
);
}
);
userData = {
assembly = "PUSHW[ ]	/* 4 values pushed */
5 6 14 4
CALL[ ]	/* CallFunction */
PUSHW[ ]	/* 1 value pushed */
5
SRP0[ ]	/* SetRefPoint0 */
PUSHW[ ]	/* 1 value pushed */
24
MDRP[10000]	/* MoveDirectRelPt */
SVTCA[0]	/* SetFreedomAndProjectionVectorToAxis */
PUSHW[ ]	/* 4 values pushed */
7 2 9 4
CALL[ ]	/* CallFunction */
PUSHW[ ]	/* 4 values pushed */
19 2 17 4
CALL[ ]	/* CallFunction */
PUSHW[ ]	/* 1 value pushed */
9
SRP0[ ]	/* SetRefPoint0 */
PUSHW[ ]	/* 1 value pushed */
0
MDRP[10000]	/* MoveDirectRelPt */
PUSHW[ ]	/* 1 value pushed */
7
SRP0[ ]	/* SetRefPoint0 */
PUSHW[ ]	/* 1 value pushed */
11
MDRP[10000]	/* MoveDirectRelPt */
PUSHW[ ]	/* 1 value pushed */
11
MDAP[1]	/* MoveDirectAbsPt */
PUSHW[ ]	/* 1 value pushed */
17
SRP0[ ]	/* SetRefPoint0 */
PUSHW[ ]	/* 1 value pushed */
21
MDRP[10000]	/* MoveDirectRelPt */
PUSHW[ ]	/* 1 value pushed */
21
MDAP[1]	/* MoveDirectAbsPt */
PUSHW[ ]	/* 1 value pushed */
17
SRP0[ ]	/* SetRefPoint0 */
PUSHW[ ]	/* 1 value pushed */
31
MDRP[10000]	/* MoveDirectRelPt */
PUSHW[ ]	/* 1 value pushed */
31
MDAP[1]	/* MoveDirectAbsPt */
PUSHW[ ]	/* 1 value pushed */
19
SRP0[ ]	/* SetRefPoint0 */
PUSHW[ ]	/* 1 value pushed */
33
MDRP[10000]	/* MoveDirectRelPt */
PUSHW[ ]	/* 1 value pushed */
17
SRP0[ ]	/* SetRefPoint0 */
PUSHW[ ]	/* 1 value pushed */
35
MDRP[10000]	/* MoveDirectRelPt */
PUSHW[ ]	/* 1 value pushed */
35
MDAP[1]	/* MoveDirectAbsPt */
PUSHW[ ]	/* 1 value pushed */
17
SRP0[ ]	/* SetRefPoint0 */
PUSHW[ ]	/* 1 value pushed */
36
MDRP[10000]	/* MoveDirectRelPt */
PUSHW[ ]	/* 1 value pushed */
36
MDAP[1]	/* MoveDirectAbsPt */
PUSHW[ ]	/* 1 value pushed */
7
SRP0[ ]	/* SetRefPoint0 */
PUSHW[ ]	/* 1 value pushed */
38
MDRP[10000]	/* MoveDirectRelPt */
PUSHW[ ]	/* 1 value pushed */
38
MDAP[1]	/* MoveDirectAbsPt */
IUP[0]	/* InterpolateUntPts */
IUP[1]	/* InterpolateUntPts */";
};
width = 1307;
},
{
layerId = m002;
shapes = (
{
closed = 1;
nodes = (
(1159,98,l),
(700,770,l),
(1118,1270,l),
(1257,1286,l),
(1257,1374,l),
(823,1374,l),
(823,1286,l),
(928,1276,ls),
(939,1275,o),
(945,1263,qs),
(951,1250,o),
(944,1241,qs),
(498,696,l),
(426,696,l),
(424,1233,ls),
(424,1275,o),
(469,1278,qs),
(586,1286,l),
(586,1374,l),
(66,1374,l),
(66,1286,l),
(174,1278,ls),
(217,1275,o),
(217,1233,qs),
(217,141,ls),
(217,99,o),
(174,96,qs),
(66,88,l),
(66,0,l),
(586,0,l),
(586,88,l),
(469,96,ls),
(424,99,o),
(424,141,qs),
(426,610,l),
(567,610,l),
(948,63,l),
(948,0,l),
(1307,0,l),
(1307,88,l)
);
}
);
userData = {
assembly = "PUSHW[ ]	/* 4 values pushed */
5 6 14 4
CALL[ ]	/* CallFunction */
PUSHW[ ]	/* 1 value pushed */
5
SRP0[ ]	/* SetRefPoint0 */
PUSHW[ ]	/* 1 value pushed */
24
MDRP[10000]	/* MoveDirectRelPt */
SVTCA[0]	/* SetFreedomAndProjectionVectorToAxis */
PUSHW[ ]	/* 4 values pushed */
7 2 9 4
CALL[ ]	/* CallFunction */
PUSHW[ ]	/* 4 values pushed */
19 2 17 4
CALL[ ]	/* CallFunction */
PUSHW[ ]	/* 1 value pushed */
9
SRP0[ ]	/* SetRefPoint0 */
PUSHW[ ]	/* 1 value pushed */
0
MDRP[10000]	/* MoveDirectRelPt */
PUSHW[ ]	/* 1 value pushed */
7
SRP0[ ]	/* SetRefPoint0 */
PUSHW[ ]	/* 1 value pushed */
11
MDRP[10000]	/* MoveDirectRelPt */
PUSHW[ ]	/* 1 value pushed */
11
MDAP[1]	/* MoveDirectAbsPt */
PUSHW[ ]	/* 1 value pushed */
17
SRP0[ ]	/* SetRefPoint0 */
PUSHW[ ]	/* 1 value pushed */
21
MDRP[10000]	/* MoveDirectRelPt */
PUSHW[ ]	/* 1 value pushed */
21
MDAP[1]	/* MoveDirectAbsPt */
PUSHW[ ]	/* 1 value pushed */
17
SRP0[ ]	/* SetRefPoint0 */
PUSHW[ ]	/* 1 value pushed */
31
MDRP[10000]	/* MoveDirectRelPt */
PUSHW[ ]	/* 1 value pushed */
31
MDAP[1]	/* MoveDirectAbsPt */
PUSHW[ ]	/* 1 value pushed */
19
SRP0[ ]	/* SetRefPoint0 */
PUSHW[ ]	/* 1 value pushed */
33
MDRP[10000]	/* MoveDirectRelPt */
PUSHW[ ]	/* 1 value pushed */
17
SRP0[ ]	/* SetRefPoint0 */
PUSHW[ ]	/* 1 value pushed */
35
MDRP[10000]	/* MoveDirectRelPt */
PUSHW[ ]	/* 1 value pushed */
35
MDAP[1]	/* MoveDirectAbsPt */
PUSHW[ ]	/* 1 value pushed */
17
SRP0[ ]	/* SetRefPoint0 */
PUSHW[ ]	/* 1 value pushed */
36
MDRP[10000]	/* MoveDirectRelPt */
PUSHW[ ]	/* 1 value pushed */
36
MDAP[1]	/* MoveDirectAbsPt */
PUSHW[ ]	/* 1 value pushed */
7
SRP0[ ]	/* SetRefPoint0 */
PUSHW[ ]	/* 1 value pushed */
38
MDRP[10000]	/* MoveDirectRelPt */
PUSHW[ ]	/* 1 value pushed */
38
MDAP[1]	/* MoveDirectAbsPt */
IUP[0]	/* InterpolateUntPts */
IUP[1]	/* InterpolateUntPts */";
};
width = 1307;
}
);
note = K;
unicode = 75;
},
{
glyphname = L;
lastChange = "2025-08-23 01:57:26 +0000";
layers = (
{
layerId = m01;
shapes = (
{
closed = 1;
nodes = (
(932,381,l),
(899,135,ls),
(894,100,o),
(854,100,qs),
(424,100,l),
(424,1233,ls),
(424,1275,o),
(469,1278,qs),
(578,1286,l),
(578,1374,l),
(55,1374,l),
(55,1286,l),
(174,1278,ls),
(217,1275,o),
(217,1233,qs),
(217,141,ls),
(217,99,o),
(174,96,qs),
(55,88,l),
(55,0,l),
(1051,0,l),
(1051,381,l)
);
}
);
userData = {
assembly = "PUSHW[ ]	/* 4 values pushed */
16 6 5 4
CALL[ ]	/* CallFunction */
SVTCA[0]	/* SetFreedomAndProjectionVectorToAxis */
PUSHW[ ]	/* 4 values pushed */
17 2 0 4
CALL[ ]	/* CallFunction */
PUSHW[ ]	/* 1 value pushed */
17
SRP0[ ]	/* SetRefPoint0 */
PUSHW[ ]	/* 1 value pushed */
2
MDRP[10000]	/* MoveDirectRelPt */
PUSHW[ ]	/* 1 value pushed */
2
MDAP[1]	/* MoveDirectAbsPt */
IUP[0]	/* InterpolateUntPts */
IUP[1]	/* InterpolateUntPts */";
};
width = 1077;
},
{
layerId = m002;
shapes = (
{
closed = 1;
nodes = (
(932,381,l),
(899,135,ls),
(894,100,o),
(854,100,qs),
(424,100,l),
(424,1233,ls),
(424,1275,o),
(469,1278,qs),
(578,1286,l),
(578,1374,l),
(55,1374,l),
(55,1286,l),
(174,1278,ls),
(217,1275,o),
(217,1233,qs),
(217,141,ls),
(217,99,o),
(174,96,qs),
(55,88,l),
(55,0,l),
(1051,0,l),
(1051,381,l)
);
}
);
userData = {
assembly = "PUSHW[ ]	/* 4 values pushed */
16 6 5 4
CALL[ ]	/* CallFunction */
SVTCA[0]	/* SetFreedomAndProjectionVectorToAxis */
PUSHW[ ]	/* 4 values pushed */
17 2 0 4
CALL[ ]	/* CallFunction */
PUSHW[ ]	/* 1 value pushed */
17
SRP0[ ]	/* SetRefPoint0 */
PUSHW[ ]	/* 1 value pushed */
2
MDRP[10000]	/* MoveDirectRelPt */
PUSHW[ ]	/* 1 value pushed */
2
MDAP[1]	/* MoveDirectAbsPt */
IUP[0]	/* InterpolateUntPts */
IUP[1]	/* InterpolateUntPts */";
};
width = 1077;
}
);
note = L;
unicode = 76;
},
{
glyphname = M;
lastChange = "2025-08-23 01:57:26 +0000";
layers = (
{
layerId = m01;
shapes = (
{
closed = 1;
nodes = (
(1612,96,ls),
(1567,99,o),
(1567,141,qs),
(1567,1233,ls),
(1567,1275,o),
(1612,1278,qs),
(1722,1286,l),
(1722,1374,l),
(1260,1374,l),
(1260,1313,l),
(889,313,l),
(518,1319,l),
(518,1374,l),
(59,1374,l),
(59,1286,l),
(176,1278,ls),
(219,1275,o),
(219,1233,qs),
(219,141,ls),
(219,99,o),
(176,96,qs),
(59,88,l),
(59,0,l),
(502,0,l),
(502,88,l),
(385,96,ls),
(340,99,o),
(340,141,qs),
(340,1251,l),
(795,0,l),
(897,0,l),
(1368,1270,l),
(1368,141,ls),
(1368,99,o),
(1323,96,qs),
(1214,88,l),
(1214,0,l),
(1722,0,l),
(1722,88,l)
);
}
);
userData = {
assembly = "PUSHW[ ]	/* 4 values pushed */
10 5 19 4
CALL[ ]	/* CallFunction */
PUSHW[ ]	/* 4 values pushed */
35 6 5 4
CALL[ ]	/* CallFunction */
PUSHW[ ]	/* 3 values pushed */
27 19 35
SRP1[ ]	/* SetRefPoint1 */
SRP2[ ]	/* SetRefPoint2 */
IP[ ]	/* InterpolatePts */
IUP[0]	/* InterpolateUntPts */
IUP[1]	/* InterpolateUntPts */";
};
width = 1784;
},
{
layerId = m002;
shapes = (
{
closed = 1;
nodes = (
(1612,96,ls),
(1567,99,o),
(1567,141,qs),
(1567,1233,ls),
(1567,1275,o),
(1612,1278,qs),
(1722,1286,l),
(1722,1374,l),
(1260,1374,l),
(1260,1313,l),
(889,313,l),
(518,1319,l),
(518,1374,l),
(59,1374,l),
(59,1286,l),
(176,1278,ls),
(219,1275,o),
(219,1233,qs),
(219,141,ls),
(219,99,o),
(176,96,qs),
(59,88,l),
(59,0,l),
(502,0,l),
(502,88,l),
(385,96,ls),
(340,99,o),
(340,141,qs),
(340,1251,l),
(795,0,l),
(897,0,l),
(1368,1270,l),
(1368,141,ls),
(1368,99,o),
(1323,96,qs),
(1214,88,l),
(1214,0,l),
(1722,0,l),
(1722,88,l)
);
}
);
userData = {
assembly = "PUSHW[ ]	/* 4 values pushed */
10 5 19 4
CALL[ ]	/* CallFunction */
PUSHW[ ]	/* 4 values pushed */
35 6 5 4
CALL[ ]	/* CallFunction */
PUSHW[ ]	/* 3 values pushed */
27 19 35
SRP1[ ]	/* SetRefPoint1 */
SRP2[ ]	/* SetRefPoint2 */
IP[ ]	/* InterpolatePts */
IUP[0]	/* InterpolateUntPts */
IUP[1]	/* InterpolateUntPts */";
};
width = 1784;
}
);
note = M;
unicode = 77;
},
{
glyphname = N;
lastChange = "2025-08-23 01:57:26 +0000";
layers = (
{
layerId = m01;
shapes = (
{
closed = 1;
nodes = (
(979,1374,l),
(979,1286,l),
(1096,1278,ls),
(1139,1275,o),
(1139,1233,qs),
(1139,293,l),
(457,1323,l),
(457,1374,l),
(51,1374,l),
(51,1286,l),
(172,1278,ls),
(217,1275,o),
(217,1233,qs),
(217,141,ls),
(217,99,o),
(172,96,qs),
(55,88,l),
(55,0,l),
(498,0,l),
(498,88,l),
(381,96,ls),
(338,99,o),
(338,141,qs),
(338,1147,l),
(1100,0,l),
(1260,0,l),
(1260,1233,ls),
(1260,1275,o),
(1303,1278,qs),
(1417,1286,l),
(1417,1374,l)
);
}
);
userData = {
assembly = "PUSHW[ ]	/* 1 value pushed */
31
MDAP[1]	/* MoveDirectAbsPt */
PUSHW[ ]	/* 1 value pushed */
32
MDAP[1]	/* MoveDirectAbsPt */
PUSHW[ ]	/* 1 value pushed */
4
MDRP[11100]	/* MoveDirectRelPt */
PUSHW[ ]	/* 1 value pushed */
31
SRP0[ ]	/* SetRefPoint0 */
PUSHW[ ]	/* 1 value pushed */
16
MDRP[10000]	/* MoveDirectRelPt */
PUSHW[ ]	/* 1 value pushed */
16
MDAP[1]	/* MoveDirectAbsPt */
PUSHW[ ]	/* 2 values pushed */
7 5
MIRP[11100]	/* MoveIndirectRelPt */
PUSHW[ ]	/* 1 value pushed */
4
SRP0[ ]	/* SetRefPoint0 */
PUSHW[ ]	/* 2 values pushed */
24 5
MIRP[11100]	/* MoveIndirectRelPt */
IUP[0]	/* InterpolateUntPts */
IUP[1]	/* InterpolateUntPts */";
};
width = 1466;
},
{
layerId = m002;
shapes = (
{
closed = 1;
nodes = (
(979,1374,l),
(979,1286,l),
(1096,1278,ls),
(1139,1275,o),
(1139,1233,qs),
(1139,293,l),
(457,1323,l),
(457,1374,l),
(51,1374,l),
(51,1286,l),
(172,1278,ls),
(217,1275,o),
(217,1233,qs),
(217,141,ls),
(217,99,o),
(172,96,qs),
(55,88,l),
(55,0,l),
(498,0,l),
(498,88,l),
(381,96,ls),
(338,99,o),
(338,141,qs),
(338,1147,l),
(1100,0,l),
(1260,0,l),
(1260,1233,ls),
(1260,1275,o),
(1303,1278,qs),
(1417,1286,l),
(1417,1374,l)
);
}
);
userData = {
assembly = "PUSHW[ ]	/* 1 value pushed */
31
MDAP[1]	/* MoveDirectAbsPt */
PUSHW[ ]	/* 1 value pushed */
32
MDAP[1]	/* MoveDirectAbsPt */
PUSHW[ ]	/* 1 value pushed */
4
MDRP[11100]	/* MoveDirectRelPt */
PUSHW[ ]	/* 1 value pushed */
31
SRP0[ ]	/* SetRefPoint0 */
PUSHW[ ]	/* 1 value pushed */
16
MDRP[10000]	/* MoveDirectRelPt */
PUSHW[ ]	/* 1 value pushed */
16
MDAP[1]	/* MoveDirectAbsPt */
PUSHW[ ]	/* 2 values pushed */
7 5
MIRP[11100]	/* MoveIndirectRelPt */
PUSHW[ ]	/* 1 value pushed */
4
SRP0[ ]	/* SetRefPoint0 */
PUSHW[ ]	/* 2 values pushed */
24 5
MIRP[11100]	/* MoveIndirectRelPt */
IUP[0]	/* InterpolateUntPts */
IUP[1]	/* InterpolateUntPts */";
};
width = 1466;
}
);
note = N;
unicode = 78;
},
{
glyphname = O;
lastChange = "2025-08-23 01:57:26 +0000";
layers = (
{
layerId = m01;
shapes = (
{
closed = 1;
nodes = (
(1241,1196,qs),
(1052,1409,o),
(754,1409,qs),
(455,1409,o),
(267,1198,qs),
(86,995,o),
(86,688,qs),
(86,376,o),
(270,173,qs),
(458,-33,o),
(756,-33,qs),
(1051,-33,o),
(1240,178,qs),
(1423,382,o),
(1423,686,qs),
(1423,991,o)
);
},
{
closed = 1;
nodes = (
(1080,261,qs),
(963,80,o),
(752,80,qs),
(544,80,o),
(428,261,qs),
(322,426,o),
(322,688,qs),
(322,949,o),
(428,1112,qs),
(544,1292,o),
(756,1292,qs),
(962,1292,o),
(1079,1113,qs),
(1186,948,o),
(1186,684,qs),
(1186,425,o)
);
}
);
userData = {
assembly = "PUSHW[ ]	/* 1 value pushed */
32
MDAP[1]	/* MoveDirectAbsPt */
PUSHW[ ]	/* 1 value pushed */
33
MDAP[1]	/* MoveDirectAbsPt */
PUSHW[ ]	/* 1 value pushed */
0
MDRP[11100]	/* MoveDirectRelPt */
PUSHW[ ]	/* 1 value pushed */
32
SRP0[ ]	/* SetRefPoint0 */
PUSHW[ ]	/* 1 value pushed */
8
MDRP[10000]	/* MoveDirectRelPt */
PUSHW[ ]	/* 1 value pushed */
8
MDAP[1]	/* MoveDirectAbsPt */
PUSHW[ ]	/* 1 value pushed */
0
SRP0[ ]	/* SetRefPoint0 */
PUSHW[ ]	/* 2 values pushed */
16 6
MIRP[11100]	/* MoveIndirectRelPt */
NPUSHW[ ]	/* 5 values pushed */
218 16 234 16 2
DELTAP1[ ]	/* DeltaExceptionP1 */
NPUSHW[ ]	/* 15 values pushed */
105 16 121 16 137 16 153 16 169 16 185 16 201 16 7
DELTAP1[ ]	/* DeltaExceptionP1 */
PUSHW[ ]	/* 1 value pushed */
8
SRP0[ ]	/* SetRefPoint0 */
PUSHW[ ]	/* 2 values pushed */
24 6
MIRP[11100]	/* MoveIndirectRelPt */
NPUSHW[ ]	/* 15 values pushed */
102 24 118 24 134 24 150 24 166 24 182 24 198 24 7
DELTAP1[ ]	/* DeltaExceptionP1 */
NPUSHW[ ]	/* 5 values pushed */
213 24 229 24 2
DELTAP1[ ]	/* DeltaExceptionP1 */
SVTCA[0]	/* SetFreedomAndProjectionVectorToAxis */
PUSHW[ ]	/* 4 values pushed */
28 2 4 4
CALL[ ]	/* CallFunction */
PUSHW[ ]	/* 4 values pushed */
12 2 20 4
CALL[ ]	/* CallFunction */
IUP[0]	/* InterpolateUntPts */
IUP[1]	/* InterpolateUntPts */";
};
width = 1507;
},
{
layerId = m002;
shapes = (
{
closed = 1;
nodes = (
(1241,1196,qs),
(1052,1409,o),
(754,1409,qs),
(455,1409,o),
(267,1198,qs),
(86,995,o),
(86,688,qs),
(86,376,o),
(270,173,qs),
(458,-33,o),
(756,-33,qs),
(1051,-33,o),
(1240,178,qs),
(1423,382,o),
(1423,686,qs),
(1423,991,o)
);
},
{
closed = 1;
nodes = (
(1080,261,qs),
(963,80,o),
(752,80,qs),
(544,80,o),
(428,261,qs),
(322,426,o),
(322,688,qs),
(322,949,o),
(428,1112,qs),
(544,1292,o),
(756,1292,qs),
(962,1292,o),
(1079,1113,qs),
(1186,948,o),
(1186,684,qs),
(1186,425,o)
);
}
);
userData = {
assembly = "PUSHW[ ]	/* 1 value pushed */
32
MDAP[1]	/* MoveDirectAbsPt */
PUSHW[ ]	/* 1 value pushed */
33
MDAP[1]	/* MoveDirectAbsPt */
PUSHW[ ]	/* 1 value pushed */
0
MDRP[11100]	/* MoveDirectRelPt */
PUSHW[ ]	/* 1 value pushed */
32
SRP0[ ]	/* SetRefPoint0 */
PUSHW[ ]	/* 1 value pushed */
8
MDRP[10000]	/* MoveDirectRelPt */
PUSHW[ ]	/* 1 value pushed */
8
MDAP[1]	/* MoveDirectAbsPt */
PUSHW[ ]	/* 1 value pushed */
0
SRP0[ ]	/* SetRefPoint0 */
PUSHW[ ]	/* 2 values pushed */
16 6
MIRP[11100]	/* MoveIndirectRelPt */
NPUSHW[ ]	/* 5 values pushed */
218 16 234 16 2
DELTAP1[ ]	/* DeltaExceptionP1 */
NPUSHW[ ]	/* 15 values pushed */
105 16 121 16 137 16 153 16 169 16 185 16 201 16 7
DELTAP1[ ]	/* DeltaExceptionP1 */
PUSHW[ ]	/* 1 value pushed */
8
SRP0[ ]	/* SetRefPoint0 */
PUSHW[ ]	/* 2 values pushed */
24 6
MIRP[11100]	/* MoveIndirectRelPt */
NPUSHW[ ]	/* 15 values pushed */
102 24 118 24 134 24 150 24 166 24 182 24 198 24 7
DELTAP1[ ]	/* DeltaExceptionP1 */
NPUSHW[ ]	/* 5 values pushed */
213 24 229 24 2
DELTAP1[ ]	/* DeltaExceptionP1 */
SVTCA[0]	/* SetFreedomAndProjectionVectorToAxis */
PUSHW[ ]	/* 4 values pushed */
28 2 4 4
CALL[ ]	/* CallFunction */
PUSHW[ ]	/* 4 values pushed */
12 2 20 4
CALL[ ]	/* CallFunction */
IUP[0]	/* InterpolateUntPts */
IUP[1]	/* InterpolateUntPts */";
};
width = 1507;
}
);
note = O;
unicode = 79;
},
{
glyphname = P;
lastChange = "2025-08-23 01:57:26 +0000";
layers = (
{
layerId = m01;
shapes = (
{
closed = 1;
nodes = (
(969,1281,qs),
(837,1374,o),
(541,1374,qs),
(51,1374,l),
(51,1286,l),
(174,1278,ls),
(219,1275,o),
(219,1233,qs),
(219,141,ls),
(219,99,o),
(174,96,qs),
(66,88,l),
(66,0,l),
(604,0,l),
(604,88,l),
(469,96,ls),
(426,99,o),
(426,141,qs),
(426,522,l),
(463,515,o),
(571,514,qs),
(805,513,o),
(950,624,qs),
(1106,744,o),
(1106,961,qs),
(1106,1184,o)
);
},
{
closed = 1;
nodes = (
(541,616,qs),
(518,616,o),
(425,627,o),
(426,627,q),
(426,1272,l),
(494,1274,o),
(530,1274,qs),
(893,1274,o),
(893,958,qs),
(893,613,o)
);
}
);
userData = {
assembly = "PUSHW[ ]	/* 1 value pushed */
36
MDAP[1]	/* MoveDirectAbsPt */
PUSHW[ ]	/* 1 value pushed */
37
MDAP[1]	/* MoveDirectAbsPt */
PUSHW[ ]	/* 1 value pushed */
0
MDRP[11100]	/* MoveDirectRelPt */
PUSHW[ ]	/* 1 value pushed */
36
SRP0[ ]	/* SetRefPoint0 */
PUSHW[ ]	/* 1 value pushed */
16
MDRP[10000]	/* MoveDirectRelPt */
PUSHW[ ]	/* 1 value pushed */
16
MDAP[1]	/* MoveDirectAbsPt */
PUSHW[ ]	/* 2 values pushed */
7 6
MIRP[11100]	/* MoveIndirectRelPt */
PUSHW[ ]	/* 1 value pushed */
0
SRP0[ ]	/* SetRefPoint0 */
PUSHW[ ]	/* 2 values pushed */
26 6
MIRP[11100]	/* MoveIndirectRelPt */
NPUSHW[ ]	/* 5 values pushed */
218 26 234 26 2
DELTAP1[ ]	/* DeltaExceptionP1 */
NPUSHW[ ]	/* 15 values pushed */
105 26 121 26 137 26 153 26 169 26 185 26 201 26 7
DELTAP1[ ]	/* DeltaExceptionP1 */
PUSHW[ ]	/* 1 value pushed */
7
SRP0[ ]	/* SetRefPoint0 */
PUSHW[ ]	/* 1 value pushed */
30
MDRP[10000]	/* MoveDirectRelPt */
SVTCA[0]	/* SetFreedomAndProjectionVectorToAxis */
PUSHW[ ]	/* 4 values pushed */
22 2 28 4
CALL[ ]	/* CallFunction */
PUSHW[ ]	/* 4 values pushed */
34 2 4 4
CALL[ ]	/* CallFunction */
PUSHW[ ]	/* 1 value pushed */
4
SRP0[ ]	/* SetRefPoint0 */
PUSHW[ ]	/* 1 value pushed */
6
MDRP[10000]	/* MoveDirectRelPt */
PUSHW[ ]	/* 1 value pushed */
6
MDAP[1]	/* MoveDirectAbsPt */
PUSHW[ ]	/* 1 value pushed */
28
SRP0[ ]	/* SetRefPoint0 */
PUSHW[ ]	/* 1 value pushed */
19
MDRP[10000]	/* MoveDirectRelPt */
PUSHW[ ]	/* 1 value pushed */
19
MDAP[1]	/* MoveDirectAbsPt */
PUSHW[ ]	/* 1 value pushed */
28
SRP0[ ]	/* SetRefPoint0 */
PUSHW[ ]	/* 1 value pushed */
30
MDRP[10000]	/* MoveDirectRelPt */
PUSHW[ ]	/* 1 value pushed */
30
MDAP[1]	/* MoveDirectAbsPt */
IUP[0]	/* InterpolateUntPts */
IUP[1]	/* InterpolateUntPts */";
};
width = 1157;
},
{
layerId = m002;
shapes = (
{
closed = 1;
nodes = (
(969,1281,qs),
(837,1374,o),
(541,1374,qs),
(51,1374,l),
(51,1286,l),
(174,1278,ls),
(219,1275,o),
(219,1233,qs),
(219,141,ls),
(219,99,o),
(174,96,qs),
(66,88,l),
(66,0,l),
(604,0,l),
(604,88,l),
(469,96,ls),
(426,99,o),
(426,141,qs),
(426,522,l),
(463,515,o),
(571,514,qs),
(805,513,o),
(950,624,qs),
(1106,744,o),
(1106,961,qs),
(1106,1184,o)
);
},
{
closed = 1;
nodes = (
(541,616,qs),
(518,616,o),
(425,627,o),
(426,627,q),
(426,1272,l),
(494,1274,o),
(530,1274,qs),
(893,1274,o),
(893,958,qs),
(893,613,o)
);
}
);
userData = {
assembly = "PUSHW[ ]	/* 1 value pushed */
36
MDAP[1]	/* MoveDirectAbsPt */
PUSHW[ ]	/* 1 value pushed */
37
MDAP[1]	/* MoveDirectAbsPt */
PUSHW[ ]	/* 1 value pushed */
0
MDRP[11100]	/* MoveDirectRelPt */
PUSHW[ ]	/* 1 value pushed */
36
SRP0[ ]	/* SetRefPoint0 */
PUSHW[ ]	/* 1 value pushed */
16
MDRP[10000]	/* MoveDirectRelPt */
PUSHW[ ]	/* 1 value pushed */
16
MDAP[1]	/* MoveDirectAbsPt */
PUSHW[ ]	/* 2 values pushed */
7 6
MIRP[11100]	/* MoveIndirectRelPt */
PUSHW[ ]	/* 1 value pushed */
0
SRP0[ ]	/* SetRefPoint0 */
PUSHW[ ]	/* 2 values pushed */
26 6
MIRP[11100]	/* MoveIndirectRelPt */
NPUSHW[ ]	/* 5 values pushed */
218 26 234 26 2
DELTAP1[ ]	/* DeltaExceptionP1 */
NPUSHW[ ]	/* 15 values pushed */
105 26 121 26 137 26 153 26 169 26 185 26 201 26 7
DELTAP1[ ]	/* DeltaExceptionP1 */
PUSHW[ ]	/* 1 value pushed */
7
SRP0[ ]	/* SetRefPoint0 */
PUSHW[ ]	/* 1 value pushed */
30
MDRP[10000]	/* MoveDirectRelPt */
SVTCA[0]	/* SetFreedomAndProjectionVectorToAxis */
PUSHW[ ]	/* 4 values pushed */
22 2 28 4
CALL[ ]	/* CallFunction */
PUSHW[ ]	/* 4 values pushed */
34 2 4 4
CALL[ ]	/* CallFunction */
PUSHW[ ]	/* 1 value pushed */
4
SRP0[ ]	/* SetRefPoint0 */
PUSHW[ ]	/* 1 value pushed */
6
MDRP[10000]	/* MoveDirectRelPt */
PUSHW[ ]	/* 1 value pushed */
6
MDAP[1]	/* MoveDirectAbsPt */
PUSHW[ ]	/* 1 value pushed */
28
SRP0[ ]	/* SetRefPoint0 */
PUSHW[ ]	/* 1 value pushed */
19
MDRP[10000]	/* MoveDirectRelPt */
PUSHW[ ]	/* 1 value pushed */
19
MDAP[1]	/* MoveDirectAbsPt */
PUSHW[ ]	/* 1 value pushed */
28
SRP0[ ]	/* SetRefPoint0 */
PUSHW[ ]	/* 1 value pushed */
30
MDRP[10000]	/* MoveDirectRelPt */
PUSHW[ ]	/* 1 value pushed */
30
MDAP[1]	/* MoveDirectAbsPt */
IUP[0]	/* InterpolateUntPts */
IUP[1]	/* InterpolateUntPts */";
};
width = 1157;
}
);
note = P;
unicode = 80;
},
{
glyphname = Q;
lastChange = "2025-08-23 01:57:26 +0000";
layers = (
{
layerId = m01;
shapes = (
{
closed = 1;
nodes = (
(1256,1199,qs),
(1066,1409,o),
(760,1409,qs),
(459,1409,o),
(269,1198,qs),
(86,994,o),
(86,686,qs),
(86,392,o),
(248,200,qs),
(402,16,o),
(655,-20,q),
(655,-360,o),
(1051,-360,qs),
(1195,-360,o),
(1354,-326,q),
(1354,-238,l),
(1255,-260,o),
(1157,-260,qs),
(877,-260,o),
(874,-16,q),
(1137,27,o),
(1290,218,qs),
(1440,407,o),
(1440,686,qs),
(1440,996,o)
);
},
{
closed = 1;
nodes = (
(1091,265,qs),
(973,86,o),
(762,86,qs),
(553,86,o),
(434,267,qs),
(326,433,o),
(326,690,qs),
(326,951,o),
(432,1114,qs),
(549,1294,o),
(762,1294,qs),
(976,1294,o),
(1093,1111,qs),
(1198,946,o),
(1198,686,qs),
(1198,429,o)
);
}
);
userData = {
assembly = "PUSHW[ ]	/* 4 values pushed */
33 6 17 4
CALL[ ]	/* CallFunction */
PUSHW[ ]	/* 4 values pushed */
4 6 13 4
CALL[ ]	/* CallFunction */
PUSHW[ ]	/* 4 values pushed */
0 6 25 4
CALL[ ]	/* CallFunction */
NPUSHW[ ]	/* 5 values pushed */
218 13 234 13 2
DELTAP1[ ]	/* DeltaExceptionP1 */
NPUSHW[ ]	/* 15 values pushed */
105 13 121 13 137 13 153 13 169 13 185 13 201 13 7
DELTAP1[ ]	/* DeltaExceptionP1 */
NPUSHW[ ]	/* 5 values pushed */
218 25 234 25 2
DELTAP1[ ]	/* DeltaExceptionP1 */
NPUSHW[ ]	/* 15 values pushed */
105 25 121 25 137 25 153 25 169 25 185 25 201 25 7
DELTAP1[ ]	/* DeltaExceptionP1 */
NPUSHW[ ]	/* 15 values pushed */
102 33 118 33 134 33 150 33 166 33 182 33 198 33 7
DELTAP1[ ]	/* DeltaExceptionP1 */
NPUSHW[ ]	/* 5 values pushed */
213 33 229 33 2
DELTAP1[ ]	/* DeltaExceptionP1 */
SVTCA[0]	/* SetFreedomAndProjectionVectorToAxis */
PUSHW[ ]	/* 4 values pushed */
6 2 11 4
CALL[ ]	/* CallFunction */
PUSHW[ ]	/* 4 values pushed */
21 2 29 4
CALL[ ]	/* CallFunction */
IUP[0]	/* InterpolateUntPts */
IUP[1]	/* InterpolateUntPts */";
};
width = 1520;
},
{
layerId = m002;
shapes = (
{
closed = 1;
nodes = (
(1256,1199,qs),
(1066,1409,o),
(760,1409,qs),
(459,1409,o),
(269,1198,qs),
(86,994,o),
(86,686,qs),
(86,392,o),
(248,200,qs),
(402,16,o),
(655,-20,q),
(655,-360,o),
(1051,-360,qs),
(1195,-360,o),
(1354,-326,q),
(1354,-238,l),
(1255,-260,o),
(1157,-260,qs),
(877,-260,o),
(874,-16,q),
(1137,27,o),
(1290,218,qs),
(1440,407,o),
(1440,686,qs),
(1440,996,o)
);
},
{
closed = 1;
nodes = (
(1091,265,qs),
(973,86,o),
(762,86,qs),
(553,86,o),
(434,267,qs),
(326,433,o),
(326,690,qs),
(326,951,o),
(432,1114,qs),
(549,1294,o),
(762,1294,qs),
(976,1294,o),
(1093,1111,qs),
(1198,946,o),
(1198,686,qs),
(1198,429,o)
);
}
);
userData = {
assembly = "PUSHW[ ]	/* 4 values pushed */
33 6 17 4
CALL[ ]	/* CallFunction */
PUSHW[ ]	/* 4 values pushed */
4 6 13 4
CALL[ ]	/* CallFunction */
PUSHW[ ]	/* 4 values pushed */
0 6 25 4
CALL[ ]	/* CallFunction */
NPUSHW[ ]	/* 5 values pushed */
218 13 234 13 2
DELTAP1[ ]	/* DeltaExceptionP1 */
NPUSHW[ ]	/* 15 values pushed */
105 13 121 13 137 13 153 13 169 13 185 13 201 13 7
DELTAP1[ ]	/* DeltaExceptionP1 */
NPUSHW[ ]	/* 5 values pushed */
218 25 234 25 2
DELTAP1[ ]	/* DeltaExceptionP1 */
NPUSHW[ ]	/* 15 values pushed */
105 25 121 25 137 25 153 25 169 25 185 25 201 25 7
DELTAP1[ ]	/* DeltaExceptionP1 */
NPUSHW[ ]	/* 15 values pushed */
102 33 118 33 134 33 150 33 166 33 182 33 198 33 7
DELTAP1[ ]	/* DeltaExceptionP1 */
NPUSHW[ ]	/* 5 values pushed */
213 33 229 33 2
DELTAP1[ ]	/* DeltaExceptionP1 */
SVTCA[0]	/* SetFreedomAndProjectionVectorToAxis */
PUSHW[ ]	/* 4 values pushed */
6 2 11 4
CALL[ ]	/* CallFunction */
PUSHW[ ]	/* 4 values pushed */
21 2 29 4
CALL[ ]	/* CallFunction */
IUP[0]	/* InterpolateUntPts */
IUP[1]	/* InterpolateUntPts */";
};
width = 1520;
}
);
note = Q;
unicode = 81;
},
{
glyphname = R;
lastChange = "2025-08-23 01:57:26 +0000";
layers = (
{
layerId = m01;
shapes = (
{
closed = 1;
nodes = (
(1183,86,o),
(1083,200,o),
(1010,501,o),
(944,578,qs),
(892,638,o),
(768,668,q),
(1104,743,o),
(1104,1010,qs),
(1104,1374,o),
(602,1374,qs),
(68,1374,l),
(68,1286,l),
(174,1278,ls),
(219,1275,o),
(219,1233,qs),
(219,141,ls),
(219,99,o),
(174,96,qs),
(68,88,l),
(68,0,l),
(578,0,l),
(578,88,l),
(469,96,ls),
(426,99,o),
(426,141,qs),
(426,608,l),
(423,608,o),
(492,612,o),
(518,612,qs),
(690,612,o),
(762,518,qs),
(806,461,o),
(854,291,qs),
(900,130,o),
(1032,-14,o),
(1196,-14,q),
(1187,-14,o),
(1331,2,q),
(1331,86,l)
);
},
{
closed = 1;
nodes = (
(790,774,qs),
(706,711,o),
(528,711,qs),
(508,711,o),
(426,713,q),
(426,1274,l),
(520,1274,ls),
(881,1274,o),
(881,1001,qs),
(881,843,o)
);
}
);
userData = {
assembly = "PUSHW[ ]	/* 1 value pushed */
49
MDAP[1]	/* MoveDirectAbsPt */
PUSHW[ ]	/* 1 value pushed */
50
MDAP[1]	/* MoveDirectAbsPt */
PUSHW[ ]	/* 1 value pushed */
49
SRP0[ ]	/* SetRefPoint0 */
PUSHW[ ]	/* 1 value pushed */
22
MDRP[10000]	/* MoveDirectRelPt */
PUSHW[ ]	/* 1 value pushed */
22
MDAP[1]	/* MoveDirectAbsPt */
PUSHW[ ]	/* 2 values pushed */
13 6
MIRP[11100]	/* MoveIndirectRelPt */
PUSHW[ ]	/* 1 value pushed */
50
SRP0[ ]	/* SetRefPoint0 */
PUSHW[ ]	/* 1 value pushed */
30
MDRP[11100]	/* MoveDirectRelPt */
PUSHW[ ]	/* 3 values pushed */
32 22 30
SRP1[ ]	/* SetRefPoint1 */
SRP2[ ]	/* SetRefPoint2 */
IP[ ]	/* InterpolatePts */
PUSHW[ ]	/* 2 values pushed */
39 6
MIRP[11100]	/* MoveIndirectRelPt */
NPUSHW[ ]	/* 5 values pushed */
218 39 234 39 2
DELTAP1[ ]	/* DeltaExceptionP1 */
NPUSHW[ ]	/* 15 values pushed */
105 39 121 39 137 39 153 39 169 39 185 39 201 39 7
DELTAP1[ ]	/* DeltaExceptionP1 */
PUSHW[ ]	/* 1 value pushed */
13
SRP0[ ]	/* SetRefPoint0 */
PUSHW[ ]	/* 1 value pushed */
42
MDRP[10000]	/* MoveDirectRelPt */
SVTCA[0]	/* SetFreedomAndProjectionVectorToAxis */
PUSHW[ ]	/* 1 value pushed */
2
MDAP[1]	/* MoveDirectAbsPt */
PUSHW[ ]	/* 1 value pushed */
17
MDAP[1]	/* MoveDirectAbsPt */
PUSHW[ ]	/* 4 values pushed */
28 2 41 4
CALL[ ]	/* CallFunction */
PUSHW[ ]	/* 4 values pushed */
45 2 9 4
CALL[ ]	/* CallFunction */
PUSHW[ ]	/* 1 value pushed */
17
SRP0[ ]	/* SetRefPoint0 */
PUSHW[ ]	/* 2 values pushed */
38 2
MIRP[11100]	/* MoveIndirectRelPt */
PUSHW[ ]	/* 1 value pushed */
15
MDRP[10000]	/* MoveDirectRelPt */
PUSHW[ ]	/* 1 value pushed */
15
MDAP[1]	/* MoveDirectAbsPt */
PUSHW[ ]	/* 1 value pushed */
38
SRP0[ ]	/* SetRefPoint0 */
PUSHW[ ]	/* 1 value pushed */
19
MDRP[10000]	/* MoveDirectRelPt */
PUSHW[ ]	/* 1 value pushed */
19
MDAP[1]	/* MoveDirectAbsPt */
PUSHW[ ]	/* 1 value pushed */
41
SRP0[ ]	/* SetRefPoint0 */
PUSHW[ ]	/* 1 value pushed */
25
MDRP[10000]	/* MoveDirectRelPt */
PUSHW[ ]	/* 1 value pushed */
25
MDAP[1]	/* MoveDirectAbsPt */
PUSHW[ ]	/* 3 values pushed */
32 9 45
SRP1[ ]	/* SetRefPoint1 */
SRP2[ ]	/* SetRefPoint2 */
IP[ ]	/* InterpolatePts */
PUSHW[ ]	/* 1 value pushed */
45
SRP0[ ]	/* SetRefPoint0 */
PUSHW[ ]	/* 1 value pushed */
43
MDRP[10000]	/* MoveDirectRelPt */
PUSHW[ ]	/* 1 value pushed */
43
MDAP[1]	/* MoveDirectAbsPt */
IUP[0]	/* InterpolateUntPts */
IUP[1]	/* InterpolateUntPts */";
};
width = 1331;
},
{
layerId = m002;
shapes = (
{
closed = 1;
nodes = (
(1183,86,o),
(1083,200,o),
(1010,501,o),
(944,578,qs),
(892,638,o),
(768,668,q),
(1104,743,o),
(1104,1010,qs),
(1104,1374,o),
(602,1374,qs),
(68,1374,l),
(68,1286,l),
(174,1278,ls),
(219,1275,o),
(219,1233,qs),
(219,141,ls),
(219,99,o),
(174,96,qs),
(68,88,l),
(68,0,l),
(578,0,l),
(578,88,l),
(469,96,ls),
(426,99,o),
(426,141,qs),
(426,608,l),
(423,608,o),
(492,612,o),
(518,612,qs),
(690,612,o),
(762,518,qs),
(806,461,o),
(854,291,qs),
(900,130,o),
(1032,-14,o),
(1196,-14,q),
(1187,-14,o),
(1331,2,q),
(1331,86,l)
);
},
{
closed = 1;
nodes = (
(790,774,qs),
(706,711,o),
(528,711,qs),
(508,711,o),
(426,713,q),
(426,1274,l),
(520,1274,ls),
(881,1274,o),
(881,1001,qs),
(881,843,o)
);
}
);
userData = {
assembly = "PUSHW[ ]	/* 1 value pushed */
49
MDAP[1]	/* MoveDirectAbsPt */
PUSHW[ ]	/* 1 value pushed */
50
MDAP[1]	/* MoveDirectAbsPt */
PUSHW[ ]	/* 1 value pushed */
49
SRP0[ ]	/* SetRefPoint0 */
PUSHW[ ]	/* 1 value pushed */
22
MDRP[10000]	/* MoveDirectRelPt */
PUSHW[ ]	/* 1 value pushed */
22
MDAP[1]	/* MoveDirectAbsPt */
PUSHW[ ]	/* 2 values pushed */
13 6
MIRP[11100]	/* MoveIndirectRelPt */
PUSHW[ ]	/* 1 value pushed */
50
SRP0[ ]	/* SetRefPoint0 */
PUSHW[ ]	/* 1 value pushed */
30
MDRP[11100]	/* MoveDirectRelPt */
PUSHW[ ]	/* 3 values pushed */
32 22 30
SRP1[ ]	/* SetRefPoint1 */
SRP2[ ]	/* SetRefPoint2 */
IP[ ]	/* InterpolatePts */
PUSHW[ ]	/* 2 values pushed */
39 6
MIRP[11100]	/* MoveIndirectRelPt */
NPUSHW[ ]	/* 5 values pushed */
218 39 234 39 2
DELTAP1[ ]	/* DeltaExceptionP1 */
NPUSHW[ ]	/* 15 values pushed */
105 39 121 39 137 39 153 39 169 39 185 39 201 39 7
DELTAP1[ ]	/* DeltaExceptionP1 */
PUSHW[ ]	/* 1 value pushed */
13
SRP0[ ]	/* SetRefPoint0 */
PUSHW[ ]	/* 1 value pushed */
42
MDRP[10000]	/* MoveDirectRelPt */
SVTCA[0]	/* SetFreedomAndProjectionVectorToAxis */
PUSHW[ ]	/* 1 value pushed */
2
MDAP[1]	/* MoveDirectAbsPt */
PUSHW[ ]	/* 1 value pushed */
17
MDAP[1]	/* MoveDirectAbsPt */
PUSHW[ ]	/* 4 values pushed */
28 2 41 4
CALL[ ]	/* CallFunction */
PUSHW[ ]	/* 4 values pushed */
45 2 9 4
CALL[ ]	/* CallFunction */
PUSHW[ ]	/* 1 value pushed */
17
SRP0[ ]	/* SetRefPoint0 */
PUSHW[ ]	/* 2 values pushed */
38 2
MIRP[11100]	/* MoveIndirectRelPt */
PUSHW[ ]	/* 1 value pushed */
15
MDRP[10000]	/* MoveDirectRelPt */
PUSHW[ ]	/* 1 value pushed */
15
MDAP[1]	/* MoveDirectAbsPt */
PUSHW[ ]	/* 1 value pushed */
38
SRP0[ ]	/* SetRefPoint0 */
PUSHW[ ]	/* 1 value pushed */
19
MDRP[10000]	/* MoveDirectRelPt */
PUSHW[ ]	/* 1 value pushed */
19
MDAP[1]	/* MoveDirectAbsPt */
PUSHW[ ]	/* 1 value pushed */
41
SRP0[ ]	/* SetRefPoint0 */
PUSHW[ ]	/* 1 value pushed */
25
MDRP[10000]	/* MoveDirectRelPt */
PUSHW[ ]	/* 1 value pushed */
25
MDAP[1]	/* MoveDirectAbsPt */
PUSHW[ ]	/* 3 values pushed */
32 9 45
SRP1[ ]	/* SetRefPoint1 */
SRP2[ ]	/* SetRefPoint2 */
IP[ ]	/* InterpolatePts */
PUSHW[ ]	/* 1 value pushed */
45
SRP0[ ]	/* SetRefPoint0 */
PUSHW[ ]	/* 1 value pushed */
43
MDRP[10000]	/* MoveDirectRelPt */
PUSHW[ ]	/* 1 value pushed */
43
MDAP[1]	/* MoveDirectAbsPt */
IUP[0]	/* InterpolateUntPts */
IUP[1]	/* InterpolateUntPts */";
};
width = 1331;
}
);
note = R;
unicode = 82;
},
{
glyphname = S;
lastChange = "2025-08-23 01:57:26 +0000";
layers = (
{
layerId = m01;
shapes = (
{
closed = 1;
nodes = (
(895,626,qs),
(808,708,o),
(608,784,qs),
(324,892,o),
(324,1055,qs),
(324,1160,o),
(466,1288,o),
(588,1288,qs),
(710,1288,o),
(768,1249,q),
(796,1235,o),
(799,1214,qs),
(829,1018,l),
(946,1018,l),
(946,1337,l),
(751,1399,o),
(586,1399,qs),
(379,1399,o),
(248,1294,qs),
(113,1185,o),
(113,1006,qs),
(113,865,o),
(208,773,qs),
(270,712,o),
(428,637,qs),
(623,544,o),
(664,516,qs),
(788,431,o),
(788,324,qs),
(788,213,o),
(621,90,o),
(487,90,qs),
(379,90,o),
(281,129,qs),
(250,141,o),
(246,174,qs),
(219,406,l),
(90,406,l),
(90,43,l),
(250,-25,o),
(455,-25,qs),
(725,-25,o),
(870,102,qs),
(997,214,o),
(997,385,qs),
(997,530,o)
);
}
);
userData = {
assembly = "PUSHW[ ]	/* 1 value pushed */
46
MDAP[1]	/* MoveDirectAbsPt */
PUSHW[ ]	/* 1 value pushed */
47
MDAP[1]	/* MoveDirectAbsPt */
PUSHW[ ]	/* 1 value pushed */
0
MDRP[11100]	/* MoveDirectRelPt */
PUSHW[ ]	/* 2 values pushed */
16 6
MIRP[11100]	/* MoveIndirectRelPt */
NPUSHW[ ]	/* 5 values pushed */
218 16 234 16 2
DELTAP1[ ]	/* DeltaExceptionP1 */
NPUSHW[ ]	/* 15 values pushed */
105 16 121 16 137 16 153 16 169 16 185 16 201 16 7
DELTAP1[ ]	/* DeltaExceptionP1 */
PUSHW[ ]	/* 1 value pushed */
46
SRP0[ ]	/* SetRefPoint0 */
PUSHW[ ]	/* 1 value pushed */
24
MDRP[10000]	/* MoveDirectRelPt */
PUSHW[ ]	/* 1 value pushed */
24
MDAP[1]	/* MoveDirectAbsPt */
PUSHW[ ]	/* 1 value pushed */
16
SRP0[ ]	/* SetRefPoint0 */
PUSHW[ ]	/* 1 value pushed */
33
MDRP[10000]	/* MoveDirectRelPt */
PUSHW[ ]	/* 1 value pushed */
33
MDAP[1]	/* MoveDirectAbsPt */
PUSHW[ ]	/* 1 value pushed */
24
SRP0[ ]	/* SetRefPoint0 */
PUSHW[ ]	/* 2 values pushed */
40 6
MIRP[11100]	/* MoveIndirectRelPt */
NPUSHW[ ]	/* 15 values pushed */
102 40 118 40 134 40 150 40 166 40 182 40 198 40 7
DELTAP1[ ]	/* DeltaExceptionP1 */
NPUSHW[ ]	/* 5 values pushed */
213 40 229 40 2
DELTAP1[ ]	/* DeltaExceptionP1 */
SVTCA[0]	/* SetFreedomAndProjectionVectorToAxis */
PUSHW[ ]	/* 4 values pushed */
13 2 4 4
CALL[ ]	/* CallFunction */
PUSHW[ ]	/* 4 values pushed */
28 2 37 4
CALL[ ]	/* CallFunction */
IUP[0]	/* InterpolateUntPts */
IUP[1]	/* InterpolateUntPts */";
};
width = 1085;
},
{
layerId = m002;
shapes = (
{
closed = 1;
nodes = (
(895,626,qs),
(808,708,o),
(608,784,qs),
(324,892,o),
(324,1055,qs),
(324,1160,o),
(466,1288,o),
(588,1288,qs),
(710,1288,o),
(768,1249,q),
(796,1235,o),
(799,1214,qs),
(829,1018,l),
(946,1018,l),
(946,1337,l),
(751,1399,o),
(586,1399,qs),
(379,1399,o),
(248,1294,qs),
(113,1185,o),
(113,1006,qs),
(113,865,o),
(208,773,qs),
(270,712,o),
(428,637,qs),
(623,544,o),
(664,516,qs),
(788,431,o),
(788,324,qs),
(788,213,o),
(621,90,o),
(487,90,qs),
(379,90,o),
(281,129,qs),
(250,141,o),
(246,174,qs),
(219,406,l),
(90,406,l),
(90,43,l),
(250,-25,o),
(455,-25,qs),
(725,-25,o),
(870,102,qs),
(997,214,o),
(997,385,qs),
(997,530,o)
);
}
);
userData = {
assembly = "PUSHW[ ]	/* 1 value pushed */
46
MDAP[1]	/* MoveDirectAbsPt */
PUSHW[ ]	/* 1 value pushed */
47
MDAP[1]	/* MoveDirectAbsPt */
PUSHW[ ]	/* 1 value pushed */
0
MDRP[11100]	/* MoveDirectRelPt */
PUSHW[ ]	/* 2 values pushed */
16 6
MIRP[11100]	/* MoveIndirectRelPt */
NPUSHW[ ]	/* 5 values pushed */
218 16 234 16 2
DELTAP1[ ]	/* DeltaExceptionP1 */
NPUSHW[ ]	/* 15 values pushed */
105 16 121 16 137 16 153 16 169 16 185 16 201 16 7
DELTAP1[ ]	/* DeltaExceptionP1 */
PUSHW[ ]	/* 1 value pushed */
46
SRP0[ ]	/* SetRefPoint0 */
PUSHW[ ]	/* 1 value pushed */
24
MDRP[10000]	/* MoveDirectRelPt */
PUSHW[ ]	/* 1 value pushed */
24
MDAP[1]	/* MoveDirectAbsPt */
PUSHW[ ]	/* 1 value pushed */
16
SRP0[ ]	/* SetRefPoint0 */
PUSHW[ ]	/* 1 value pushed */
33
MDRP[10000]	/* MoveDirectRelPt */
PUSHW[ ]	/* 1 value pushed */
33
MDAP[1]	/* MoveDirectAbsPt */
PUSHW[ ]	/* 1 value pushed */
24
SRP0[ ]	/* SetRefPoint0 */
PUSHW[ ]	/* 2 values pushed */
40 6
MIRP[11100]	/* MoveIndirectRelPt */
NPUSHW[ ]	/* 15 values pushed */
102 40 118 40 134 40 150 40 166 40 182 40 198 40 7
DELTAP1[ ]	/* DeltaExceptionP1 */
NPUSHW[ ]	/* 5 values pushed */
213 40 229 40 2
DELTAP1[ ]	/* DeltaExceptionP1 */
SVTCA[0]	/* SetFreedomAndProjectionVectorToAxis */
PUSHW[ ]	/* 4 values pushed */
13 2 4 4
CALL[ ]	/* CallFunction */
PUSHW[ ]	/* 4 values pushed */
28 2 37 4
CALL[ ]	/* CallFunction */
IUP[0]	/* InterpolateUntPts */
IUP[1]	/* InterpolateUntPts */";
};
width = 1085;
}
);
note = S;
unicode = 83;
},
{
glyphname = T;
lastChange = "2025-08-23 01:57:26 +0000";
layers = (
{
layerId = m01;
shapes = (
{
closed = 1;
nodes = (
(33,1374,l),
(33,1047,l),
(152,1047,l),
(180,1239,ls),
(185,1274,o),
(215,1274,qs),
(510,1274,l),
(510,141,ls),
(510,99,o),
(467,96,qs),
(336,88,l),
(336,0,l),
(891,0,l),
(891,88,l),
(760,96,ls),
(717,99,o),
(717,141,qs),
(717,1274,l),
(1010,1274,ls),
(1039,1274,o),
(1044,1239,qs),
(1073,1047,l),
(1194,1047,l),
(1194,1374,l)
);
}
);
userData = {
assembly = "PUSHW[ ]	/* 4 values pushed */
6 6 15 4
CALL[ ]	/* CallFunction */
SVTCA[0]	/* SetFreedomAndProjectionVectorToAxis */
PUSHW[ ]	/* 4 values pushed */
23 2 4 4
CALL[ ]	/* CallFunction */
PUSHW[ ]	/* 1 value pushed */
23
SRP0[ ]	/* SetRefPoint0 */
PUSHW[ ]	/* 2 values pushed */
0 3
MIRP[11100]	/* MoveIndirectRelPt */
PUSHW[ ]	/* 1 value pushed */
4
SRP0[ ]	/* SetRefPoint0 */
PUSHW[ ]	/* 1 value pushed */
16
MDRP[10000]	/* MoveDirectRelPt */
PUSHW[ ]	/* 1 value pushed */
0
SRP0[ ]	/* SetRefPoint0 */
PUSHW[ ]	/* 1 value pushed */
20
MDRP[10000]	/* MoveDirectRelPt */
IUP[0]	/* InterpolateUntPts */
IUP[1]	/* InterpolateUntPts */";
};
width = 1227;
},
{
layerId = m002;
shapes = (
{
closed = 1;
nodes = (
(33,1374,l),
(33,1047,l),
(152,1047,l),
(180,1239,ls),
(185,1274,o),
(215,1274,qs),
(510,1274,l),
(510,141,ls),
(510,99,o),
(467,96,qs),
(336,88,l),
(336,0,l),
(891,0,l),
(891,88,l),
(760,96,ls),
(717,99,o),
(717,141,qs),
(717,1274,l),
(1010,1274,ls),
(1039,1274,o),
(1044,1239,qs),
(1073,1047,l),
(1194,1047,l),
(1194,1374,l)
);
}
);
userData = {
assembly = "PUSHW[ ]	/* 4 values pushed */
6 6 15 4
CALL[ ]	/* CallFunction */
SVTCA[0]	/* SetFreedomAndProjectionVectorToAxis */
PUSHW[ ]	/* 4 values pushed */
23 2 4 4
CALL[ ]	/* CallFunction */
PUSHW[ ]	/* 1 value pushed */
23
SRP0[ ]	/* SetRefPoint0 */
PUSHW[ ]	/* 2 values pushed */
0 3
MIRP[11100]	/* MoveIndirectRelPt */
PUSHW[ ]	/* 1 value pushed */
4
SRP0[ ]	/* SetRefPoint0 */
PUSHW[ ]	/* 1 value pushed */
16
MDRP[10000]	/* MoveDirectRelPt */
PUSHW[ ]	/* 1 value pushed */
0
SRP0[ ]	/* SetRefPoint0 */
PUSHW[ ]	/* 1 value pushed */
20
MDRP[10000]	/* MoveDirectRelPt */
IUP[0]	/* InterpolateUntPts */
IUP[1]	/* InterpolateUntPts */";
};
width = 1227;
}
);
note = T;
unicode = 84;
},
{
glyphname = U;
lastChange = "2025-08-23 01:57:26 +0000";
layers = (
{
layerId = m01;
shapes = (
{
closed = 1;
nodes = (
(954,1374,l),
(954,1286,l),
(1071,1278,ls),
(1116,1275,o),
(1116,1233,qs),
(1116,508,ls),
(1116,318,o),
(1047,225,qs),
(964,113,o),
(766,113,qs),
(566,113,o),
(485,221,qs),
(418,311,o),
(418,508,qs),
(418,1233,ls),
(418,1275,o),
(461,1278,qs),
(578,1286,l),
(578,1374,l),
(47,1374,l),
(47,1286,l),
(156,1278,ls),
(199,1275,o),
(199,1233,qs),
(199,455,ls),
(199,-25,o),
(709,-25,qs),
(1237,-25,o),
(1237,455,qs),
(1237,1233,ls),
(1237,1275,o),
(1280,1278,qs),
(1397,1286,l),
(1397,1374,l)
);
}
);
userData = {
assembly = "PUSHW[ ]	/* 4 values pushed */
19 6 8 4
CALL[ ]	/* CallFunction */
PUSHW[ ]	/* 4 values pushed */
4 5 27 4
CALL[ ]	/* CallFunction */
SVTCA[0]	/* SetFreedomAndProjectionVectorToAxis */
PUSHW[ ]	/* 4 values pushed */
23 2 6 4
CALL[ ]	/* CallFunction */
IUP[0]	/* InterpolateUntPts */
IUP[1]	/* InterpolateUntPts */";
};
width = 1442;
},
{
layerId = m002;
shapes = (
{
closed = 1;
nodes = (
(954,1374,l),
(954,1286,l),
(1071,1278,ls),
(1116,1275,o),
(1116,1233,qs),
(1116,508,ls),
(1116,318,o),
(1047,225,qs),
(964,113,o),
(766,113,qs),
(566,113,o),
(485,221,qs),
(418,311,o),
(418,508,qs),
(418,1233,ls),
(418,1275,o),
(461,1278,qs),
(578,1286,l),
(578,1374,l),
(47,1374,l),
(47,1286,l),
(156,1278,ls),
(199,1275,o),
(199,1233,qs),
(199,455,ls),
(199,-25,o),
(709,-25,qs),
(1237,-25,o),
(1237,455,qs),
(1237,1233,ls),
(1237,1275,o),
(1280,1278,qs),
(1397,1286,l),
(1397,1374,l)
);
}
);
userData = {
assembly = "PUSHW[ ]	/* 4 values pushed */
19 6 8 4
CALL[ ]	/* CallFunction */
PUSHW[ ]	/* 4 values pushed */
4 5 27 4
CALL[ ]	/* CallFunction */
SVTCA[0]	/* SetFreedomAndProjectionVectorToAxis */
PUSHW[ ]	/* 4 values pushed */
23 2 6 4
CALL[ ]	/* CallFunction */
IUP[0]	/* InterpolateUntPts */
IUP[1]	/* InterpolateUntPts */";
};
width = 1442;
}
);
note = U;
unicode = 85;
},
{
glyphname = V;
lastChange = "2025-08-23 01:57:26 +0000";
layers = (
{
layerId = m01;
shapes = (
{
closed = 1;
nodes = (
(936,1374,l),
(936,1286,l),
(1049,1276,ls),
(1063,1275,o),
(1081,1247,o),
(1077,1235,qs),
(731,240,l),
(371,1239,ls),
(367,1249,o),
(379,1275,o),
(389,1276,qs),
(510,1286,l),
(510,1374,l),
(20,1374,l),
(20,1286,l),
(141,1266,l),
(498,290,o),
(610,-10,q),
(766,-10,l),
(1225,1264,l),
(1343,1286,l),
(1343,1374,l)
);
}
);
userData = {
assembly = "SVTCA[0]	/* SetFreedomAndProjectionVectorToAxis */
PUSHW[ ]	/* 1 value pushed */
2
MDAP[1]	/* MoveDirectAbsPt */
IUP[0]	/* InterpolateUntPts */
IUP[1]	/* InterpolateUntPts */";
};
width = 1364;
},
{
layerId = m002;
shapes = (
{
closed = 1;
nodes = (
(936,1374,l),
(936,1286,l),
(1049,1276,ls),
(1063,1275,o),
(1081,1247,o),
(1077,1235,qs),
(731,240,l),
(371,1239,ls),
(367,1249,o),
(379,1275,o),
(389,1276,qs),
(510,1286,l),
(510,1374,l),
(20,1374,l),
(20,1286,l),
(141,1266,l),
(498,290,o),
(610,-10,q),
(766,-10,l),
(1225,1264,l),
(1343,1286,l),
(1343,1374,l)
);
}
);
userData = {
assembly = "SVTCA[0]	/* SetFreedomAndProjectionVectorToAxis */
PUSHW[ ]	/* 1 value pushed */
2
MDAP[1]	/* MoveDirectAbsPt */
IUP[0]	/* InterpolateUntPts */
IUP[1]	/* InterpolateUntPts */";
};
width = 1364;
}
);
note = V;
unicode = 86;
},
{
glyphname = W;
lastChange = "2025-08-23 01:57:26 +0000";
layers = (
{
layerId = m01;
shapes = (
{
closed = 1;
nodes = (
(1468,1374,l),
(1468,1286,l),
(1597,1274,ls),
(1635,1270,o),
(1626,1233,qs),
(1399,299,l),
(1069,1374,l),
(911,1374,l),
(590,322,l),
(346,1233,ls),
(336,1271,o),
(367,1274,qs),
(489,1286,l),
(489,1374,l),
(20,1374,l),
(20,1286,l),
(139,1262,l),
(473,-10,l),
(621,-10,l),
(956,1102,l),
(1298,-10,l),
(1448,-10,l),
(1761,1262,l),
(1886,1286,l),
(1886,1374,l)
);
}
);
userData = {
assembly = "SVTCA[0]	/* SetFreedomAndProjectionVectorToAxis */
PUSHW[ ]	/* 1 value pushed */
2
MDAP[1]	/* MoveDirectAbsPt */
PUSHW[ ]	/* 1 value pushed */
5
MDAP[1]	/* MoveDirectAbsPt */
IUP[0]	/* InterpolateUntPts */
IUP[1]	/* InterpolateUntPts */";
};
width = 1907;
},
{
layerId = m002;
shapes = (
{
closed = 1;
nodes = (
(1468,1374,l),
(1468,1286,l),
(1597,1274,ls),
(1635,1270,o),
(1626,1233,qs),
(1399,299,l),
(1069,1374,l),
(911,1374,l),
(590,322,l),
(346,1233,ls),
(336,1271,o),
(367,1274,qs),
(489,1286,l),
(489,1374,l),
(20,1374,l),
(20,1286,l),
(139,1262,l),
(473,-10,l),
(621,-10,l),
(956,1102,l),
(1298,-10,l),
(1448,-10,l),
(1761,1262,l),
(1886,1286,l),
(1886,1374,l)
);
}
);
userData = {
assembly = "SVTCA[0]	/* SetFreedomAndProjectionVectorToAxis */
PUSHW[ ]	/* 1 value pushed */
2
MDAP[1]	/* MoveDirectAbsPt */
PUSHW[ ]	/* 1 value pushed */
5
MDAP[1]	/* MoveDirectAbsPt */
IUP[0]	/* InterpolateUntPts */
IUP[1]	/* InterpolateUntPts */";
};
width = 1907;
}
);
note = W;
unicode = 87;
},
{
glyphname = X;
lastChange = "2025-08-23 01:57:26 +0000";
layers = (
{
layerId = m01;
shapes = (
{
closed = 1;
nodes = (
(1151,113,l),
(748,743,l),
(1128,1268,l),
(1260,1288,l),
(1260,1374,l),
(831,1374,l),
(831,1288,l),
(936,1274,ls),
(964,1270,o),
(964,1247,qs),
(964,1239,o),
(958,1231,qs),
(682,850,l),
(432,1237,ls),
(409,1273,o),
(457,1278,qs),
(561,1288,l),
(561,1374,l),
(47,1374,l),
(47,1288,l),
(182,1264,l),
(555,678,l),
(143,113,l),
(20,88,l),
(20,0,l),
(455,0,l),
(455,88,l),
(332,98,ls),
(282,102,o),
(307,137,qs),
(623,571,l),
(895,143,ls),
(899,136,o),
(899,129,qs),
(899,103,o),
(870,100,qs),
(752,88,l),
(752,0,l),
(1278,0,l),
(1278,88,l)
);
}
);
width = 1296;
},
{
layerId = m002;
shapes = (
{
closed = 1;
nodes = (
(1151,113,l),
(748,743,l),
(1128,1268,l),
(1260,1288,l),
(1260,1374,l),
(831,1374,l),
(831,1288,l),
(936,1274,ls),
(964,1270,o),
(964,1247,qs),
(964,1239,o),
(958,1231,qs),
(682,850,l),
(432,1237,ls),
(409,1273,o),
(457,1278,qs),
(561,1288,l),
(561,1374,l),
(47,1374,l),
(47,1288,l),
(182,1264,l),
(555,678,l),
(143,113,l),
(20,88,l),
(20,0,l),
(455,0,l),
(455,88,l),
(332,98,ls),
(282,102,o),
(307,137,qs),
(623,571,l),
(895,143,ls),
(899,136,o),
(899,129,qs),
(899,103,o),
(870,100,qs),
(752,88,l),
(752,0,l),
(1278,0,l),
(1278,88,l)
);
}
);
width = 1296;
}
);
note = X;
unicode = 88;
},
{
glyphname = Y;
lastChange = "2025-08-23 01:57:26 +0000";
layers = (
{
layerId = m01;
shapes = (
{
closed = 1;
nodes = (
(844,1374,l),
(844,1288,l),
(958,1274,ls),
(987,1270,o),
(987,1245,qs),
(987,1238,o),
(983,1231,qs),
(666,700,l),
(379,1237,ls),
(359,1274,o),
(403,1278,qs),
(506,1288,l),
(506,1374,l),
(20,1374,l),
(20,1288,l),
(139,1264,l),
(532,553,l),
(532,141,ls),
(532,99,o),
(487,96,qs),
(360,88,l),
(360,0,l),
(911,0,l),
(911,88,l),
(780,96,ls),
(737,99,o),
(737,141,qs),
(737,584,l),
(1149,1268,l),
(1260,1288,l),
(1260,1374,l)
);
}
);
userData = {
assembly = "PUSHW[ ]	/* 4 values pushed */
3 6 12 4
CALL[ ]	/* CallFunction */
PUSHW[ ]	/* 3 values pushed */
22 12 3
SRP1[ ]	/* SetRefPoint1 */
SRP2[ ]	/* SetRefPoint2 */
IP[ ]	/* InterpolatePts */
SVTCA[0]	/* SetFreedomAndProjectionVectorToAxis */
PUSHW[ ]	/* 1 value pushed */
16
MDAP[1]	/* MoveDirectAbsPt */
PUSHW[ ]	/* 1 value pushed */
29
MDAP[1]	/* MoveDirectAbsPt */
IUP[0]	/* InterpolateUntPts */
IUP[1]	/* InterpolateUntPts */";
};
width = 1280;
},
{
layerId = m002;
shapes = (
{
closed = 1;
nodes = (
(844,1374,l),
(844,1288,l),
(958,1274,ls),
(987,1270,o),
(987,1245,qs),
(987,1238,o),
(983,1231,qs),
(666,700,l),
(379,1237,ls),
(359,1274,o),
(403,1278,qs),
(506,1288,l),
(506,1374,l),
(20,1374,l),
(20,1288,l),
(139,1264,l),
(532,553,l),
(532,141,ls),
(532,99,o),
(487,96,qs),
(360,88,l),
(360,0,l),
(911,0,l),
(911,88,l),
(780,96,ls),
(737,99,o),
(737,141,qs),
(737,584,l),
(1149,1268,l),
(1260,1288,l),
(1260,1374,l)
);
}
);
userData = {
assembly = "PUSHW[ ]	/* 4 values pushed */
3 6 12 4
CALL[ ]	/* CallFunction */
PUSHW[ ]	/* 3 values pushed */
22 12 3
SRP1[ ]	/* SetRefPoint1 */
SRP2[ ]	/* SetRefPoint2 */
IP[ ]	/* InterpolatePts */
SVTCA[0]	/* SetFreedomAndProjectionVectorToAxis */
PUSHW[ ]	/* 1 value pushed */
16
MDAP[1]	/* MoveDirectAbsPt */
PUSHW[ ]	/* 1 value pushed */
29
MDAP[1]	/* MoveDirectAbsPt */
IUP[0]	/* InterpolateUntPts */
IUP[1]	/* InterpolateUntPts */";
};
width = 1280;
}
);
note = Y;
unicode = 89;
},
{
glyphname = Z;
lastChange = "2025-08-23 01:57:26 +0000";
layers = (
{
layerId = m01;
shapes = (
{
closed = 1;
nodes = (
(989,379,l),
(954,141,ls),
(949,104,o),
(920,104,qs),
(336,104,l),
(1100,1280,l),
(1100,1374,l),
(135,1374,l),
(135,1047,l),
(256,1047,l),
(287,1237,ls),
(293,1272,o),
(322,1272,qs),
(854,1272,l),
(92,90,l),
(92,0,l),
(1110,0,l),
(1110,379,l)
);
}
);
userData = {
assembly = "SVTCA[0]	/* SetFreedomAndProjectionVectorToAxis */
PUSHW[ ]	/* 4 values pushed */
13 2 0 4
CALL[ ]	/* CallFunction */
PUSHW[ ]	/* 4 values pushed */
10 2 3 4
CALL[ ]	/* CallFunction */
IUP[0]	/* InterpolateUntPts */
IUP[1]	/* InterpolateUntPts */";
};
width = 1202;
},
{
layerId = m002;
shapes = (
{
closed = 1;
nodes = (
(989,379,l),
(954,141,ls),
(949,104,o),
(920,104,qs),
(336,104,l),
(1100,1280,l),
(1100,1374,l),
(135,1374,l),
(135,1047,l),
(256,1047,l),
(287,1237,ls),
(293,1272,o),
(322,1272,qs),
(854,1272,l),
(92,90,l),
(92,0,l),
(1110,0,l),
(1110,379,l)
);
}
);
userData = {
assembly = "SVTCA[0]	/* SetFreedomAndProjectionVectorToAxis */
PUSHW[ ]	/* 4 values pushed */
13 2 0 4
CALL[ ]	/* CallFunction */
PUSHW[ ]	/* 4 values pushed */
10 2 3 4
CALL[ ]	/* CallFunction */
IUP[0]	/* InterpolateUntPts */
IUP[1]	/* InterpolateUntPts */";
};
width = 1202;
}
);
note = Z;
unicode = 90;
},
{
glyphname = bracketleft;
lastChange = "2025-08-23 01:57:26 +0000";
layers = (
{
layerId = m01;
shapes = (
{
closed = 1;
nodes = (
(324,-655,l),
(324,1642,l),
(586,1642,l),
(586,1686,l),
(174,1686,l),
(174,-698,l),
(586,-698,l),
(586,-655,l)
);
}
);
userData = {
assembly = "PUSHW[ ]	/* 4 values pushed */
6 6 1 4
CALL[ ]	/* CallFunction */
SVTCA[0]	/* SetFreedomAndProjectionVectorToAxis */
PUSHW[ ]	/* 4 values pushed */
7 1 0 4
CALL[ ]	/* CallFunction */
PUSHW[ ]	/* 4 values pushed */
3 1 4 4
CALL[ ]	/* CallFunction */
IUP[0]	/* InterpolateUntPts */
IUP[1]	/* InterpolateUntPts */";
};
width = 655;
},
{
layerId = m002;
shapes = (
{
closed = 1;
nodes = (
(324,-655,l),
(324,1642,l),
(586,1642,l),
(586,1686,l),
(174,1686,l),
(174,-698,l),
(586,-698,l),
(586,-655,l)
);
}
);
userData = {
assembly = "PUSHW[ ]	/* 4 values pushed */
6 6 1 4
CALL[ ]	/* CallFunction */
SVTCA[0]	/* SetFreedomAndProjectionVectorToAxis */
PUSHW[ ]	/* 4 values pushed */
7 1 0 4
CALL[ ]	/* CallFunction */
PUSHW[ ]	/* 4 values pushed */
3 1 4 4
CALL[ ]	/* CallFunction */
IUP[0]	/* InterpolateUntPts */
IUP[1]	/* InterpolateUntPts */";
};
width = 655;
}
);
note = bracketleft;
unicode = 91;
},
{
glyphname = backslash;
lastChange = "2025-08-23 01:57:26 +0000";
layers = (
{
layerId = m01;
shapes = (
{
closed = 1;
nodes = (
(0,1497,l),
(893,-102,l),
(1024,-102,l),
(135,1497,l)
);
}
);
userData = {
assembly = "SVTCA[0]	/* SetFreedomAndProjectionVectorToAxis */
PUSHW[ ]	/* 1 value pushed */
2
MDAP[1]	/* MoveDirectAbsPt */
PUSHW[ ]	/* 1 value pushed */
0
MDAP[1]	/* MoveDirectAbsPt */
IUP[0]	/* InterpolateUntPts */
IUP[1]	/* InterpolateUntPts */";
};
width = 1026;
},
{
layerId = m002;
shapes = (
{
closed = 1;
nodes = (
(0,1497,l),
(893,-102,l),
(1024,-102,l),
(135,1497,l)
);
}
);
userData = {
assembly = "SVTCA[0]	/* SetFreedomAndProjectionVectorToAxis */
PUSHW[ ]	/* 1 value pushed */
2
MDAP[1]	/* MoveDirectAbsPt */
PUSHW[ ]	/* 1 value pushed */
0
MDAP[1]	/* MoveDirectAbsPt */
IUP[0]	/* InterpolateUntPts */
IUP[1]	/* InterpolateUntPts */";
};
width = 1026;
}
);
note = backslash;
unicode = 92;
},
{
glyphname = bracketright;
lastChange = "2025-08-23 01:57:26 +0000";
layers = (
{
layerId = m01;
shapes = (
{
closed = 1;
nodes = (
(70,1686,l),
(70,1642,l),
(332,1642,l),
(332,-655,l),
(70,-655,l),
(70,-698,l),
(481,-698,l),
(481,1686,l)
);
}
);
userData = {
assembly = "PUSHW[ ]	/* 4 values pushed */
0 6 3 4
CALL[ ]	/* CallFunction */
SVTCA[0]	/* SetFreedomAndProjectionVectorToAxis */
PUSHW[ ]	/* 4 values pushed */
3 1 0 4
CALL[ ]	/* CallFunction */
PUSHW[ ]	/* 4 values pushed */
7 1 4 4
CALL[ ]	/* CallFunction */
IUP[0]	/* InterpolateUntPts */
IUP[1]	/* InterpolateUntPts */";
};
width = 655;
},
{
layerId = m002;
shapes = (
{
closed = 1;
nodes = (
(70,1686,l),
(70,1642,l),
(332,1642,l),
(332,-655,l),
(70,-655,l),
(70,-698,l),
(481,-698,l),
(481,1686,l)
);
}
);
userData = {
assembly = "PUSHW[ ]	/* 4 values pushed */
0 6 3 4
CALL[ ]	/* CallFunction */
SVTCA[0]	/* SetFreedomAndProjectionVectorToAxis */
PUSHW[ ]	/* 4 values pushed */
3 1 0 4
CALL[ ]	/* CallFunction */
PUSHW[ ]	/* 4 values pushed */
7 1 4 4
CALL[ ]	/* CallFunction */
IUP[0]	/* InterpolateUntPts */
IUP[1]	/* InterpolateUntPts */";
};
width = 655;
}
);
note = bracketright;
unicode = 93;
},
{
glyphname = asciicircum;
lastChange = "2025-08-23 01:57:26 +0000";
layers = (
{
layerId = m01;
shapes = (
{
closed = 1;
nodes = (
(930,1200,l),
(446,23,l),
(573,23,l),
(981,1022,l),
(1386,23,l),
(1516,23,l),
(1034,1200,l)
);
}
);
userData = {
assembly = "SVTCA[0]	/* SetFreedomAndProjectionVectorToAxis */
PUSHW[ ]	/* 1 value pushed */
5
MDAP[1]	/* MoveDirectAbsPt */
PUSHW[ ]	/* 1 value pushed */
0
MDAP[1]	/* MoveDirectAbsPt */
PUSHW[ ]	/* 1 value pushed */
3
MDAP[1]	/* MoveDirectAbsPt */
PUSHW[ ]	/* 3 values pushed */
2 0 5
SRP1[ ]	/* SetRefPoint1 */
SRP2[ ]	/* SetRefPoint2 */
IP[ ]	/* InterpolatePts */
IUP[0]	/* InterpolateUntPts */
IUP[1]	/* InterpolateUntPts */";
};
width = 1962;
},
{
layerId = m002;
shapes = (
{
closed = 1;
nodes = (
(930,1200,l),
(446,23,l),
(573,23,l),
(981,1022,l),
(1386,23,l),
(1516,23,l),
(1034,1200,l)
);
}
);
userData = {
assembly = "SVTCA[0]	/* SetFreedomAndProjectionVectorToAxis */
PUSHW[ ]	/* 1 value pushed */
5
MDAP[1]	/* MoveDirectAbsPt */
PUSHW[ ]	/* 1 value pushed */
0
MDAP[1]	/* MoveDirectAbsPt */
PUSHW[ ]	/* 1 value pushed */
3
MDAP[1]	/* MoveDirectAbsPt */
PUSHW[ ]	/* 3 values pushed */
2 0 5
SRP1[ ]	/* SetRefPoint1 */
SRP2[ ]	/* SetRefPoint2 */
IP[ ]	/* InterpolatePts */
IUP[0]	/* InterpolateUntPts */
IUP[1]	/* InterpolateUntPts */";
};
width = 1962;
}
);
note = asciicircum;
unicode = 94;
},
{
glyphname = underscore;
lastChange = "2025-08-23 01:57:26 +0000";
layers = (
{
layerId = m01;
shapes = (
{
closed = 1;
nodes = (
(0,-350,l),
(0,-483,l),
(1024,-483,l),
(1024,-350,l)
);
}
);
userData = {
assembly = "SVTCA[0]	/* SetFreedomAndProjectionVectorToAxis */
PUSHW[ ]	/* 4 values pushed */
3 2 0 4
CALL[ ]	/* CallFunction */
IUP[0]	/* InterpolateUntPts */
IUP[1]	/* InterpolateUntPts */";
};
width = 1024;
},
{
layerId = m002;
shapes = (
{
closed = 1;
nodes = (
(0,-350,l),
(0,-483,l),
(1024,-483,l),
(1024,-350,l)
);
}
);
userData = {
assembly = "SVTCA[0]	/* SetFreedomAndProjectionVectorToAxis */
PUSHW[ ]	/* 4 values pushed */
3 2 0 4
CALL[ ]	/* CallFunction */
IUP[0]	/* InterpolateUntPts */
IUP[1]	/* InterpolateUntPts */";
};
width = 1024;
}
);
note = underscore;
unicode = 95;
},
{
glyphname = grave;
lastChange = "2025-08-23 01:57:26 +0000";
layers = (
{
layerId = m01;
shapes = (
{
closed = 1;
nodes = (
(154,1501,o),
(94,1501,qs),
(0,1501,o),
(0,1409,qs),
(0,1357,o),
(47,1327,qs),
(358,1128,l),
(475,1128,l),
(201,1446,ls)
);
}
);
userData = {
assembly = "SVTCA[0]	/* SetFreedomAndProjectionVectorToAxis */
PUSHW[ ]	/* 1 value pushed */
6
MDAP[1]	/* MoveDirectAbsPt */
PUSHW[ ]	/* 1 value pushed */
0
MDAP[1]	/* MoveDirectAbsPt */
IUP[0]	/* InterpolateUntPts */
IUP[1]	/* InterpolateUntPts */";
};
width = 717;
},
{
layerId = m002;
shapes = (
{
closed = 1;
nodes = (
(154,1501,o),
(94,1501,qs),
(0,1501,o),
(0,1409,qs),
(0,1357,o),
(47,1327,qs),
(358,1128,l),
(475,1128,l),
(201,1446,ls)
);
}
);
userData = {
assembly = "SVTCA[0]	/* SetFreedomAndProjectionVectorToAxis */
PUSHW[ ]	/* 1 value pushed */
6
MDAP[1]	/* MoveDirectAbsPt */
PUSHW[ ]	/* 1 value pushed */
0
MDAP[1]	/* MoveDirectAbsPt */
IUP[0]	/* InterpolateUntPts */
IUP[1]	/* InterpolateUntPts */";
};
width = 717;
}
);
note = grave;
unicode = 96;
},
{
glyphname = a;
lastChange = "2025-08-23 01:57:26 +0000";
layers = (
{
layerId = m01;
shapes = (
{
closed = 1;
nodes = (
(926,86,ls),
(883,89,o),
(883,131,qs),
(883,705,ls),
(883,1010,o),
(559,1010,qs),
(389,1010,o),
(270,953,qs),
(133,887,o),
(133,770,qs),
(133,711,o),
(209,711,qs),
(358,711,l),
(358,889,l),
(423,915,o),
(504,915,qs),
(690,915,o),
(690,713,qs),
(690,625,l),
(316,544,o),
(187,452,qs),
(86,380,o),
(86,252,qs),
(86,127,o),
(164,53,qs),
(237,-16,o),
(352,-16,qs),
(500,-16,o),
(690,121,q),
(717,0,l),
(1024,0,l),
(1024,80,l)
);
},
{
closed = 1;
nodes = (
(442,104,qs),
(371,104,o),
(329,154,qs),
(289,199,o),
(289,266,qs),
(289,356,o),
(351,410,qs),
(439,484,o),
(690,547,q),
(690,193,l),
(543,104,o)
);
}
);
userData = {
assembly = "PUSHW[ ]	/* 1 value pushed */
43
MDAP[1]	/* MoveDirectAbsPt */
PUSHW[ ]	/* 1 value pushed */
44
MDAP[1]	/* MoveDirectAbsPt */
PUSHW[ ]	/* 1 value pushed */
28
MDRP[11100]	/* MoveDirectRelPt */
PUSHW[ ]	/* 2 values pushed */
2 6
MIRP[11100]	/* MoveIndirectRelPt */
PUSHW[ ]	/* 1 value pushed */
43
SRP0[ ]	/* SetRefPoint0 */
PUSHW[ ]	/* 1 value pushed */
21
MDRP[10000]	/* MoveDirectRelPt */
PUSHW[ ]	/* 1 value pushed */
21
MDAP[1]	/* MoveDirectAbsPt */
PUSHW[ ]	/* 2 values pushed */
18 6
MIRP[11100]	/* MoveIndirectRelPt */
PUSHW[ ]	/* 1 value pushed */
4
MDRP[10000]	/* MoveDirectRelPt */
PUSHW[ ]	/* 1 value pushed */
4
MDAP[1]	/* MoveDirectAbsPt */
PUSHW[ ]	/* 1 value pushed */
2
SRP0[ ]	/* SetRefPoint0 */
PUSHW[ ]	/* 1 value pushed */
12
MDRP[10000]	/* MoveDirectRelPt */
PUSHW[ ]	/* 1 value pushed */
2
SRP0[ ]	/* SetRefPoint0 */
PUSHW[ ]	/* 1 value pushed */
32
MDRP[10000]	/* MoveDirectRelPt */
PUSHW[ ]	/* 1 value pushed */
18
SRP0[ ]	/* SetRefPoint0 */
PUSHW[ ]	/* 1 value pushed */
35
MDRP[10000]	/* MoveDirectRelPt */
PUSHW[ ]	/* 1 value pushed */
35
MDAP[1]	/* MoveDirectAbsPt */
SVTCA[0]	/* SetFreedomAndProjectionVectorToAxis */
PUSHW[ ]	/* 4 values pushed */
41 2 4 4
CALL[ ]	/* CallFunction */
PUSHW[ ]	/* 4 values pushed */
25 2 15 4
CALL[ ]	/* CallFunction */
IUP[0]	/* InterpolateUntPts */
IUP[1]	/* InterpolateUntPts */";
};
width = 1049;
},
{
layerId = m002;
shapes = (
{
closed = 1;
nodes = (
(926,86,ls),
(883,89,o),
(883,131,qs),
(883,705,ls),
(883,1010,o),
(559,1010,qs),
(389,1010,o),
(270,953,qs),
(133,887,o),
(133,770,qs),
(133,711,o),
(209,711,qs),
(358,711,l),
(358,889,l),
(423,915,o),
(504,915,qs),
(690,915,o),
(690,713,qs),
(690,625,l),
(316,544,o),
(187,452,qs),
(86,380,o),
(86,252,qs),
(86,127,o),
(164,53,qs),
(237,-16,o),
(352,-16,qs),
(500,-16,o),
(690,121,q),
(717,0,l),
(1024,0,l),
(1024,80,l)
);
},
{
closed = 1;
nodes = (
(442,104,qs),
(371,104,o),
(329,154,qs),
(289,199,o),
(289,266,qs),
(289,356,o),
(351,410,qs),
(439,484,o),
(690,547,q),
(690,193,l),
(543,104,o)
);
}
);
userData = {
assembly = "PUSHW[ ]	/* 1 value pushed */
43
MDAP[1]	/* MoveDirectAbsPt */
PUSHW[ ]	/* 1 value pushed */
44
MDAP[1]	/* MoveDirectAbsPt */
PUSHW[ ]	/* 1 value pushed */
28
MDRP[11100]	/* MoveDirectRelPt */
PUSHW[ ]	/* 2 values pushed */
2 6
MIRP[11100]	/* MoveIndirectRelPt */
PUSHW[ ]	/* 1 value pushed */
43
SRP0[ ]	/* SetRefPoint0 */
PUSHW[ ]	/* 1 value pushed */
21
MDRP[10000]	/* MoveDirectRelPt */
PUSHW[ ]	/* 1 value pushed */
21
MDAP[1]	/* MoveDirectAbsPt */
PUSHW[ ]	/* 2 values pushed */
18 6
MIRP[11100]	/* MoveIndirectRelPt */
PUSHW[ ]	/* 1 value pushed */
4
MDRP[10000]	/* MoveDirectRelPt */
PUSHW[ ]	/* 1 value pushed */
4
MDAP[1]	/* MoveDirectAbsPt */
PUSHW[ ]	/* 1 value pushed */
2
SRP0[ ]	/* SetRefPoint0 */
PUSHW[ ]	/* 1 value pushed */
12
MDRP[10000]	/* MoveDirectRelPt */
PUSHW[ ]	/* 1 value pushed */
2
SRP0[ ]	/* SetRefPoint0 */
PUSHW[ ]	/* 1 value pushed */
32
MDRP[10000]	/* MoveDirectRelPt */
PUSHW[ ]	/* 1 value pushed */
18
SRP0[ ]	/* SetRefPoint0 */
PUSHW[ ]	/* 1 value pushed */
35
MDRP[10000]	/* MoveDirectRelPt */
PUSHW[ ]	/* 1 value pushed */
35
MDAP[1]	/* MoveDirectAbsPt */
SVTCA[0]	/* SetFreedomAndProjectionVectorToAxis */
PUSHW[ ]	/* 4 values pushed */
41 2 4 4
CALL[ ]	/* CallFunction */
PUSHW[ ]	/* 4 values pushed */
25 2 15 4
CALL[ ]	/* CallFunction */
IUP[0]	/* InterpolateUntPts */
IUP[1]	/* InterpolateUntPts */";
};
width = 1049;
}
);
note = a;
unicode = 97;
},
{
glyphname = b;
lastChange = "2025-08-23 01:57:26 +0000";
layers = (
{
layerId = m01;
shapes = (
{
closed = 1;
nodes = (
(954,870,qs),
(842,1010,o),
(649,1010,qs),
(526,1010,o),
(367,934,q),
(367,1509,l),
(283,1509,l),
(20,1430,l),
(20,1362,l),
(176,1362,l),
(176,0,l),
(471,0,ls),
(766,0,o),
(918,155,qs),
(1057,297,o),
(1057,541,qs),
(1057,740,o)
);
},
{
closed = 1;
nodes = (
(749,186,qs),
(657,96,o),
(467,96,qs),
(443,96,o),
(365,98,o),
(367,98,q),
(367,858,l),
(456,889,o),
(535,889,qs),
(850,889,o),
(850,500,qs),
(850,284,o)
);
}
);
userData = {
assembly = "PUSHW[ ]	/* 1 value pushed */
29
MDAP[1]	/* MoveDirectAbsPt */
PUSHW[ ]	/* 1 value pushed */
30
MDAP[1]	/* MoveDirectAbsPt */
PUSHW[ ]	/* 1 value pushed */
0
MDRP[11100]	/* MoveDirectRelPt */
PUSHW[ ]	/* 1 value pushed */
29
SRP0[ ]	/* SetRefPoint0 */
PUSHW[ ]	/* 1 value pushed */
5
MDRP[10000]	/* MoveDirectRelPt */
PUSHW[ ]	/* 1 value pushed */
5
MDAP[1]	/* MoveDirectAbsPt */
PUSHW[ ]	/* 2 values pushed */
22 6
MIRP[11100]	/* MoveIndirectRelPt */
PUSHW[ ]	/* 1 value pushed */
10
MDRP[10000]	/* MoveDirectRelPt */
PUSHW[ ]	/* 3 values pushed */
11 5 0
SRP1[ ]	/* SetRefPoint1 */
SRP2[ ]	/* SetRefPoint2 */
IP[ ]	/* InterpolatePts */
PUSHW[ ]	/* 1 value pushed */
0
SRP0[ ]	/* SetRefPoint0 */
PUSHW[ ]	/* 2 values pushed */
17 6
MIRP[11100]	/* MoveIndirectRelPt */
NPUSHW[ ]	/* 5 values pushed */
218 17 234 17 2
DELTAP1[ ]	/* DeltaExceptionP1 */
NPUSHW[ ]	/* 15 values pushed */
105 17 121 17 137 17 153 17 169 17 185 17 201 17 7
DELTAP1[ ]	/* DeltaExceptionP1 */
SVTCA[0]	/* SetFreedomAndProjectionVectorToAxis */
PUSHW[ ]	/* 1 value pushed */
9
MDAP[1]	/* MoveDirectAbsPt */
PUSHW[ ]	/* 4 values pushed */
25 2 4 4
CALL[ ]	/* CallFunction */
PUSHW[ ]	/* 4 values pushed */
13 2 19 4
CALL[ ]	/* CallFunction */
PUSHW[ ]	/* 3 values pushed */
11 19 13
SRP1[ ]	/* SetRefPoint1 */
SRP2[ ]	/* SetRefPoint2 */
IP[ ]	/* InterpolatePts */
IUP[0]	/* InterpolateUntPts */
IUP[1]	/* InterpolateUntPts */";
};
width = 1126;
},
{
layerId = m002;
shapes = (
{
closed = 1;
nodes = (
(954,870,qs),
(842,1010,o),
(649,1010,qs),
(526,1010,o),
(367,934,q),
(367,1509,l),
(283,1509,l),
(20,1430,l),
(20,1362,l),
(176,1362,l),
(176,0,l),
(471,0,ls),
(766,0,o),
(918,155,qs),
(1057,297,o),
(1057,541,qs),
(1057,740,o)
);
},
{
closed = 1;
nodes = (
(749,186,qs),
(657,96,o),
(467,96,qs),
(443,96,o),
(365,98,o),
(367,98,q),
(367,858,l),
(456,889,o),
(535,889,qs),
(850,889,o),
(850,500,qs),
(850,284,o)
);
}
);
userData = {
assembly = "PUSHW[ ]	/* 1 value pushed */
29
MDAP[1]	/* MoveDirectAbsPt */
PUSHW[ ]	/* 1 value pushed */
30
MDAP[1]	/* MoveDirectAbsPt */
PUSHW[ ]	/* 1 value pushed */
0
MDRP[11100]	/* MoveDirectRelPt */
PUSHW[ ]	/* 1 value pushed */
29
SRP0[ ]	/* SetRefPoint0 */
PUSHW[ ]	/* 1 value pushed */
5
MDRP[10000]	/* MoveDirectRelPt */
PUSHW[ ]	/* 1 value pushed */
5
MDAP[1]	/* MoveDirectAbsPt */
PUSHW[ ]	/* 2 values pushed */
22 6
MIRP[11100]	/* MoveIndirectRelPt */
PUSHW[ ]	/* 1 value pushed */
10
MDRP[10000]	/* MoveDirectRelPt */
PUSHW[ ]	/* 3 values pushed */
11 5 0
SRP1[ ]	/* SetRefPoint1 */
SRP2[ ]	/* SetRefPoint2 */
IP[ ]	/* InterpolatePts */
PUSHW[ ]	/* 1 value pushed */
0
SRP0[ ]	/* SetRefPoint0 */
PUSHW[ ]	/* 2 values pushed */
17 6
MIRP[11100]	/* MoveIndirectRelPt */
NPUSHW[ ]	/* 5 values pushed */
218 17 234 17 2
DELTAP1[ ]	/* DeltaExceptionP1 */
NPUSHW[ ]	/* 15 values pushed */
105 17 121 17 137 17 153 17 169 17 185 17 201 17 7
DELTAP1[ ]	/* DeltaExceptionP1 */
SVTCA[0]	/* SetFreedomAndProjectionVectorToAxis */
PUSHW[ ]	/* 1 value pushed */
9
MDAP[1]	/* MoveDirectAbsPt */
PUSHW[ ]	/* 4 values pushed */
25 2 4 4
CALL[ ]	/* CallFunction */
PUSHW[ ]	/* 4 values pushed */
13 2 19 4
CALL[ ]	/* CallFunction */
PUSHW[ ]	/* 3 values pushed */
11 19 13
SRP1[ ]	/* SetRefPoint1 */
SRP2[ ]	/* SetRefPoint2 */
IP[ ]	/* InterpolatePts */
IUP[0]	/* InterpolateUntPts */
IUP[1]	/* InterpolateUntPts */";
};
width = 1126;
}
);
note = b;
unicode = 98;
},
{
glyphname = c;
lastChange = "2025-08-23 01:57:26 +0000";
layers = (
{
layerId = m01;
shapes = (
{
closed = 1;
nodes = (
(756,113,o),
(625,113,qs),
(462,113,o),
(371,228,qs),
(285,336,o),
(285,514,qs),
(285,695,o),
(443,924,o),
(578,924,qs),
(620,924,o),
(664,899,q),
(664,719,l),
(714,686,o),
(766,686,qs),
(816,686,o),
(887,748,o),
(887,805,qs),
(887,902,o),
(796,957,qs),
(709,1010,o),
(569,1010,qs),
(361,1010,o),
(224,878,qs),
(76,734,o),
(76,487,qs),
(76,264,o),
(332,-16,o),
(545,-16,qs),
(704,-16,o),
(891,84,q),
(891,201,l)
);
}
);
userData = {
assembly = "PUSHW[ ]	/* 1 value pushed */
31
MDAP[1]	/* MoveDirectAbsPt */
PUSHW[ ]	/* 1 value pushed */
32
MDAP[1]	/* MoveDirectAbsPt */
PUSHW[ ]	/* 1 value pushed */
13
MDRP[11100]	/* MoveDirectRelPt */
PUSHW[ ]	/* 1 value pushed */
0
MDRP[10000]	/* MoveDirectRelPt */
PUSHW[ ]	/* 1 value pushed */
0
MDAP[1]	/* MoveDirectAbsPt */
PUSHW[ ]	/* 1 value pushed */
31
SRP0[ ]	/* SetRefPoint0 */
PUSHW[ ]	/* 1 value pushed */
5
MDRP[10000]	/* MoveDirectRelPt */
PUSHW[ ]	/* 1 value pushed */
5
MDAP[1]	/* MoveDirectAbsPt */
PUSHW[ ]	/* 1 value pushed */
13
SRP0[ ]	/* SetRefPoint0 */
PUSHW[ ]	/* 2 values pushed */
18 6
MIRP[11100]	/* MoveIndirectRelPt */
PUSHW[ ]	/* 1 value pushed */
5
SRP0[ ]	/* SetRefPoint0 */
PUSHW[ ]	/* 2 values pushed */
24 6
MIRP[11100]	/* MoveIndirectRelPt */
NPUSHW[ ]	/* 15 values pushed */
102 24 118 24 134 24 150 24 166 24 182 24 198 24 7
DELTAP1[ ]	/* DeltaExceptionP1 */
NPUSHW[ ]	/* 5 values pushed */
213 24 229 24 2
DELTAP1[ ]	/* DeltaExceptionP1 */
SVTCA[0]	/* SetFreedomAndProjectionVectorToAxis */
PUSHW[ ]	/* 4 values pushed */
28 2 2 4
CALL[ ]	/* CallFunction */
PUSHW[ ]	/* 4 values pushed */
9 2 21 4
CALL[ ]	/* CallFunction */
IUP[0]	/* InterpolateUntPts */
IUP[1]	/* InterpolateUntPts */";
};
width = 963;
},
{
layerId = m002;
shapes = (
{
closed = 1;
nodes = (
(756,113,o),
(625,113,qs),
(462,113,o),
(371,228,qs),
(285,336,o),
(285,514,qs),
(285,695,o),
(443,924,o),
(578,924,qs),
(620,924,o),
(664,899,q),
(664,719,l),
(714,686,o),
(766,686,qs),
(816,686,o),
(887,748,o),
(887,805,qs),
(887,902,o),
(796,957,qs),
(709,1010,o),
(569,1010,qs),
(361,1010,o),
(224,878,qs),
(76,734,o),
(76,487,qs),
(76,264,o),
(332,-16,o),
(545,-16,qs),
(704,-16,o),
(891,84,q),
(891,201,l)
);
}
);
userData = {
assembly = "PUSHW[ ]	/* 1 value pushed */
31
MDAP[1]	/* MoveDirectAbsPt */
PUSHW[ ]	/* 1 value pushed */
32
MDAP[1]	/* MoveDirectAbsPt */
PUSHW[ ]	/* 1 value pushed */
13
MDRP[11100]	/* MoveDirectRelPt */
PUSHW[ ]	/* 1 value pushed */
0
MDRP[10000]	/* MoveDirectRelPt */
PUSHW[ ]	/* 1 value pushed */
0
MDAP[1]	/* MoveDirectAbsPt */
PUSHW[ ]	/* 1 value pushed */
31
SRP0[ ]	/* SetRefPoint0 */
PUSHW[ ]	/* 1 value pushed */
5
MDRP[10000]	/* MoveDirectRelPt */
PUSHW[ ]	/* 1 value pushed */
5
MDAP[1]	/* MoveDirectAbsPt */
PUSHW[ ]	/* 1 value pushed */
13
SRP0[ ]	/* SetRefPoint0 */
PUSHW[ ]	/* 2 values pushed */
18 6
MIRP[11100]	/* MoveIndirectRelPt */
PUSHW[ ]	/* 1 value pushed */
5
SRP0[ ]	/* SetRefPoint0 */
PUSHW[ ]	/* 2 values pushed */
24 6
MIRP[11100]	/* MoveIndirectRelPt */
NPUSHW[ ]	/* 15 values pushed */
102 24 118 24 134 24 150 24 166 24 182 24 198 24 7
DELTAP1[ ]	/* DeltaExceptionP1 */
NPUSHW[ ]	/* 5 values pushed */
213 24 229 24 2
DELTAP1[ ]	/* DeltaExceptionP1 */
SVTCA[0]	/* SetFreedomAndProjectionVectorToAxis */
PUSHW[ ]	/* 4 values pushed */
28 2 2 4
CALL[ ]	/* CallFunction */
PUSHW[ ]	/* 4 values pushed */
9 2 21 4
CALL[ ]	/* CallFunction */
IUP[0]	/* InterpolateUntPts */
IUP[1]	/* InterpolateUntPts */";
};
width = 963;
}
);
note = c;
unicode = 99;
},
{
glyphname = d;
lastChange = "2025-08-23 01:57:26 +0000";
layers = (
{
layerId = m01;
shapes = (
{
closed = 1;
nodes = (
(1022,86,ls),
(979,89,o),
(979,131,qs),
(979,1509,l),
(895,1509,l),
(631,1430,l),
(631,1362,l),
(786,1362,l),
(786,987,l),
(694,1010,o),
(598,1010,qs),
(348,1010,o),
(205,843,qs),
(76,692,o),
(76,467,qs),
(76,273,o),
(170,139,qs),
(277,-16,o),
(469,-16,qs),
(622,-16,o),
(786,109,q),
(786,0,l),
(1110,0,l),
(1110,80,l)
);
},
{
closed = 1;
nodes = (
(575,123,qs),
(436,123,o),
(356,229,qs),
(279,331,o),
(279,502,qs),
(279,688,o),
(460,913,o),
(612,913,qs),
(701,913,o),
(786,883,q),
(786,186,l),
(684,123,o)
);
}
);
userData = {
assembly = "PUSHW[ ]	/* 1 value pushed */
36
MDAP[1]	/* MoveDirectAbsPt */
PUSHW[ ]	/* 1 value pushed */
37
MDAP[1]	/* MoveDirectAbsPt */
PUSHW[ ]	/* 1 value pushed */
20
MDRP[11100]	/* MoveDirectRelPt */
PUSHW[ ]	/* 2 values pushed */
2 6
MIRP[11100]	/* MoveIndirectRelPt */
PUSHW[ ]	/* 1 value pushed */
36
SRP0[ ]	/* SetRefPoint0 */
PUSHW[ ]	/* 1 value pushed */
8
MDRP[10000]	/* MoveDirectRelPt */
PUSHW[ ]	/* 1 value pushed */
8
MDAP[1]	/* MoveDirectAbsPt */
PUSHW[ ]	/* 1 value pushed */
2
SRP0[ ]	/* SetRefPoint0 */
PUSHW[ ]	/* 1 value pushed */
14
MDRP[10000]	/* MoveDirectRelPt */
PUSHW[ ]	/* 1 value pushed */
2
SRP0[ ]	/* SetRefPoint0 */
PUSHW[ ]	/* 1 value pushed */
24
MDRP[10000]	/* MoveDirectRelPt */
PUSHW[ ]	/* 1 value pushed */
8
SRP0[ ]	/* SetRefPoint0 */
PUSHW[ ]	/* 2 values pushed */
30 6
MIRP[11100]	/* MoveIndirectRelPt */
NPUSHW[ ]	/* 15 values pushed */
102 30 118 30 134 30 150 30 166 30 182 30 198 30 7
DELTAP1[ ]	/* DeltaExceptionP1 */
NPUSHW[ ]	/* 5 values pushed */
213 30 229 30 2
DELTAP1[ ]	/* DeltaExceptionP1 */
SVTCA[0]	/* SetFreedomAndProjectionVectorToAxis */
PUSHW[ ]	/* 1 value pushed */
18
MDAP[1]	/* MoveDirectAbsPt */
PUSHW[ ]	/* 4 values pushed */
34 2 4 4
CALL[ ]	/* CallFunction */
PUSHW[ ]	/* 4 values pushed */
16 3 12 4
CALL[ ]	/* CallFunction */
PUSHW[ ]	/* 3 values pushed */
2 4 34
SRP1[ ]	/* SetRefPoint1 */
SRP2[ ]	/* SetRefPoint2 */
IP[ ]	/* InterpolatePts */
IUP[0]	/* InterpolateUntPts */
IUP[1]	/* InterpolateUntPts */";
};
width = 1151;
},
{
layerId = m002;
shapes = (
{
closed = 1;
nodes = (
(1022,86,ls),
(979,89,o),
(979,131,qs),
(979,1509,l),
(895,1509,l),
(631,1430,l),
(631,1362,l),
(786,1362,l),
(786,987,l),
(694,1010,o),
(598,1010,qs),
(348,1010,o),
(205,843,qs),
(76,692,o),
(76,467,qs),
(76,273,o),
(170,139,qs),
(277,-16,o),
(469,-16,qs),
(622,-16,o),
(786,109,q),
(786,0,l),
(1110,0,l),
(1110,80,l)
);
},
{
closed = 1;
nodes = (
(575,123,qs),
(436,123,o),
(356,229,qs),
(279,331,o),
(279,502,qs),
(279,688,o),
(460,913,o),
(612,913,qs),
(701,913,o),
(786,883,q),
(786,186,l),
(684,123,o)
);
}
);
userData = {
assembly = "PUSHW[ ]	/* 1 value pushed */
36
MDAP[1]	/* MoveDirectAbsPt */
PUSHW[ ]	/* 1 value pushed */
37
MDAP[1]	/* MoveDirectAbsPt */
PUSHW[ ]	/* 1 value pushed */
20
MDRP[11100]	/* MoveDirectRelPt */
PUSHW[ ]	/* 2 values pushed */
2 6
MIRP[11100]	/* MoveIndirectRelPt */
PUSHW[ ]	/* 1 value pushed */
36
SRP0[ ]	/* SetRefPoint0 */
PUSHW[ ]	/* 1 value pushed */
8
MDRP[10000]	/* MoveDirectRelPt */
PUSHW[ ]	/* 1 value pushed */
8
MDAP[1]	/* MoveDirectAbsPt */
PUSHW[ ]	/* 1 value pushed */
2
SRP0[ ]	/* SetRefPoint0 */
PUSHW[ ]	/* 1 value pushed */
14
MDRP[10000]	/* MoveDirectRelPt */
PUSHW[ ]	/* 1 value pushed */
2
SRP0[ ]	/* SetRefPoint0 */
PUSHW[ ]	/* 1 value pushed */
24
MDRP[10000]	/* MoveDirectRelPt */
PUSHW[ ]	/* 1 value pushed */
8
SRP0[ ]	/* SetRefPoint0 */
PUSHW[ ]	/* 2 values pushed */
30 6
MIRP[11100]	/* MoveIndirectRelPt */
NPUSHW[ ]	/* 15 values pushed */
102 30 118 30 134 30 150 30 166 30 182 30 198 30 7
DELTAP1[ ]	/* DeltaExceptionP1 */
NPUSHW[ ]	/* 5 values pushed */
213 30 229 30 2
DELTAP1[ ]	/* DeltaExceptionP1 */
SVTCA[0]	/* SetFreedomAndProjectionVectorToAxis */
PUSHW[ ]	/* 1 value pushed */
18
MDAP[1]	/* MoveDirectAbsPt */
PUSHW[ ]	/* 4 values pushed */
34 2 4 4
CALL[ ]	/* CallFunction */
PUSHW[ ]	/* 4 values pushed */
16 3 12 4
CALL[ ]	/* CallFunction */
PUSHW[ ]	/* 3 values pushed */
2 4 34
SRP1[ ]	/* SetRefPoint1 */
SRP2[ ]	/* SetRefPoint2 */
IP[ ]	/* InterpolatePts */
IUP[0]	/* InterpolateUntPts */
IUP[1]	/* InterpolateUntPts */";
};
width = 1151;
}
);
note = d;
unicode = 100;
},
